<svg width="393" height="754" viewBox="0 0 393 754" fill="none" xmlns="http://www.w3.org/2000/svg">
<g opacity="0.5">
<g clip-path="url(#clip0_103_283)">
<path opacity="0.2" d="M16.55 3H15.55V404H16.55V3Z" fill="white"/>
<path opacity="0.2" d="M36.6 3H35.6V404H36.6V3Z" fill="white"/>
<path opacity="0.2" d="M56.65 3H55.65V404H56.65V3Z" fill="white"/>
<path opacity="0.2" d="M76.7 3H75.7V404H76.7V3Z" fill="white"/>
<path opacity="0.5" d="M96.75 3H95.75V404H96.75V3Z" fill="white"/>
<path opacity="0.2" d="M116.8 3H115.8V404H116.8V3Z" fill="white"/>
<path opacity="0.2" d="M136.85 3H135.85V404H136.85V3Z" fill="white"/>
<path opacity="0.2" d="M156.9 3H155.9V404H156.9V3Z" fill="white"/>
<path opacity="0.2" d="M176.95 3H175.95V404H176.95V3Z" fill="white"/>
<path opacity="0.5" d="M197 3H196V404H197V3Z" fill="white"/>
<path opacity="0.2" d="M217.05 3H216.05V404H217.05V3Z" fill="white"/>
<path opacity="0.2" d="M237.1 3H236.1V404H237.1V3Z" fill="white"/>
<path opacity="0.2" d="M257.15 3H256.15V404H257.15V3Z" fill="white"/>
<path opacity="0.2" d="M277.2 3H276.2V404H277.2V3Z" fill="white"/>
<path opacity="0.5" d="M297.25 3H296.25V404H297.25V3Z" fill="white"/>
<path opacity="0.2" d="M317.3 3H316.3V404H317.3V3Z" fill="white"/>
<path opacity="0.2" d="M337.35 3H336.35V404H337.35V3Z" fill="white"/>
<path opacity="0.2" d="M357.4 3H356.4V404H357.4V3Z" fill="white"/>
<path opacity="0.2" d="M377.45 3H376.45V404H377.45V3Z" fill="white"/>
<path opacity="0.5" d="M396.5 3H-3.5V4H396.5V3Z" fill="white"/>
<path opacity="0.2" d="M397 22.55H-4V23.55H397V22.55Z" fill="white"/>
<path opacity="0.2" d="M397 42.6H-4V43.6H397V42.6Z" fill="white"/>
<path opacity="0.2" d="M397 62.65H-4V63.65H397V62.65Z" fill="white"/>
<path opacity="0.2" d="M397 82.7H-4V83.7H397V82.7Z" fill="white"/>
<path opacity="0.5" d="M397 102.75H-4V103.75H397V102.75Z" fill="white"/>
<path opacity="0.2" d="M397 122.8H-4V123.8H397V122.8Z" fill="white"/>
<path opacity="0.2" d="M397 142.85H-4V143.85H397V142.85Z" fill="white"/>
<path opacity="0.2" d="M397 162.9H-4V163.9H397V162.9Z" fill="white"/>
<path opacity="0.2" d="M397 182.95H-4V183.95H397V182.95Z" fill="white"/>
<path opacity="0.5" d="M397 203H-4V204H397V203Z" fill="white"/>
<path opacity="0.2" d="M397 223.05H-4V224.05H397V223.05Z" fill="white"/>
<path opacity="0.2" d="M397 243.1H-4V244.1H397V243.1Z" fill="white"/>
<path opacity="0.2" d="M397 263.15H-4V264.15H397V263.15Z" fill="white"/>
<path opacity="0.2" d="M397 283.2H-4V284.2H397V283.2Z" fill="white"/>
<path opacity="0.5" d="M397 303.25H-4V304.25H397V303.25Z" fill="white"/>
<path opacity="0.2" d="M397 323.3H-4V324.3H397V323.3Z" fill="white"/>
<path opacity="0.2" d="M397 343.35H-4V344.35H397V343.35Z" fill="white"/>
<path opacity="0.2" d="M397 363.4H-4V364.4H397V363.4Z" fill="white"/>
<path opacity="0.2" d="M397 383.45H-4V384.45H397V383.45Z" fill="white"/>
<path opacity="0.5" d="M396.5 403H-3.5V404H396.5V403Z" fill="white"/>
<path d="M97 100H96V107H97V100Z" fill="white"/>
<path d="M100 103H93V104H100V103Z" fill="white"/>
<path d="M97 200H96V207H97V200Z" fill="white"/>
<path d="M100 203H93V204H100V203Z" fill="white"/>
<path d="M97 300H96V307H97V300Z" fill="white"/>
<path d="M100 303H93V304H100V303Z" fill="white"/>
<path d="M97 400H96V407H97V400Z" fill="white"/>
<path d="M100 403H93V404H100V403Z" fill="white"/>
<path d="M197 100H196V107H197V100Z" fill="white"/>
<path d="M200 103H193V104H200V103Z" fill="white"/>
<path d="M197 200H196V207H197V200Z" fill="white"/>
<path d="M200 203H193V204H200V203Z" fill="white"/>
<path d="M197 300H196V307H197V300Z" fill="white"/>
<path d="M200 303H193V304H200V303Z" fill="white"/>
<path d="M197 400H196V407H197V400Z" fill="white"/>
<path d="M200 403H193V404H200V403Z" fill="white"/>
<path d="M297 100H296V107H297V100Z" fill="white"/>
<path d="M300 103H293V104H300V103Z" fill="white"/>
<path d="M297 200H296V207H297V200Z" fill="white"/>
<path d="M300 203H293V204H300V203Z" fill="white"/>
<path d="M297 300H296V307H297V300Z" fill="white"/>
<path d="M300 303H293V304H300V303Z" fill="white"/>
<path d="M297 400H296V407H297V400Z" fill="white"/>
<path d="M300 403H293V404H300V403Z" fill="white"/>
<path d="M47 53H46V54H47V53Z" fill="white"/>
<path d="M147 53H146V54H147V53Z" fill="white"/>
<path d="M247 53H246V54H247V53Z" fill="white"/>
<path d="M347 53H346V54H347V53Z" fill="white"/>
<path d="M47 153H46V154H47V153Z" fill="white"/>
<path d="M147 153H146V154H147V153Z" fill="white"/>
<path d="M247 153H246V154H247V153Z" fill="white"/>
<path d="M347 153H346V154H347V153Z" fill="white"/>
<path d="M47 253H46V254H47V253Z" fill="white"/>
<path d="M147 253H146V254H147V253Z" fill="white"/>
<path d="M247 253H246V254H247V253Z" fill="white"/>
<path d="M347 253H346V254H347V253Z" fill="white"/>
<path d="M47 353H46V354H47V353Z" fill="white"/>
<path d="M147 353H146V354H147V353Z" fill="white"/>
<path d="M247 353H246V354H247V353Z" fill="white"/>
<path d="M347 353H346V354H347V353Z" fill="white"/>
</g>
<g clip-path="url(#clip1_103_283)">
<path opacity="0.2" d="M16.55 403H15.55V804H16.55V403Z" fill="white"/>
<path opacity="0.2" d="M36.6 403H35.6V804H36.6V403Z" fill="white"/>
<path opacity="0.2" d="M56.65 403H55.65V804H56.65V403Z" fill="white"/>
<path opacity="0.2" d="M76.7 403H75.7V804H76.7V403Z" fill="white"/>
<path opacity="0.5" d="M96.75 403H95.75V804H96.75V403Z" fill="white"/>
<path opacity="0.2" d="M116.8 403H115.8V804H116.8V403Z" fill="white"/>
<path opacity="0.2" d="M136.85 403H135.85V804H136.85V403Z" fill="white"/>
<path opacity="0.2" d="M156.9 403H155.9V804H156.9V403Z" fill="white"/>
<path opacity="0.2" d="M176.95 403H175.95V804H176.95V403Z" fill="white"/>
<path opacity="0.5" d="M197 403H196V804H197V403Z" fill="white"/>
<path opacity="0.2" d="M217.05 403H216.05V804H217.05V403Z" fill="white"/>
<path opacity="0.2" d="M237.1 403H236.1V804H237.1V403Z" fill="white"/>
<path opacity="0.2" d="M257.15 403H256.15V804H257.15V403Z" fill="white"/>
<path opacity="0.2" d="M277.2 403H276.2V804H277.2V403Z" fill="white"/>
<path opacity="0.5" d="M297.25 403H296.25V804H297.25V403Z" fill="white"/>
<path opacity="0.2" d="M317.3 403H316.3V804H317.3V403Z" fill="white"/>
<path opacity="0.2" d="M337.35 403H336.35V804H337.35V403Z" fill="white"/>
<path opacity="0.2" d="M357.4 403H356.4V804H357.4V403Z" fill="white"/>
<path opacity="0.2" d="M377.45 403H376.45V804H377.45V403Z" fill="white"/>
<path opacity="0.5" d="M396.5 403H-3.5V404H396.5V403Z" fill="white"/>
<path opacity="0.2" d="M397 422.55H-4V423.55H397V422.55Z" fill="white"/>
<path opacity="0.2" d="M397 442.6H-4V443.6H397V442.6Z" fill="white"/>
<path opacity="0.2" d="M397 462.65H-4V463.65H397V462.65Z" fill="white"/>
<path opacity="0.2" d="M397 482.7H-4V483.7H397V482.7Z" fill="white"/>
<path opacity="0.5" d="M397 502.75H-4V503.75H397V502.75Z" fill="white"/>
<path opacity="0.2" d="M397 522.8H-4V523.8H397V522.8Z" fill="white"/>
<path opacity="0.2" d="M397 542.85H-4V543.85H397V542.85Z" fill="white"/>
<path opacity="0.2" d="M397 562.9H-4V563.9H397V562.9Z" fill="white"/>
<path opacity="0.2" d="M397 582.95H-4V583.95H397V582.95Z" fill="white"/>
<path opacity="0.5" d="M397 603H-4V604H397V603Z" fill="white"/>
<path opacity="0.2" d="M397 623.05H-4V624.05H397V623.05Z" fill="white"/>
<path opacity="0.2" d="M397 643.1H-4V644.1H397V643.1Z" fill="white"/>
<path opacity="0.2" d="M397 663.15H-4V664.15H397V663.15Z" fill="white"/>
<path opacity="0.2" d="M397 683.2H-4V684.2H397V683.2Z" fill="white"/>
<path opacity="0.5" d="M397 703.25H-4V704.25H397V703.25Z" fill="white"/>
<path opacity="0.2" d="M397 723.3H-4V724.3H397V723.3Z" fill="white"/>
<path opacity="0.2" d="M397 743.35H-4V744.35H397V743.35Z" fill="white"/>
<path d="M97 400H96V407H97V400Z" fill="white"/>
<path d="M100 403H93V404H100V403Z" fill="white"/>
<path d="M97 500H96V507H97V500Z" fill="white"/>
<path d="M100 503H93V504H100V503Z" fill="white"/>
<path d="M97 600H96V607H97V600Z" fill="white"/>
<path d="M100 603H93V604H100V603Z" fill="white"/>
<path d="M97 700H96V707H97V700Z" fill="white"/>
<path d="M100 703H93V704H100V703Z" fill="white"/>
<path d="M197 400H196V407H197V400Z" fill="white"/>
<path d="M200 403H193V404H200V403Z" fill="white"/>
<path d="M197 500H196V507H197V500Z" fill="white"/>
<path d="M200 503H193V504H200V503Z" fill="white"/>
<path d="M197 600H196V607H197V600Z" fill="white"/>
<path d="M200 603H193V604H200V603Z" fill="white"/>
<path d="M197 700H196V707H197V700Z" fill="white"/>
<path d="M200 703H193V704H200V703Z" fill="white"/>
<path d="M297 400H296V407H297V400Z" fill="white"/>
<path d="M300 403H293V404H300V403Z" fill="white"/>
<path d="M297 500H296V507H297V500Z" fill="white"/>
<path d="M300 503H293V504H300V503Z" fill="white"/>
<path d="M297 600H296V607H297V600Z" fill="white"/>
<path d="M300 603H293V604H300V603Z" fill="white"/>
<path d="M297 700H296V707H297V700Z" fill="white"/>
<path d="M300 703H293V704H300V703Z" fill="white"/>
<path fill-rule="evenodd" clip-rule="evenodd" d="M46 453H47V454H46V453ZM146 453H147V454H146V453ZM247 453H246V454H247V453ZM346 453H347V454H346V453ZM47 553H46V554H47V553ZM146 553H147V554H146V553ZM247 553H246V554H247V553ZM346 553H347V554H346V553ZM47 653H46V654H47V653ZM146 653H147V654H146V653ZM247 653H246V654H247V653ZM346 653H347V654H346V653Z" fill="white"/>
</g>
</g>
<defs>
<clipPath id="clip0_103_283">
<rect width="407" height="407" fill="white" transform="translate(-7)"/>
</clipPath>
<clipPath id="clip1_103_283">
<rect width="407" height="407" fill="white" transform="translate(-7 400)"/>
</clipPath>
</defs>
</svg>
