<svg width="393" height="228" viewBox="0 0 393 228" fill="none" xmlns="http://www.w3.org/2000/svg">
<path d="M960.996 226.25H872.376L809.148 187.376H960.996V185.451H806.018L754.677 153.883H961V151.958H751.547L709.16 125.898H908.74L961 148.85V146.696L913.642 125.898H961V123.972H909.259L859.592 102.164H960.996V100.238H855.21L813.175 81.7793H960.996V79.8539H808.792L772.881 64.0809H931.133L960.996 74.2797V72.2136L937.178 64.0809H960.996V62.1555H931.547L891.78 48.5717H960.996V46.6463H886.144L851.671 34.8693H960.996V32.9438H846.035L815.975 22.6747H946.128L960.991 26.829V24.8068L872.363 0.0439603L872.2 0H-477.442L-539 17.2017V19.2238L-512.299 11.7638H-389.249L-415.581 20.7581H-539V22.6835H-421.217L-451.277 32.9526H-539V34.8781H-456.913L-491.387 46.6551H-539V48.5805H-497.022L-536.784 62.1555H-539V64.9777L-536.371 64.0809H-378.118L-414.03 79.8539H-539V81.7793H-418.417L-460.452 100.238H-539V102.164H-464.835L-514.501 123.972H-539V125.898H-518.879L-539 134.734V136.888L-513.978 125.898H-314.398L-356.785 151.958H-539V153.883H-359.915L-411.256 185.451H-539V187.376H-414.39L-477.618 226.25H-539V228.176H960.996V226.25ZM802.193 185.451H562.86L532.053 153.883H750.848L802.189 185.451H802.193ZM275.343 48.5761H426.395L439.648 62.1599H279.761L275.343 48.5761ZM277.475 62.1599H117.283L121.701 48.5761H273.057L277.475 62.1599ZM274.714 46.6507L270.885 34.8737H413.022L424.513 46.6507H274.714ZM272.428 46.6507H122.326L126.154 34.8737H268.595L272.424 46.6507H272.428ZM120.04 46.6507H-29.7595L-18.2682 34.8737H123.869L120.04 46.6507ZM119.415 48.5761L114.997 62.1599H-44.8907L-31.6366 48.5761H119.415ZM116.655 64.0853H278.099L283.229 79.8583H111.524L116.655 64.0853ZM283.853 81.7837L289.858 100.243H104.891L110.896 81.7837H283.853ZM290.482 102.168L297.578 123.977H97.1714L104.267 102.168H290.482ZM292.768 102.168H478.685L499.971 123.977H299.868L292.773 102.168H292.768ZM292.144 100.243L286.139 81.7837H458.793L476.808 100.243H292.144ZM285.515 79.8583L280.385 64.0853H441.526L456.916 79.8583H285.515ZM429.283 48.5805H579.565L601.655 62.1643H442.537L429.283 48.5805ZM427.406 46.6551L415.914 34.8781H557.282L576.435 46.6551H427.406ZM414.037 32.9526L404.019 22.6835H537.456L554.156 32.9526H414.042H414.037ZM411.145 32.9526H270.261L266.92 22.6835H401.126L411.145 32.9526ZM267.975 32.9526H126.787L130.128 22.6835H264.638L267.979 32.9526H267.975ZM124.502 32.9526H-16.3824L-6.36383 22.6835H127.843L124.502 32.9526ZM-19.275 32.9526H-159.39L-142.689 22.6835H-9.25201L-19.2706 32.9526H-19.275ZM-21.1521 34.8781L-32.6433 46.6551H-181.673L-162.52 34.8781H-21.1521ZM-34.5204 48.5805L-47.7744 62.1643H-206.893L-184.803 48.5805H-34.5204ZM-46.7634 64.0897H114.378L109.247 79.8627H-62.1539L-46.7634 64.0897ZM108.619 81.7881L102.614 100.247H-82.0503L-64.0354 81.7881H108.619ZM101.99 102.173L94.8943 123.981H-105.209L-83.923 102.173H101.994H101.99ZM96.5516 125.907H298.211L306.686 151.966H88.0717L96.5472 125.907H96.5516ZM300.497 125.907H501.852L527.283 151.966H308.972L300.497 125.907ZM481.582 102.173H666.725L702.201 123.981H502.868L481.582 102.173ZM479.705 100.247L461.69 81.7881H633.575L663.6 100.247H479.705ZM459.813 79.8627L444.423 64.0897H604.794L630.445 79.8627H459.813ZM583.394 48.5849H732.67L763.596 62.1687H605.484L583.394 48.5849ZM580.264 46.6595L561.111 34.8825H701.472L728.287 46.6595H580.264ZM557.981 32.957L541.28 22.6879H673.711L697.089 32.957H557.981ZM653.748 11.7682H777.963L804.295 20.7624H674.229L653.748 11.7682ZM669.328 20.7624H538.15L523.52 11.7682H648.847L669.328 20.7624ZM534.326 20.7624H402.142L393.363 11.7682H519.696L534.326 20.7624ZM399.253 20.7624H266.3L263.372 11.7682H390.475L399.253 20.7624ZM264.014 20.7624H130.757L133.685 11.7682H261.091L264.018 20.7624H264.014ZM128.471 20.7624H-4.48236L4.29651 11.7682H131.399L128.471 20.7624ZM-7.37494 20.7624H-139.559L-124.929 11.7682H1.40393L-7.37494 20.7624ZM-143.384 20.7624H-274.561L-254.08 11.7682H-128.754L-143.384 20.7624ZM-146.514 22.6879L-163.214 32.957H-302.322L-278.944 22.6879H-146.514ZM-166.344 34.8781L-185.498 46.6551H-333.521L-306.705 34.8781H-166.344ZM-188.628 48.5805L-210.718 62.1643H-368.83L-337.904 48.5805H-188.628ZM-210.023 64.0897H-49.6516L-65.0421 79.8627H-235.674L-210.023 64.0897ZM-66.9236 81.7881L-84.9385 100.247H-268.833L-238.808 81.7881H-66.9236ZM-86.8156 102.173L-108.101 123.981H-307.435L-271.959 102.173H-86.8156ZM-107.086 125.907H94.2701L85.7901 151.966H-132.521L-107.09 125.907H-107.086ZM85.1659 153.892L74.8967 185.46H-165.206L-134.398 153.892H85.1659ZM87.4518 153.892H307.319L317.588 185.46H77.1827L87.4518 153.892ZM309.605 153.892H529.169L559.977 185.46H319.874L309.605 153.892ZM747.727 151.966H530.185L504.754 125.907H705.34L747.727 151.966ZM904.362 123.981H706.035L670.559 102.173H854.7L904.366 123.981H904.362ZM850.312 100.247H667.424L637.4 81.7881H808.278L850.312 100.247ZM803.895 79.8627H634.27L608.619 64.0897H767.984L803.895 79.8627ZM925.502 62.1643H768.502L737.576 48.5805H885.74L925.506 62.1643H925.502ZM880.104 46.6551H733.193L706.378 34.8781H845.626L880.1 46.6551H880.104ZM839.995 32.9526H701.995L678.617 22.6835H809.935L839.995 32.9526ZM939.253 20.7624H810.348L784.016 11.7682H907.065L939.253 20.7624ZM871.866 1.92986L900.177 9.84271H778.376L755.213 1.92986H871.862H871.866ZM749.169 1.92986L772.331 9.84271H649.37L631.355 1.92986H749.169ZM626.453 1.92986L644.468 9.84271H520.395L507.528 1.92986H626.453ZM503.703 1.92986L516.57 9.84271H391.49L383.771 1.92986H503.703ZM380.882 1.92986L388.606 9.84271H262.757L260.185 1.92986H380.887H380.882ZM257.895 1.92986L260.466 9.84271H134.313L136.885 1.92986H257.89H257.895ZM134.604 1.92986L132.032 9.84271H6.18243L13.9062 1.92986H134.608H134.604ZM11.0093 1.92986L3.28979 9.84271H-121.79L-108.923 1.92986H11.0093ZM-112.748 1.92986L-125.615 9.84271H-249.689L-231.674 1.92986H-112.748ZM-236.575 1.92986L-254.59 9.84271H-377.551L-354.389 1.92986H-236.575ZM-505.41 9.83831L-477.1 1.92546H-360.451L-383.614 9.83831H-505.41ZM-383.2 11.7638H-258.986L-279.467 20.7581H-409.533L-383.2 11.7638ZM-415.168 22.6835H-283.85L-307.228 32.9526H-445.228L-415.168 22.6835ZM-450.864 34.8737H-311.615L-338.431 46.6507H-485.338L-450.864 34.8737ZM-530.74 62.1555L-490.978 48.5717H-342.814L-373.74 62.1555H-530.74ZM-373.221 64.0809H-213.856L-239.507 79.8539H-409.132L-373.221 64.0809ZM-413.515 81.7793H-242.637L-272.662 100.238H-455.546L-413.511 81.7793H-413.515ZM-509.595 123.972L-459.929 102.164H-275.788L-311.264 123.972H-509.595ZM-310.574 125.898H-109.987L-135.418 151.958H-352.96L-310.574 125.898ZM-356.094 153.883H-137.3L-168.107 185.451H-407.431L-356.09 153.883H-356.094ZM-473.798 226.25L-410.57 187.376H-169.984L-207.922 226.25H-473.794H-473.798ZM-205.034 226.25L-167.096 187.376H74.2593L61.6119 226.25H-205.034ZM63.8979 226.25L76.5453 187.376H318.204L330.851 226.25H63.9023H63.8979ZM333.133 226.25L320.485 187.376H561.841L599.778 226.25H333.133ZM602.671 226.25L564.733 187.376H805.319L868.547 226.25H602.671Z" fill="url(#paint0_linear_103_271)"/>
<defs>
<linearGradient id="paint0_linear_103_271" x1="208.734" y1="-56.9769" x2="212.598" y2="256.174" gradientUnits="userSpaceOnUse">
<stop stop-color="#DEFE48"/>
<stop offset="1"/>
</linearGradient>
</defs>
</svg>
