<svg width="250" height="52" viewBox="0 0 250 52" fill="none" xmlns="http://www.w3.org/2000/svg">
<path fill-rule="evenodd" clip-rule="evenodd" d="M102.801 40.6881C105.65 43.5932 109.28 45.5716 113.233 46.3731C117.185 47.1746 121.281 46.7632 125.004 45.191C128.727 43.6188 131.909 40.9564 134.147 37.5404C136.386 34.1245 137.581 30.1084 137.581 26C137.581 21.8916 136.386 17.8755 134.147 14.4596C131.909 11.0436 128.727 8.38116 125.004 6.80897C121.281 5.23677 117.185 4.82542 113.233 5.62693C109.28 6.42845 105.65 8.40683 102.801 11.3119C98.9803 15.2074 96.8338 20.4909 96.8338 26C96.8338 31.5091 98.9803 36.7926 102.801 40.6881ZM99.1706 44.3847C102.737 48.0209 107.281 50.4971 112.227 51.5004C117.174 52.5036 122.302 51.9888 126.961 50.0209C131.621 48.053 135.604 44.7205 138.406 40.4449C141.208 36.1692 142.703 31.1423 142.703 26C142.703 20.8577 141.208 15.8308 138.406 11.5551C135.604 7.27947 131.621 3.94698 126.961 1.97911C122.302 0.011244 117.174 -0.503624 112.227 0.499618C107.281 1.50286 102.737 3.97915 99.1706 7.61534C94.3884 12.4913 91.7013 19.1044 91.7013 26C91.7013 32.8956 94.3884 39.5087 99.1706 44.3847Z" fill="white"/>
<path fill-rule="evenodd" clip-rule="evenodd" d="M122.412 31.8586C120.95 33.1524 119.076 33.8601 117.14 33.8496C115.205 33.839 113.339 33.1111 111.891 31.8014C110.606 30.3248 109.892 28.4224 109.882 26.4487C109.871 24.4751 110.565 22.565 111.834 21.0745L108.193 17.3617C105.969 19.8424 104.742 23.0852 104.756 26.4458C104.769 29.8064 106.022 33.0389 108.265 35.5012C110.68 37.7883 113.851 39.0655 117.147 39.0791C120.443 39.0927 123.623 37.8418 126.056 35.5747L122.412 31.8586Z" fill="white"/>
<path d="M120.341 20.0842C119.89 20.5434 119.317 20.8561 118.692 20.9828C118.067 21.1095 117.42 21.0445 116.831 20.7961C116.243 20.5476 115.74 20.1268 115.386 19.5869C115.032 19.047 114.844 18.4122 114.844 17.7629C114.844 17.1135 115.032 16.4787 115.386 15.9388C115.74 15.3989 116.243 14.9781 116.831 14.7296C117.42 14.4812 118.067 14.4162 118.692 14.5429C119.317 14.6696 119.89 14.9823 120.341 15.4415C120.944 16.0574 121.283 16.8923 121.283 17.7629C121.283 18.6334 120.944 19.4683 120.341 20.0842Z" fill="white"/>
<path d="M127.928 27.8189C127.478 28.278 126.904 28.5908 126.28 28.7175C125.655 28.8442 125.008 28.7792 124.419 28.5307C123.831 28.2822 123.328 27.8614 122.974 27.3215C122.62 26.7816 122.431 26.1468 122.431 25.4975C122.431 24.8481 122.62 24.2134 122.974 23.6735C123.328 23.1336 123.831 22.7128 124.419 22.4643C125.008 22.2158 125.655 22.1508 126.28 22.2775C126.904 22.4042 127.478 22.7169 127.928 23.1761C128.532 23.792 128.871 24.627 128.871 25.4975C128.871 26.368 128.532 27.203 127.928 27.8189Z" fill="white"/>
<path d="M0 25.688C0 24.024 0.340012 22.5102 1.02004 21.1467C1.72273 19.7831 2.7201 18.7084 4.01214 17.9227C5.32686 17.1369 6.86824 16.744 8.63631 16.744C9.81502 16.744 10.9824 16.9867 12.1384 17.472C13.2945 17.9573 14.2805 18.72 15.0965 19.76C15.9126 20.7769 16.3886 22.0711 16.5246 23.6427H13.7025C13.4758 22.0942 12.9091 20.9733 12.0024 20.28C11.0957 19.5636 9.97369 19.2053 8.63631 19.2053C6.73224 19.2053 5.28152 19.8178 4.28415 21.0427C3.28678 22.2444 2.7881 23.7929 2.7881 25.688C2.7881 27.5831 3.28678 29.1547 4.28415 30.4027C5.28152 31.6276 6.73224 32.24 8.63631 32.24C9.97369 32.24 11.0957 31.8933 12.0024 31.2C12.9091 30.4836 13.4758 29.3511 13.7025 27.8027H16.5246C16.3886 29.3742 15.9126 30.68 15.0965 31.72C14.2805 32.7369 13.2945 33.488 12.1384 33.9733C10.9824 34.4356 9.81502 34.6667 8.63631 34.6667C6.86824 34.6667 5.32686 34.2738 4.01214 33.488C2.7201 32.7022 1.72273 31.6276 1.02004 30.264C0.340012 28.9004 0 27.3751 0 25.688Z" fill="white"/>
<path d="M19.6902 25.688C19.6902 24.024 20.0642 22.5102 20.8122 21.1467C21.5602 19.7831 22.6029 18.7084 23.9403 17.9227C25.3004 17.1369 26.8644 16.744 28.6325 16.744C30.3779 16.744 31.9193 17.1369 33.2566 17.9227C34.6167 18.7084 35.6707 19.7831 36.4187 21.1467C37.1668 22.5102 37.5408 24.024 37.5408 25.688C37.5408 27.3751 37.1668 28.9004 36.4187 30.264C35.6934 31.6276 34.6507 32.7022 33.2906 33.488C31.9306 34.2738 30.3779 34.6667 28.6325 34.6667C26.8644 34.6667 25.3004 34.2738 23.9403 33.488C22.6029 32.7022 21.5602 31.6276 20.8122 30.264C20.0642 28.9004 19.6902 27.3751 19.6902 25.688ZM22.4783 25.688C22.4783 26.9129 22.7163 28.0222 23.1923 29.016C23.6683 30.0098 24.371 30.7956 25.3004 31.3733C26.2297 31.9511 27.3404 32.24 28.6325 32.24C29.9019 32.24 30.9899 31.9511 31.8966 31.3733C32.826 30.7956 33.5286 30.0098 34.0047 29.016C34.4807 28.0222 34.7187 26.9129 34.7187 25.688C34.7187 24.4862 34.4807 23.4 34.0047 22.4293C33.5286 21.4356 32.826 20.6498 31.8966 20.072C30.9899 19.4942 29.9019 19.2053 28.6325 19.2053C26.7057 19.2053 25.1983 19.8178 24.1103 21.0427C23.0223 22.2676 22.4783 23.816 22.4783 25.688Z" fill="white"/>
<path d="M40.7085 25.688C40.7085 24.024 41.0485 22.5102 41.7285 21.1467C42.4312 19.7831 43.4286 18.7084 44.7206 17.9227C46.0353 17.1369 47.5767 16.744 49.3448 16.744C50.5235 16.744 51.6909 16.9867 52.8469 17.472C54.0029 17.9573 54.989 18.72 55.805 19.76C56.621 20.7769 57.0971 22.0711 57.2331 23.6427H54.411C54.1843 22.0942 53.6176 20.9733 52.7109 20.28C51.8042 19.5636 50.6822 19.2053 49.3448 19.2053C47.4407 19.2053 45.99 19.8178 44.9926 21.0427C43.9953 22.2444 43.4966 23.7929 43.4966 25.688C43.4966 27.5831 43.9953 29.1547 44.9926 30.4027C45.99 31.6276 47.4407 32.24 49.3448 32.24C50.6822 32.24 51.8042 31.8933 52.7109 31.2C53.6176 30.4836 54.1843 29.3511 54.411 27.8027H57.2331C57.0971 29.3742 56.621 30.68 55.805 31.72C54.989 32.7369 54.0029 33.488 52.8469 33.9733C51.6909 34.4356 50.5235 34.6667 49.3448 34.6667C47.5767 34.6667 46.0353 34.2738 44.7206 33.488C43.4286 32.7022 42.4312 31.6276 41.7285 30.264C41.0485 28.9004 40.7085 27.3751 40.7085 25.688Z" fill="white"/>
<path d="M60.3986 25.688C60.3986 24.024 60.7726 22.5102 61.5207 21.1467C62.2687 19.7831 63.3114 18.7084 64.6488 17.9227C66.0088 17.1369 67.5729 16.744 69.341 16.744C71.0863 16.744 72.6277 17.1369 73.9651 17.9227C75.3252 18.7084 76.3792 19.7831 77.1272 21.1467C77.8753 22.5102 78.2493 24.024 78.2493 25.688C78.2493 27.3751 77.8753 28.9004 77.1272 30.264C76.4019 31.6276 75.3592 32.7022 73.9991 33.488C72.6391 34.2738 71.0863 34.6667 69.341 34.6667C67.5729 34.6667 66.0088 34.2738 64.6488 33.488C63.3114 32.7022 62.2687 31.6276 61.5207 30.264C60.7726 28.9004 60.3986 27.3751 60.3986 25.688ZM63.1867 25.688C63.1867 26.9129 63.4247 28.0222 63.9008 29.016C64.3768 30.0098 65.0795 30.7956 66.0088 31.3733C66.9382 31.9511 68.0489 32.24 69.341 32.24C70.6103 32.24 71.6984 31.9511 72.6051 31.3733C73.5344 30.7956 74.2371 30.0098 74.7131 29.016C75.1892 28.0222 75.4272 26.9129 75.4272 25.688C75.4272 24.4862 75.1892 23.4 74.7131 22.4293C74.2371 21.4356 73.5344 20.6498 72.6051 20.072C71.6984 19.4942 70.6103 19.2053 69.341 19.2053C67.4142 19.2053 65.9068 19.8178 64.8188 21.0427C63.7307 22.2676 63.1867 23.816 63.1867 25.688Z" fill="white"/>
<path d="M156.767 25.48C156.767 23.6773 157.107 22.1173 157.787 20.8C158.49 19.4827 159.453 18.4773 160.677 17.784C161.924 17.0907 163.352 16.744 164.961 16.744C167.364 16.744 169.279 17.4836 170.707 18.9627C172.135 20.4418 172.849 22.4987 172.849 25.1333V26.2427H159.521C159.612 28.0453 160.122 29.5013 161.051 30.6107C161.98 31.72 163.42 32.2747 165.369 32.2747C166.775 32.2747 167.931 31.9396 168.837 31.2693C169.744 30.576 170.345 29.5822 170.639 28.288H173.427C173.042 29.9751 172.203 31.4658 170.911 32.76C169.619 34.0311 167.772 34.6667 165.369 34.6667C163.442 34.6667 161.833 34.2622 160.541 33.4533C159.249 32.6213 158.297 31.5236 157.685 30.16C157.073 28.7733 156.767 27.2133 156.767 25.48ZM170.095 24.0933C170.095 22.6604 169.642 21.4818 168.735 20.5573C167.851 19.6098 166.593 19.136 164.961 19.136C163.873 19.136 162.921 19.3556 162.105 19.7947C161.289 20.2338 160.654 20.8347 160.201 21.5973C159.748 22.3369 159.521 23.1689 159.521 24.0933H170.095Z" fill="white"/>
<path d="M177.029 22.0827C177.029 19.7022 177.471 17.5644 178.355 15.6693C179.262 13.7511 180.566 12.2489 182.266 11.1627C183.966 10.0764 185.96 9.53333 188.25 9.53333C191.287 9.53333 193.758 10.4116 195.662 12.168C197.589 13.9013 198.734 16.2818 199.096 19.3093H196.308C196.036 16.9751 195.209 15.1724 193.826 13.9013C192.443 12.6071 190.585 11.96 188.25 11.96C185.53 11.96 183.444 12.8844 181.994 14.7333C180.543 16.5822 179.818 19.032 179.818 22.0827C179.818 25.1333 180.543 27.5947 181.994 29.4667C183.444 31.3156 185.53 32.24 188.25 32.24C190.585 32.24 192.443 31.5929 193.826 30.2987C195.209 29.0044 196.036 27.1902 196.308 24.856H199.096C198.734 27.9067 197.589 30.3102 195.662 32.0667C193.758 33.8 191.287 34.6667 188.25 34.6667C185.96 34.6667 183.966 34.1236 182.266 33.0373C180.566 31.9511 179.262 30.4489 178.355 28.5307C177.471 26.6124 177.029 24.4631 177.029 22.0827Z" fill="white"/>
<path d="M202.257 25.688C202.257 24.024 202.631 22.5102 203.379 21.1467C204.127 19.7831 205.169 18.7084 206.507 17.9227C207.867 17.1369 209.431 16.744 211.199 16.744C212.944 16.744 214.486 17.1369 215.823 17.9227C217.183 18.7084 218.237 19.7831 218.985 21.1467C219.733 22.5102 220.107 24.024 220.107 25.688C220.107 27.3751 219.733 28.9004 218.985 30.264C218.26 31.6276 217.217 32.7022 215.857 33.488C214.497 34.2738 212.944 34.6667 211.199 34.6667C209.431 34.6667 207.867 34.2738 206.507 33.488C205.169 32.7022 204.127 31.6276 203.379 30.264C202.631 28.9004 202.257 27.3751 202.257 25.688ZM205.045 25.688C205.045 26.9129 205.283 28.0222 205.759 29.016C206.235 30.0098 206.938 30.7956 207.867 31.3733C208.796 31.9511 209.907 32.24 211.199 32.24C212.468 32.24 213.556 31.9511 214.463 31.3733C215.393 30.7956 216.095 30.0098 216.571 29.016C217.047 28.0222 217.285 26.9129 217.285 25.688C217.285 24.4862 217.047 23.4 216.571 22.4293C216.095 21.4356 215.393 20.6498 214.463 20.072C213.556 19.4942 212.468 19.2053 211.199 19.2053C209.272 19.2053 207.765 19.8178 206.677 21.0427C205.589 22.2676 205.045 23.816 205.045 25.688Z" fill="white"/>
<path d="M244.764 16.744C246.487 16.744 247.79 17.368 248.674 18.616C249.558 19.8409 250 21.4587 250 23.4693V34.32H247.212V24.1627C247.212 22.4293 246.963 21.1698 246.464 20.384C245.965 19.5982 245.058 19.2053 243.744 19.2053C242.066 19.2053 240.752 19.8987 239.8 21.2853C238.848 22.6489 238.372 24.4747 238.372 26.7627V34.32H235.583V24.1627C235.583 22.4293 235.334 21.1698 234.835 20.384C234.337 19.5982 233.43 19.2053 232.115 19.2053C230.438 19.2053 229.123 19.8987 228.171 21.2853C227.219 22.6489 226.743 24.4747 226.743 26.7627V34.32H223.955V17.0907H226.743V20.0027L226.301 21.9787H227.083C227.854 18.4889 229.871 16.744 233.135 16.744C234.631 16.744 235.799 17.2178 236.638 18.1653C237.499 19.0898 238.032 20.3609 238.236 21.9787H238.746C239.516 18.4889 241.522 16.744 244.764 16.744Z" fill="white"/>
</svg>
