<svg width="237" height="23" viewBox="0 0 237 23" fill="none" xmlns="http://www.w3.org/2000/svg">
<g clip-path="url(#clip0_112_122)">
<path d="M21.4744 23C15.1736 23 10.0471 17.8414 10.0471 11.5011C10.0471 5.16077 15.1736 0 21.4744 0C27.7752 0 32.9017 5.15859 32.9017 11.4989C32.9017 17.8392 27.7752 22.9978 21.4744 22.9978V23ZM21.4744 2.78206C16.6968 2.78206 12.8097 6.69353 12.8097 11.5011C12.8097 16.3087 16.6968 20.2201 21.4744 20.2201C26.252 20.2201 30.1391 16.3087 30.1391 11.5011C30.1391 6.69353 26.252 2.78206 21.4744 2.78206Z" fill="white"/>
<path d="M1.38237 23C0.619682 23 0 22.3764 0 21.609C0 20.8415 0.619682 20.2179 1.38237 20.2179C6.15998 20.2179 10.0471 16.3065 10.0471 11.4989C10.0471 6.69135 6.15998 2.78206 1.38237 2.78206C0.619682 2.78206 0 2.1585 0 1.39103C0 0.623566 0.619682 0 1.38237 0C7.68318 0 12.8096 5.15859 12.8096 11.4989C12.8096 17.8392 7.68318 22.9978 1.38237 22.9978V23Z" fill="white"/>
<path d="M41.5685 23C35.2677 23 30.1412 17.8414 30.1412 11.5011C30.1412 5.16077 35.2655 0 41.5685 0C42.3312 0 42.9509 0.623566 42.9509 1.39103C42.9509 2.1585 42.3312 2.78206 41.5685 2.78206C36.7909 2.78206 32.9038 6.69353 32.9038 11.5011C32.9038 16.3087 36.7909 20.2201 41.5685 20.2201C42.3312 20.2201 42.9509 20.8437 42.9509 21.6111C42.9509 22.3786 42.3312 23.0022 41.5685 23.0022V23Z" fill="white"/>
<path d="M24.1546 19.9323C19.5351 19.9323 15.7759 16.1495 15.7759 11.5011C15.7759 10.9386 16.2287 10.4807 16.7899 10.4807C17.3511 10.4807 17.8039 10.9364 17.8039 11.5011C17.8039 15.0266 20.6532 17.8937 24.1567 17.8937C27.6603 17.8937 30.5096 15.0266 30.5096 11.5011C30.5096 10.9386 30.9624 10.4807 31.5236 10.4807C32.0848 10.4807 32.5376 10.9364 32.5376 11.5011C32.5376 16.1495 28.7784 19.9323 24.1589 19.9323H24.1546Z" fill="white"/>
<path d="M25.9551 12.5062C25.4026 12.5062 24.9562 12.0571 24.9562 11.5011C24.9562 8.02571 22.146 5.19786 18.6922 5.19786C15.2385 5.19786 12.4283 8.02571 12.4283 11.5011C12.4283 12.0571 11.9819 12.5062 11.4294 12.5062C10.8769 12.5062 10.4305 12.0571 10.4305 11.5011C10.4305 6.91594 14.1378 3.18762 18.6922 3.18762C23.2467 3.18762 26.9539 6.91812 26.9539 11.5011C26.9539 12.0571 26.5076 12.5062 25.9551 12.5062Z" fill="white"/>
<path d="M68.9104 4.62225V18.3756H65.552V12.6567H56.9414V18.3756H53.583V4.62225H56.9414V9.78957H65.552V4.62225H68.9104Z" fill="white"/>
<path d="M75.2739 10.0468H85.0567V12.7395H75.2739V15.5107H85.2322V18.38H71.9155V4.62225H85.2322V7.49153H75.2739V10.0468Z" fill="white"/>
<path d="M91.2058 4.62225V15.5085H100.287V18.3778H87.8474V4.62225H91.2058Z" fill="white"/>
<path d="M101.613 4.62225H104.971V18.3756H101.613V4.62225Z" fill="white"/>
<path d="M117.371 11.5578L123.405 18.3756H118.933L115.009 13.9932L111.086 18.3756H106.613L112.765 11.4401L106.672 4.62225H111.203L115.107 8.98504L119.011 4.62225H123.542L117.371 11.5578Z" fill="white"/>
<path d="M154.136 4.62225L149.079 18.3756H145.175L142.421 10.1035L139.667 18.3756H135.743L130.686 4.62225H134.434L137.675 13.7795L140.624 4.62225H144.217L147.166 13.7795L150.407 4.62225H154.136Z" fill="white"/>
<path d="M171.513 11.4989C171.513 15.8225 168.174 18.6896 162.864 18.6896C157.553 18.6896 154.234 15.8007 154.234 11.4989C154.234 7.19719 157.553 4.30829 162.864 4.30829C164.621 4.30829 166.163 4.60263 167.472 5.19349C170.07 6.39266 171.515 8.6122 171.515 11.5011L171.513 11.4989ZM168.155 11.4989C168.155 8.74738 166.163 7.17538 162.864 7.17538C159.564 7.17538 157.592 8.74738 157.592 11.4989C157.592 14.2505 159.583 15.8225 162.864 15.8225C166.144 15.8225 168.155 14.2505 168.155 11.4989Z" fill="white"/>
<path d="M180.67 12.6785H177.116L177.136 18.3778H173.777V4.62225H184.654C187.408 4.62225 189.048 6.07651 189.048 8.25682C189.048 10.4371 187.33 11.7148 184.654 11.7148H183.248C185.376 11.8521 186.782 12.7766 188.013 14.5644C188.617 15.4496 189.341 16.7251 190.179 18.3756H186.156C185.198 16.627 184.477 15.3886 184.009 14.6625C183.521 13.9561 183.053 13.4438 182.563 13.1298C182.076 12.8354 181.43 12.6785 180.67 12.6785ZM185.688 8.74956C185.688 7.78587 185.142 7.35417 183.97 7.35417H177.097L177.116 10.0468H183.97C184.555 10.0468 184.986 9.92911 185.278 9.71326C185.551 9.49741 185.688 9.18344 185.688 8.74956Z" fill="white"/>
<path d="M194.961 4.62225V15.5085H204.042V18.3778H191.603V4.62225H194.961Z" fill="white"/>
<path d="M211.87 18.3778H205.368V4.62225H211.87C216.869 4.62225 219.837 7.03803 219.837 11.4989C219.837 15.9598 216.869 18.3756 211.87 18.3756V18.3778ZM216.479 11.5011C216.479 8.84768 214.858 7.49371 211.87 7.49371H208.727V15.5107H211.87C213.374 15.5107 214.527 15.1771 215.307 14.4881C216.089 13.8013 216.479 12.818 216.479 11.5011Z" fill="white"/>
<path d="M225.265 8.67107C225.265 9.43854 226.106 9.79175 227.237 9.92911C227.802 10.0076 228.584 10.0861 229.581 10.145C231.124 10.2431 232.394 10.3608 233.388 10.5374C234.365 10.714 235.204 11.0868 235.927 11.6581C236.651 12.2293 237.002 13.0535 237.002 14.1545C237.002 16.9453 233.897 18.6939 229.289 18.6939C224.68 18.6939 221.439 16.7687 221.478 13.8994H225.031C225.012 15.079 226.554 15.8246 228.994 15.8246C231.962 15.8246 233.622 15.2948 233.622 14.2723C233.622 13.5048 232.801 13.1712 231.709 13.0339C231.143 12.975 230.361 12.9161 229.347 12.8769C227.804 12.7984 226.535 12.6806 225.54 12.504C224.544 12.3471 223.705 11.9742 222.981 11.403C222.26 10.8339 221.887 9.98797 221.887 8.82805C221.887 6.05689 224.778 4.30829 229.091 4.30829C233.405 4.30829 236.61 6.21387 236.649 9.10277H233.096C233.115 7.92323 231.689 7.17756 229.367 7.17756C228.058 7.17756 227.063 7.2953 226.34 7.5504C225.618 7.80549 225.265 8.17832 225.265 8.67107Z" fill="white"/>
</g>
<defs>
<clipPath id="clip0_112_122">
<rect width="237" height="23" fill="white"/>
</clipPath>
</defs>
</svg>
