<svg width="27" height="22" viewBox="0 0 27 22" fill="none" xmlns="http://www.w3.org/2000/svg">
<path d="M0.232253 11.017C0.0133479 11.334 -0.050814 11.6133 0.0397675 11.8549C0.137898 12.0964 0.390771 12.2172 0.798388 12.2172H2.28166C2.43263 13.5759 2.82138 14.8478 3.4479 16.0329C4.07442 17.218 4.88211 18.256 5.87096 19.1467C6.8598 20.0374 7.98075 20.7356 9.23379 21.2414C10.4868 21.7471 11.8154 22 13.2194 22C14.8272 22 16.3331 21.6679 17.7371 21.0036C19.1412 20.3393 20.3414 19.4486 21.3378 18.3314C21.5642 18.0899 21.6699 17.8295 21.6548 17.5502C21.6472 17.2709 21.5378 17.0444 21.3264 16.8708C21.1075 16.6897 20.866 16.6142 20.6018 16.6444C20.3451 16.667 20.1074 16.7916 19.8884 17.018C19.0732 17.9314 18.0881 18.656 16.9332 19.192C15.7859 19.7279 14.5479 19.9959 13.2194 19.9959C12.072 19.9959 10.9926 19.7958 9.98109 19.3958C8.9696 19.0033 8.06378 18.4522 7.26365 17.7427C6.47106 17.0331 5.81812 16.2103 5.30482 15.2743C4.79907 14.3383 4.47449 13.3193 4.33107 12.2172H5.92757C6.32764 12.2172 6.57674 12.0964 6.67487 11.8549C6.773 11.6133 6.71261 11.3378 6.4937 11.0283L4.00271 7.51827C3.82155 7.25407 3.60642 7.12197 3.35732 7.12197C3.11577 7.12197 2.90063 7.25407 2.71192 7.51827L0.232253 11.017ZM5.12366 3.65723C4.88966 3.89878 4.77643 4.1592 4.78398 4.4385C4.79907 4.71779 4.9123 4.94424 5.12366 5.11786C5.33501 5.29147 5.57279 5.36696 5.83699 5.34431C6.10118 5.32167 6.34273 5.19712 6.56164 4.97066C7.37687 4.06485 8.35817 3.34774 9.50554 2.81935C10.6529 2.28341 11.8909 2.01544 13.2194 2.01544C14.3667 2.01544 15.4462 2.2117 16.4577 2.60422C17.4692 2.99674 18.3712 3.54778 19.1638 4.25733C19.9639 4.95934 20.6169 5.78212 21.1226 6.72568C21.6359 7.66924 21.9643 8.68828 22.1077 9.78281H20.5112C20.1187 9.78281 19.8696 9.90358 19.7639 10.1451C19.6582 10.3867 19.7186 10.6622 19.9451 10.9717L22.4247 14.4817C22.6059 14.7384 22.821 14.8705 23.0701 14.878C23.3192 14.878 23.5344 14.7459 23.7155 14.4817L26.2065 10.983C26.433 10.666 26.4934 10.3867 26.3877 10.1451C26.2895 9.90358 26.0404 9.78281 25.6404 9.78281H24.1458C23.9948 8.42408 23.6061 7.15217 22.9795 5.96706C22.3606 4.78195 21.5567 3.74404 20.5678 2.85332C19.579 1.9626 18.458 1.26437 17.205 0.75862C15.9519 0.252874 14.6234 0 13.2194 0C11.6191 0 10.117 0.332132 8.71295 0.996397C7.31649 1.65311 6.12005 2.54006 5.12366 3.65723Z" fill="white"/>
</svg>
