<svg width="9" height="14" viewBox="0 0 9 14" fill="none" xmlns="http://www.w3.org/2000/svg">
<path fill-rule="evenodd" clip-rule="evenodd" d="M0.107523 8.08625C0.0358408 8.02173 0 7.9393 0 7.83894C0 7.73859 0.0501775 7.6239 0.150532 7.49487L5.95678 0.204806C6.07147 0.0614417 6.19691 -0.00665619 6.33311 0.000512015C6.4693 0.000512015 6.57324 0.0578578 6.64493 0.172549C6.71661 0.280072 6.72019 0.419852 6.65568 0.591889L4.70951 5.81751H8.30078C8.41547 5.81751 8.50507 5.84977 8.56959 5.91428C8.64127 5.97163 8.67711 6.05406 8.67711 6.16158C8.67711 6.26194 8.62693 6.37305 8.52658 6.49491L2.72033 13.7957C2.60564 13.9319 2.4802 14 2.344 14C2.20781 14 2.10387 13.9463 2.03219 13.8387C1.9605 13.724 1.95692 13.5771 2.02143 13.3979L3.9676 8.17227H0.365578C0.265223 8.17227 0.179205 8.14359 0.107523 8.08625Z" fill="white"/>
</svg>
