<svg width="25" height="25" viewBox="0 0 25 25" fill="none" xmlns="http://www.w3.org/2000/svg">
<path d="M12.5061 21.4511C13.7421 21.4511 14.9014 21.2209 15.984 20.7607C17.0666 20.3004 18.0199 19.6625 18.8439 18.8469C19.668 18.0233 20.3102 17.0704 20.7707 15.9884C21.2393 14.9063 21.4736 13.7435 21.4736 12.5C21.4736 11.2645 21.2393 10.1058 20.7707 9.02374C20.3102 7.9417 19.668 6.99289 18.8439 6.17733C18.0199 5.35368 17.0666 4.70769 15.984 4.23934C14.9014 3.77099 13.7421 3.53682 12.5061 3.53682C11.2619 3.53682 10.0945 3.77099 9.00388 4.23934C7.92131 4.69961 6.96801 5.34157 6.14397 6.16521C5.328 6.98886 4.68977 7.9417 4.22928 9.02374C3.76878 10.1058 3.53854 11.2645 3.53854 12.5C3.53854 13.7435 3.76878 14.9104 4.22928 16.0005C4.68977 17.0825 5.328 18.0313 6.14397 18.8469C6.96801 19.6625 7.92131 20.3004 9.00388 20.7607C10.0864 21.2209 11.2538 21.4511 12.5061 21.4511ZM12.5061 20.6153C11.375 20.6153 10.3167 20.4054 9.33107 19.9855C8.35353 19.5656 7.49313 18.9882 6.74988 18.2534C6.00662 17.5105 5.42495 16.6505 5.00485 15.6734C4.59283 14.6883 4.38682 13.6305 4.38682 12.5C4.38682 11.3776 4.59687 10.3278 5.01697 9.35078C5.43707 8.36563 6.01874 7.50162 6.762 6.75872C7.50525 6.01583 8.36565 5.43443 9.34319 5.01453C10.3288 4.59464 11.3831 4.38469 12.5061 4.38469C13.6209 4.38469 14.6672 4.59464 15.6447 5.01453C16.6303 5.43443 17.4947 6.01986 18.238 6.77083C18.9813 7.51373 19.5629 8.37371 19.983 9.35078C20.4031 10.3278 20.6132 11.3776 20.6132 12.5C20.6132 13.6224 20.4031 14.6762 19.983 15.6613C19.571 16.6384 18.9934 17.4984 18.2501 18.2413C17.5069 18.9842 16.6424 19.5656 15.6568 19.9855C14.6793 20.4054 13.629 20.6153 12.5061 20.6153ZM12.5061 1.05378C12.6434 1.05378 12.7646 1.00533 12.8696 0.90843C12.9746 0.803456 13.0271 0.678295 13.0271 0.532946C13.0271 0.387597 12.9746 0.262435 12.8696 0.157461C12.7646 0.0524871 12.6434 0 12.5061 0C12.3687 0 12.2435 0.0524871 12.1304 0.157461C12.0254 0.262435 11.9729 0.387597 11.9729 0.532946C11.9729 0.678295 12.0254 0.803456 12.1304 0.90843C12.2435 1.00533 12.3687 1.05378 12.5061 1.05378ZM14.5904 1.23547C14.7358 1.23547 14.861 1.18298 14.9661 1.078C15.0711 0.97303 15.1236 0.855943 15.1236 0.726744C15.1236 0.581395 15.0711 0.456234 14.9661 0.35126C14.861 0.246286 14.7358 0.193798 14.5904 0.193798C14.445 0.193798 14.3198 0.246286 14.2147 0.35126C14.1178 0.456234 14.0693 0.581395 14.0693 0.726744C14.0693 0.855943 14.1178 0.97303 14.2147 1.078C14.3198 1.18298 14.445 1.23547 14.5904 1.23547ZM16.602 1.78052C16.7394 1.78052 16.8606 1.72804 16.9656 1.62306C17.0787 1.51809 17.1352 1.39696 17.1352 1.25969C17.1352 1.12242 17.0787 1.00129 16.9656 0.896318C16.8606 0.783269 16.7394 0.726744 16.602 0.726744C16.4566 0.726744 16.3314 0.783269 16.2264 0.896318C16.1294 1.00129 16.0809 1.12242 16.0809 1.25969C16.0809 1.39696 16.1294 1.51809 16.2264 1.62306C16.3314 1.72804 16.4566 1.78052 16.602 1.78052ZM18.5046 2.66473C18.6419 2.66473 18.7631 2.61224 18.8682 2.50727C18.9732 2.40229 19.0257 2.28117 19.0257 2.1439C19.0257 1.99855 18.9732 1.87742 18.8682 1.78052C18.7631 1.67555 18.6419 1.62306 18.5046 1.62306C18.3592 1.62306 18.234 1.67555 18.1289 1.78052C18.032 1.87742 17.9835 1.99855 17.9835 2.1439C17.9835 2.28117 18.032 2.40229 18.1289 2.50727C18.234 2.61224 18.3592 2.66473 18.5046 2.66473ZM20.2133 3.86386C20.3587 3.86386 20.4839 3.81137 20.5889 3.7064C20.694 3.60142 20.7465 3.4803 20.7465 3.34302C20.7465 3.19767 20.694 3.07251 20.5889 2.96754C20.4839 2.86256 20.3587 2.81008 20.2133 2.81008C20.0679 2.81008 19.9426 2.86256 19.8376 2.96754C19.7407 3.07251 19.6922 3.19767 19.6922 3.34302C19.6922 3.4803 19.7407 3.60142 19.8376 3.7064C19.9426 3.81137 20.0679 3.86386 20.2133 3.86386ZM21.7038 5.34157C21.8412 5.34157 21.9624 5.28908 22.0674 5.18411C22.1724 5.07913 22.2249 4.95801 22.2249 4.82074C22.2249 4.67539 22.1724 4.55023 22.0674 4.44525C21.9624 4.34028 21.8412 4.28779 21.7038 4.28779C21.5584 4.28779 21.4332 4.34028 21.3282 4.44525C21.2312 4.55023 21.1827 4.67539 21.1827 4.82074C21.1827 4.95801 21.2312 5.07913 21.3282 5.18411C21.4332 5.28908 21.5584 5.34157 21.7038 5.34157ZM22.8914 7.04942C23.0288 7.04942 23.1459 6.99693 23.2429 6.89196C23.3479 6.78698 23.4004 6.66586 23.4004 6.52859C23.4004 6.38324 23.3479 6.26211 23.2429 6.16521C23.1459 6.06024 23.0288 6.00775 22.8914 6.00775C22.746 6.00775 22.6208 6.06024 22.5158 6.16521C22.4107 6.26211 22.3582 6.38324 22.3582 6.52859C22.3582 6.66586 22.4107 6.78698 22.5158 6.89196C22.6208 6.99693 22.746 7.04942 22.8914 7.04942ZM23.7639 8.95107C23.9013 8.95107 24.0225 8.89858 24.1275 8.7936C24.2325 8.68863 24.285 8.56751 24.285 8.43023C24.285 8.28488 24.2325 8.15972 24.1275 8.05475C24.0225 7.9417 23.9013 7.88517 23.7639 7.88517C23.6185 7.88517 23.4933 7.9417 23.3883 8.05475C23.2913 8.15972 23.2429 8.28488 23.2429 8.43023C23.2429 8.56751 23.2913 8.68863 23.3883 8.7936C23.4933 8.89858 23.6185 8.95107 23.7639 8.95107ZM24.3093 10.9617C24.4466 10.9617 24.5678 10.9092 24.6728 10.8043C24.7778 10.6993 24.8303 10.5741 24.8303 10.4288C24.8303 10.2915 24.7778 10.1704 24.6728 10.0654C24.5678 9.95236 24.4466 9.89583 24.3093 9.89583C24.1558 9.89583 24.0265 9.95236 23.9215 10.0654C23.8245 10.1704 23.7761 10.2915 23.7761 10.4288C23.7761 10.5741 23.8245 10.6993 23.9215 10.8043C24.0265 10.9092 24.1558 10.9617 24.3093 10.9617ZM24.4789 13.0329C24.6163 13.0329 24.7374 12.9805 24.8425 12.8755C24.9475 12.7705 25 12.6494 25 12.5121C25 12.3668 24.9475 12.2456 24.8425 12.1487C24.7374 12.0438 24.6163 11.9913 24.4789 11.9913C24.3335 11.9913 24.2083 12.0438 24.1032 12.1487C24.0063 12.2456 23.9578 12.3668 23.9578 12.5121C23.9578 12.6494 24.0063 12.7705 24.1032 12.8755C24.2083 12.9805 24.3335 13.0329 24.4789 13.0329ZM24.3093 15.1042C24.4466 15.1042 24.5678 15.0517 24.6728 14.9467C24.7778 14.8417 24.8303 14.7166 24.8303 14.5712C24.8303 14.4339 24.7778 14.3169 24.6728 14.22C24.5678 14.115 24.4466 14.0625 24.3093 14.0625C24.1558 14.0625 24.0265 14.115 23.9215 14.22C23.8245 14.3169 23.7761 14.4339 23.7761 14.5712C23.7761 14.7166 23.8245 14.8417 23.9215 14.9467C24.0265 15.0517 24.1558 15.1042 24.3093 15.1042ZM23.7639 17.1148C23.9013 17.1148 24.0225 17.0623 24.1275 16.9574C24.2325 16.8443 24.285 16.7192 24.285 16.5819C24.285 16.4446 24.2325 16.3235 24.1275 16.2185C24.0225 16.1135 23.9013 16.061 23.7639 16.061C23.6185 16.061 23.4933 16.1135 23.3883 16.2185C23.2913 16.3235 23.2429 16.4446 23.2429 16.5819C23.2429 16.7192 23.2913 16.8443 23.3883 16.9574C23.4933 17.0623 23.6185 17.1148 23.7639 17.1148ZM22.8914 19.0044C23.0288 19.0044 23.1459 18.9519 23.2429 18.8469C23.3479 18.7419 23.4004 18.6168 23.4004 18.4714C23.4004 18.3341 23.3479 18.213 23.2429 18.108C23.1459 18.0031 23.0288 17.9506 22.8914 17.9506C22.746 17.9506 22.6208 18.0031 22.5158 18.108C22.4107 18.213 22.3582 18.3341 22.3582 18.4714C22.3582 18.6168 22.4107 18.7419 22.5158 18.8469C22.6208 18.9519 22.746 19.0044 22.8914 19.0044ZM21.7038 20.7122C21.8412 20.7122 21.9624 20.6597 22.0674 20.5547C22.1724 20.4498 22.2249 20.3286 22.2249 20.1914C22.2249 20.046 22.1724 19.9249 22.0674 19.828C21.9624 19.723 21.8412 19.6705 21.7038 19.6705C21.5584 19.6705 21.4332 19.723 21.3282 19.828C21.2312 19.9249 21.1827 20.046 21.1827 20.1914C21.1827 20.3286 21.2312 20.4498 21.3282 20.5547C21.4332 20.6597 21.5584 20.7122 21.7038 20.7122ZM20.2133 22.202C20.3587 22.202 20.4839 22.1455 20.5889 22.0325C20.694 21.9275 20.7465 21.8023 20.7465 21.657C20.7465 21.5197 20.694 21.3986 20.5889 21.2936C20.4839 21.1967 20.3587 21.1483 20.2133 21.1483C20.0679 21.1483 19.9426 21.1967 19.8376 21.2936C19.7407 21.3986 19.6922 21.5197 19.6922 21.657C19.6922 21.8023 19.7407 21.9275 19.8376 22.0325C19.9426 22.1455 20.0679 22.202 20.2133 22.202ZM18.5046 23.4012C18.6419 23.4012 18.7631 23.3446 18.8682 23.2316C18.9732 23.1266 19.0257 23.0055 19.0257 22.8682C19.0257 22.7229 18.9732 22.5977 18.8682 22.4927C18.7631 22.3958 18.6419 22.3474 18.5046 22.3474C18.3592 22.3474 18.234 22.3958 18.1289 22.4927C18.032 22.5977 17.9835 22.7229 17.9835 22.8682C17.9835 23.0055 18.032 23.1266 18.1289 23.2316C18.234 23.3446 18.3592 23.4012 18.5046 23.4012ZM16.602 24.2733C16.7394 24.2733 16.8606 24.2208 16.9656 24.1158C17.0787 24.0108 17.1352 23.8897 17.1352 23.7524C17.1352 23.6071 17.0787 23.4819 16.9656 23.3769C16.8606 23.28 16.7394 23.2316 16.602 23.2316C16.4566 23.2316 16.3314 23.28 16.2264 23.3769C16.1294 23.4819 16.0809 23.6071 16.0809 23.7524C16.0809 23.8897 16.1294 24.0108 16.2264 24.1158C16.3314 24.2208 16.4566 24.2733 16.602 24.2733ZM14.5904 24.8062C14.7358 24.8062 14.861 24.7537 14.9661 24.6487C15.0711 24.5438 15.1236 24.4186 15.1236 24.2733C15.1236 24.136 15.0711 24.0149 14.9661 23.9099C14.861 23.813 14.7358 23.7645 14.5904 23.7645C14.445 23.7645 14.3198 23.813 14.2147 23.9099C14.1178 24.0149 14.0693 24.136 14.0693 24.2733C14.0693 24.4186 14.1178 24.5438 14.2147 24.6487C14.3198 24.7537 14.445 24.8062 14.5904 24.8062ZM12.5061 25C12.6434 25 12.7646 24.9475 12.8696 24.8425C12.9746 24.7376 13.0271 24.6124 13.0271 24.4671C13.0271 24.3298 12.9746 24.2087 12.8696 24.1037C12.7646 23.9987 12.6434 23.9462 12.5061 23.9462C12.3687 23.9462 12.2435 23.9987 12.1304 24.1037C12.0254 24.2087 11.9729 24.3298 11.9729 24.4671C11.9729 24.6124 12.0254 24.7376 12.1304 24.8425C12.2435 24.9475 12.3687 25 12.5061 25ZM10.4096 24.8062C10.555 24.8062 10.6762 24.7537 10.7731 24.6487C10.8782 24.5438 10.9307 24.4186 10.9307 24.2733C10.9307 24.136 10.8782 24.0149 10.7731 23.9099C10.6762 23.813 10.555 23.7645 10.4096 23.7645C10.2723 23.7645 10.1511 23.813 10.0461 23.9099C9.94102 24.0149 9.88851 24.136 9.88851 24.2733C9.88851 24.4186 9.94102 24.5438 10.0461 24.6487C10.1511 24.7537 10.2723 24.8062 10.4096 24.8062ZM8.39796 24.2733C8.54338 24.2733 8.66457 24.2208 8.76151 24.1158C8.86654 24.0108 8.91905 23.8897 8.91905 23.7524C8.91905 23.6071 8.86654 23.4819 8.76151 23.3769C8.66457 23.28 8.54338 23.2316 8.39796 23.2316C8.26062 23.2316 8.13944 23.28 8.03442 23.3769C7.92939 23.4819 7.87688 23.6071 7.87688 23.7524C7.87688 23.8897 7.92939 24.0108 8.03442 24.1158C8.13944 24.2208 8.26062 24.2733 8.39796 24.2733ZM6.4954 23.4012C6.64889 23.4012 6.77412 23.3446 6.87106 23.2316C6.97609 23.1266 7.0286 23.0055 7.0286 22.8682C7.0286 22.7229 6.97609 22.5977 6.87106 22.4927C6.77412 22.3958 6.64889 22.3474 6.4954 22.3474C6.35805 22.3474 6.23687 22.3958 6.13185 22.4927C6.02682 22.5977 5.97431 22.7229 5.97431 22.8682C5.97431 23.0055 6.02682 23.1266 6.13185 23.2316C6.23687 23.3446 6.35805 23.4012 6.4954 23.4012ZM4.78672 22.202C4.93214 22.202 5.05332 22.1455 5.15027 22.0325C5.25529 21.9275 5.3078 21.8023 5.3078 21.657C5.3078 21.5197 5.25529 21.3986 5.15027 21.2936C5.05332 21.1967 4.93214 21.1483 4.78672 21.1483C4.64938 21.1483 4.5282 21.1967 4.42317 21.2936C4.31815 21.3986 4.26563 21.5197 4.26563 21.657C4.26563 21.8023 4.31815 21.9275 4.42317 22.0325C4.5282 22.1455 4.64938 22.202 4.78672 22.202ZM3.29617 20.7122C3.44159 20.7122 3.56681 20.6597 3.67184 20.5547C3.77686 20.4498 3.82937 20.3286 3.82937 20.1914C3.82937 20.046 3.77686 19.9249 3.67184 19.828C3.56681 19.723 3.44159 19.6705 3.29617 19.6705C3.15883 19.6705 3.03765 19.723 2.93262 19.828C2.83568 19.9249 2.7872 20.046 2.7872 20.1914C2.7872 20.3286 2.83568 20.4498 2.93262 20.5547C3.03765 20.6597 3.15883 20.7122 3.29617 20.7122ZM2.1207 19.0044C2.25804 19.0044 2.37922 18.9519 2.48425 18.8469C2.58927 18.7419 2.64178 18.6168 2.64178 18.4714C2.64178 18.3341 2.58927 18.213 2.48425 18.108C2.37922 18.0031 2.25804 17.9506 2.1207 17.9506C1.97528 17.9506 1.85006 18.0031 1.74503 18.108C1.64809 18.213 1.59961 18.3341 1.59961 18.4714C1.59961 18.6168 1.64809 18.7419 1.74503 18.8469C1.85006 18.9519 1.97528 19.0044 2.1207 19.0044ZM1.23606 17.1148C1.38148 17.1148 1.50267 17.0623 1.59961 16.9574C1.70464 16.8443 1.75715 16.7192 1.75715 16.5819C1.75715 16.4446 1.70464 16.3235 1.59961 16.2185C1.50267 16.1135 1.38148 16.061 1.23606 16.061C1.09872 16.061 0.977541 16.1135 0.872516 16.2185C0.767491 16.3235 0.714978 16.4446 0.714978 16.5819C0.714978 16.7192 0.767491 16.8443 0.872516 16.9574C0.977541 17.0623 1.09872 17.1148 1.23606 17.1148ZM0.70286 15.1042C0.848279 15.1042 0.969462 15.0517 1.06641 14.9467C1.17143 14.8417 1.22395 14.7166 1.22395 14.5712C1.22395 14.4339 1.17143 14.3169 1.06641 14.22C0.969462 14.115 0.848279 14.0625 0.70286 14.0625C0.565519 14.0625 0.444337 14.115 0.339312 14.22C0.234287 14.3169 0.181774 14.4339 0.181774 14.5712C0.181774 14.7166 0.234287 14.8417 0.339312 14.9467C0.444337 15.0517 0.565519 15.1042 0.70286 15.1042ZM0.521086 13.0329C0.666505 13.0329 0.787688 12.9805 0.884634 12.8755C0.989659 12.7705 1.04217 12.6494 1.04217 12.5121C1.04217 12.3668 0.989659 12.2456 0.884634 12.1487C0.787688 12.0438 0.666505 11.9913 0.521086 11.9913C0.383745 11.9913 0.262563 12.0438 0.157538 12.1487C0.0525125 12.2456 0 12.3668 0 12.5121C0 12.6494 0.0525125 12.7705 0.157538 12.8755C0.262563 12.9805 0.383745 13.0329 0.521086 13.0329ZM0.70286 10.9617C0.848279 10.9617 0.969462 10.9092 1.06641 10.8043C1.17143 10.6993 1.22395 10.5741 1.22395 10.4288C1.22395 10.2915 1.17143 10.1704 1.06641 10.0654C0.969462 9.95236 0.848279 9.89583 0.70286 9.89583C0.565519 9.89583 0.444337 9.95236 0.339312 10.0654C0.234287 10.1704 0.181774 10.2915 0.181774 10.4288C0.181774 10.5741 0.234287 10.6993 0.339312 10.8043C0.444337 10.9092 0.565519 10.9617 0.70286 10.9617ZM1.23606 8.95107C1.38148 8.95107 1.50267 8.89858 1.59961 8.7936C1.70464 8.68863 1.75715 8.56751 1.75715 8.43023C1.75715 8.28488 1.70464 8.15972 1.59961 8.05475C1.50267 7.9417 1.38148 7.88517 1.23606 7.88517C1.09872 7.88517 0.977541 7.9417 0.872516 8.05475C0.767491 8.15972 0.714978 8.28488 0.714978 8.43023C0.714978 8.56751 0.767491 8.68863 0.872516 8.7936C0.977541 8.89858 1.09872 8.95107 1.23606 8.95107ZM2.1207 7.04942C2.25804 7.04942 2.37922 6.99693 2.48425 6.89196C2.58927 6.78698 2.64178 6.66586 2.64178 6.52859C2.64178 6.38324 2.58927 6.26211 2.48425 6.16521C2.37922 6.06024 2.25804 6.00775 2.1207 6.00775C1.97528 6.00775 1.85006 6.06024 1.74503 6.16521C1.64809 6.26211 1.59961 6.38324 1.59961 6.52859C1.59961 6.66586 1.64809 6.78698 1.74503 6.89196C1.85006 6.99693 1.97528 7.04942 2.1207 7.04942ZM3.29617 5.34157C3.44159 5.34157 3.56681 5.28908 3.67184 5.18411C3.77686 5.07913 3.82937 4.95801 3.82937 4.82074C3.82937 4.67539 3.77686 4.55023 3.67184 4.44525C3.56681 4.34028 3.44159 4.28779 3.29617 4.28779C3.15883 4.28779 3.03765 4.34028 2.93262 4.44525C2.83568 4.55023 2.7872 4.67539 2.7872 4.82074C2.7872 4.95801 2.83568 5.07913 2.93262 5.18411C3.03765 5.28908 3.15883 5.34157 3.29617 5.34157ZM4.78672 3.86386C4.93214 3.86386 5.05332 3.81137 5.15027 3.7064C5.25529 3.60142 5.3078 3.4803 5.3078 3.34302C5.3078 3.19767 5.25529 3.07251 5.15027 2.96754C5.05332 2.86256 4.93214 2.81008 4.78672 2.81008C4.64938 2.81008 4.5282 2.86256 4.42317 2.96754C4.31815 3.07251 4.26563 3.19767 4.26563 3.34302C4.26563 3.4803 4.31815 3.60142 4.42317 3.7064C4.5282 3.81137 4.64938 3.86386 4.78672 3.86386ZM6.4954 2.66473C6.64889 2.66473 6.77412 2.61224 6.87106 2.50727C6.97609 2.40229 7.0286 2.28117 7.0286 2.1439C7.0286 1.99855 6.97609 1.87742 6.87106 1.78052C6.77412 1.67555 6.64889 1.62306 6.4954 1.62306C6.35805 1.62306 6.23687 1.67555 6.13185 1.78052C6.02682 1.87742 5.97431 1.99855 5.97431 2.1439C5.97431 2.28117 6.02682 2.40229 6.13185 2.50727C6.23687 2.61224 6.35805 2.66473 6.4954 2.66473ZM8.39796 1.78052C8.54338 1.78052 8.66457 1.72804 8.76151 1.62306C8.86654 1.51809 8.91905 1.39696 8.91905 1.25969C8.91905 1.12242 8.86654 1.00129 8.76151 0.896318C8.66457 0.783269 8.54338 0.726744 8.39796 0.726744C8.26062 0.726744 8.13944 0.783269 8.03442 0.896318C7.92939 1.00129 7.87688 1.12242 7.87688 1.25969C7.87688 1.39696 7.92939 1.51809 8.03442 1.62306C8.13944 1.72804 8.26062 1.78052 8.39796 1.78052ZM10.4096 1.23547C10.555 1.23547 10.6762 1.18298 10.7731 1.078C10.8782 0.97303 10.9307 0.855943 10.9307 0.726744C10.9307 0.581395 10.8782 0.456234 10.7731 0.35126C10.6762 0.246286 10.555 0.193798 10.4096 0.193798C10.2723 0.193798 10.1511 0.246286 10.0461 0.35126C9.94102 0.456234 9.88851 0.581395 9.88851 0.726744C9.88851 0.855943 9.94102 0.97303 10.0461 1.078C10.1511 1.18298 10.2723 1.23547 10.4096 1.23547ZM12.5061 16.8605C13.3059 16.8605 14.033 16.6667 14.6873 16.2791C15.3498 15.8834 15.8749 15.3585 16.2627 14.7045C16.6505 14.0423 16.8444 13.3115 16.8444 12.5121C16.8444 11.7127 16.6505 10.9859 16.2627 10.3319C15.8749 9.66973 15.3498 9.14486 14.6873 8.75727C14.033 8.3616 13.3059 8.16376 12.5061 8.16376C11.6982 8.16376 10.967 8.35756 10.3127 8.74516C9.65827 9.13275 9.13314 9.65762 8.73728 10.3198C8.34949 10.9819 8.1556 11.7127 8.1556 12.5121C8.1556 13.3115 8.34949 14.0423 8.73728 14.7045C9.12506 15.3585 9.64615 15.8834 10.3005 16.2791C10.963 16.6667 11.6982 16.8605 12.5061 16.8605ZM12.5061 15.3585C11.9729 15.3585 11.4881 15.2334 11.0519 14.983C10.6237 14.7327 10.2803 14.3936 10.0218 13.9656C9.77137 13.5296 9.64615 13.0451 9.64615 12.5121C9.64615 11.9792 9.77137 11.4987 10.0218 11.0707C10.2803 10.6347 10.6277 10.2915 11.064 10.0412C11.5002 9.78278 11.9809 9.65359 12.5061 9.65359C13.0312 9.65359 13.5078 9.78278 13.936 10.0412C14.3723 10.2915 14.7197 10.6347 14.9782 11.0707C15.2367 11.5068 15.366 11.9872 15.366 12.5121C15.366 13.037 15.2367 13.5174 14.9782 13.9535C14.7197 14.3815 14.3723 14.7246 13.936 14.983C13.5078 15.2334 13.0312 15.3585 12.5061 15.3585Z" fill="white"/>
</svg>
