<svg width="35" height="36" viewBox="0 0 35 36" fill="none" xmlns="http://www.w3.org/2000/svg">
<path d="M8.64696 34.804H26.3531C31.0161 34.804 32.8746 31.9487 33.0942 28.4683L33.9728 14.5129C34.2093 10.8636 31.3033 7.77176 27.6371 7.77176C26.6065 7.77176 25.6604 7.18043 25.1873 6.2681L23.9708 3.8183C23.1937 2.28084 21.1663 1.01371 19.443 1.01371H15.574C13.8338 1.01371 11.8063 2.28084 11.0292 3.8183L9.81272 6.2681C9.33966 7.18043 8.39353 7.77176 7.36293 7.77176C3.69668 7.77176 0.79072 10.8636 1.02725 14.5129L1.9058 28.4683C2.10854 31.9487 3.9839 34.804 8.64696 34.804Z" stroke="black" stroke-width="2" stroke-linecap="round" stroke-linejoin="round"/>
<path d="M14.9657 11.1508H20.0343" stroke="black" stroke-width="2" stroke-linecap="round" stroke-linejoin="round"/>
<path d="M17.5 28.0459C20.5242 28.0459 22.9909 25.5792 22.9909 22.555C22.9909 19.5308 20.5242 17.0641 17.5 17.0641C14.4758 17.0641 12.0091 19.5308 12.0091 22.555C12.0091 25.5792 14.4758 28.0459 17.5 28.0459Z" stroke="black" stroke-width="2" stroke-linecap="round" stroke-linejoin="round"/>
</svg>
