<svg width="35" height="36" viewBox="0 0 35 36" fill="none" xmlns="http://www.w3.org/2000/svg">
<path d="M2.18742 16.6755V24.3C2.18742 31.9245 5.24402 34.9811 12.8686 34.9811H22.0214C29.6459 34.9811 32.7025 31.9245 32.7025 24.3V16.6755" stroke="#292D32" stroke-width="2" stroke-linecap="round" stroke-linejoin="round"/>
<path d="M17.4535 18C20.561 18 22.8535 15.4698 22.5478 12.3623L21.4271 1.01887H13.4969L12.3591 12.3623C12.0535 15.4698 14.3459 18 17.4535 18Z" stroke="#292D32" stroke-width="2" stroke-linecap="round" stroke-linejoin="round"/>
<path d="M28.1686 18C31.5988 18 34.112 15.2151 33.7723 11.8019L33.2969 7.13208C32.6856 2.71698 30.9874 1.01887 26.5384 1.01887H21.3591L22.5478 12.9226C22.8365 15.7245 25.3667 18 28.1686 18Z" stroke="#292D32" stroke-width="2" stroke-linecap="round" stroke-linejoin="round"/>
<path d="M6.65345 18C9.45534 18 11.9855 15.7245 12.2572 12.9226L12.6308 9.16981L13.4459 1.01887H8.26666C3.8176 1.01887 2.11949 2.71698 1.50817 7.13208L1.04967 11.8019C0.710052 15.2151 3.22326 18 6.65345 18Z" stroke="#292D32" stroke-width="2" stroke-linecap="round" stroke-linejoin="round"/>
<path d="M17.4535 26.4906C14.6176 26.4906 13.2082 27.9 13.2082 30.7359V34.9811H21.6988V30.7359C21.6988 27.9 20.2893 26.4906 17.4535 26.4906Z" stroke="#292D32" stroke-width="2" stroke-linecap="round" stroke-linejoin="round"/>
</svg>
