<?xml version="1.0" encoding="UTF-8"?>
<!-- Generator: visioncortex VTracer 0.6.1 -->
<svg version="1.1" xmlns="http://www.w3.org/2000/svg" width="1280" height="213">
<path d="M0 0 C1.14279066 0.91572963 2.26988061 1.85164497 3.375 2.8125 C5.81461327 5.3200922 5.81461327 5.3200922 9 5 C9.515625 4.113125 10.03125 3.22625 10.5625 2.3125 C13.45857886 -2.30949089 18.00613983 -4.17363751 23 -6 C26.79034271 -6.64520012 30.47024707 -6.68053441 34.30859375 -6.62890625 C35.35596207 -6.63131821 36.40333038 -6.63373016 37.48243713 -6.63621521 C39.68339854 -6.63524171 41.88438595 -6.62196802 44.08520508 -6.59692383 C47.42550199 -6.5626232 50.76314594 -6.57629237 54.10351562 -6.59570312 C56.25521943 -6.58880282 58.40691649 -6.57912877 60.55859375 -6.56640625 C61.54226425 -6.57136612 62.52593475 -6.57632599 63.53941345 -6.58143616 C73.21816808 -6.41973711 81.15021562 -3.55228652 89 2 C91.22602615 2.76939681 91.22602615 2.76939681 93 3 C93.309375 2.13375 93.309375 2.13375 93.625 1.25 C95.58852394 -1.96303918 97.69103334 -3.22296235 101 -5 C107.82134168 -6.18226218 114.65206199 -6.25141775 121.5625 -6.3125 C122.66013672 -6.34150391 123.75777344 -6.37050781 124.88867188 -6.40039062 C132.69685172 -6.46157588 136.9175367 -5.47796062 142.92578125 -0.359375 C143.38339844 0.17171875 143.84101562 0.7028125 144.3125 1.25 C144.78300781 1.77078125 145.25351563 2.2915625 145.73828125 2.828125 C148.98744784 8.42111764 149.31017256 14.9012995 149.4140625 21.21875 C149.44311172 22.33376892 149.44311172 22.33376892 149.4727478 23.47131348 C149.5318819 25.81409723 149.57865996 28.15693192 149.625 30.5 C149.66324094 32.10158233 149.70229609 33.70314543 149.7421875 35.3046875 C149.83752752 39.20296637 149.92179794 43.10134122 150 47 C150.78375 47.144375 151.5675 47.28875 152.375 47.4375 C155 48 155 48 157 49 C156.95399658 47.85523193 156.90799316 46.71046387 156.8605957 45.53100586 C156.69334592 41.26181271 156.54751232 36.99210462 156.40795898 32.72192383 C156.3447422 30.87796609 156.27580899 29.03419472 156.20092773 27.19067383 C156.09396323 24.53235458 156.00794545 21.87403136 155.92578125 19.21484375 C155.8697448 17.98942116 155.8697448 17.98942116 155.81257629 16.73924255 C155.61597096 9.16257853 157.68863652 3.62379663 163 -2 C169.2005476 -6.82264814 177.61879069 -6.16310329 185.14453125 -6.203125 C186.42018196 -6.21167511 186.42018196 -6.21167511 187.72160339 -6.22039795 C189.51076028 -6.22978797 191.299934 -6.23635785 193.08911133 -6.24023438 C195.79474683 -6.24993634 198.49962033 -6.28101545 201.20507812 -6.3125 C218.44068465 -6.41945168 231.22020361 -3.22415306 244 9 C244 9.66 244 10.32 244 11 C245.32 11 246.64 11 248 11 C249.30140614 9.50545229 249.30140614 9.50545229 250.375 7.5 C256.06173545 -0.58492944 266.98314906 -5.6381451 276.46875 -7.6015625 C292.82800661 -9.44740782 308.32302586 -9.07060782 322 1 C332.28086353 9.73607056 336.01621057 19.03777491 337.21875 32.4375 C337.26705553 35.52905387 336.9278237 38.39696967 336.375 41.4375 C336.03720129 44.6465877 336.13444139 45.97236053 336.9375 48.9375 C339.69604525 60.00946929 339.33247474 74.43020386 333.59375 84.45703125 C325.43118653 95.75756134 316.26793916 100.31608545 303 103 C302.1853125 103.19078125 301.370625 103.3815625 300.53125 103.578125 C287.70930335 105.71511611 271.71051697 104.65582436 260.11328125 98.45703125 C255.05694642 94.70555702 250.94339698 89.88169723 247 85 C246.195625 86.03125 245.39125 87.0625 244.5625 88.125 C236.38117051 97.47779006 225.62887807 101.14457745 213.44390869 102.2270813 C207.91615071 102.52022674 202.3947875 102.52795642 196.86083984 102.46655273 C193.97566398 102.43725286 191.09229658 102.44606237 188.20703125 102.45898438 C186.34634535 102.45275422 184.48566513 102.44436896 182.625 102.43359375 C181.77591064 102.43652939 180.92682129 102.43946503 180.05200195 102.44248962 C175.87500359 102.37697043 172.53884358 101.98717506 168.6484375 100.41040039 C164.15117209 98.67186303 162.72321064 99.29773828 158.43896484 101.04370117 C153.60085957 102.38906951 148.9759674 102.30526709 143.9765625 102.30078125 C142.91641937 102.30506638 141.85627625 102.3093515 140.76400757 102.31376648 C138.52659823 102.31949646 136.28917027 102.32001988 134.05175781 102.31567383 C130.64355398 102.31251718 127.23622145 102.33597905 123.828125 102.36132812 C121.64843859 102.3636017 119.46874986 102.36430434 117.2890625 102.36328125 C116.27735992 102.372491 115.26565735 102.38170074 114.22329712 102.39118958 C109.62861932 102.36141028 105.83049985 102.15110209 101.54443359 100.41479492 C97.02402311 98.61042939 95.54259821 99.43732019 91.13867188 101.04370117 C85.19463107 102.73993273 78.90642404 102.30501057 72.78125 102.30078125 C71.39554721 102.30467467 70.0098456 102.30901066 68.62414551 102.31376648 C65.72937132 102.32119996 62.83471917 102.32095787 59.93994141 102.31567383 C56.24469134 102.30987504 52.54994183 102.3268335 48.85477448 102.3500185 C45.99616617 102.36480252 43.13767725 102.36562137 40.27903748 102.36250877 C38.25895986 102.36326617 36.23890066 102.37709524 34.21887207 102.39118958 C24.9820573 102.34472302 19.00514198 101.42138015 12 95 C10.1875 92.75 10.1875 92.75 9 91 C5.86147615 92.42467824 3.48134804 94.21157982 0.8125 96.375 C-9.87105 103.91170169 -25.38233354 105.79410689 -38.04589844 103.65429688 C-53.63442559 100.58653181 -64.49357138 93.54177987 -74.0390625 80.7265625 C-75 79 -75 79 -75 76 C-76.32 76.33 -77.64 76.66 -79 77 C-78.34 77.33 -77.68 77.66 -77 78 C-78.96386244 93.73673985 -78.96386244 93.73673985 -85.9375 99.375 C-91.02840648 102.07629731 -95.60238799 102.12779104 -101.3125 102.1328125 C-102.3495105 102.13424759 -102.3495105 102.13424759 -103.4074707 102.13571167 C-104.86311942 102.13638946 -106.31877122 102.13456324 -107.77441406 102.13037109 C-109.9929081 102.12501712 -112.2111997 102.13032966 -114.4296875 102.13671875 C-115.84895878 102.1360579 -117.26822993 102.13477659 -118.6875 102.1328125 C-119.97011719 102.13168457 -121.25273438 102.13055664 -122.57421875 102.12939453 C-126 102 -126 102 -128.64453125 101.42919922 C-131.41700802 100.92401533 -133.2556329 101.40159844 -136 102 C-140.53504891 102.21631367 -145.07013329 102.22806553 -149.60961914 102.24023438 C-151.79547411 102.24992452 -153.98038142 102.28097761 -156.16601562 102.3125 C-171.61179943 102.43289319 -171.61179943 102.43289319 -178.20703125 97.2734375 C-178.73683594 96.64695312 -179.26664063 96.02046875 -179.8125 95.375 C-180.35519531 94.76398438 -180.89789062 94.15296875 -181.45703125 93.5234375 C-186.05255942 86.00771294 -187.06684346 76.96097231 -188.48046875 68.41796875 C-188.69818436 67.12740067 -188.91589996 65.83683258 -189.14021301 64.50715637 C-189.59795027 61.78737984 -190.05022737 59.06676487 -190.4987793 56.34545898 C-191.06878159 52.89104414 -191.65413943 49.43943814 -192.24392223 45.98835278 C-192.81114498 42.65391375 -193.36374181 39.31709239 -193.91796875 35.98046875 C-194.12729538 34.75821091 -194.33662201 33.53595306 -194.55229187 32.2766571 C-196.46425285 20.52247061 -197.80869011 10.65828425 -191.3125 0.3125 C-186.27100978 -4.72899022 -180.78656895 -6.44569331 -173.75848389 -6.56433105 C-172.86631165 -6.55937622 -171.9741394 -6.55442139 -171.05493164 -6.54931641 C-170.09286301 -6.55953827 -169.13079437 -6.56976013 -168.13957214 -6.58029175 C-164.97950924 -6.60794722 -161.82032531 -6.60618124 -158.66015625 -6.6015625 C-156.45112284 -6.60934342 -154.2420924 -6.6180142 -152.0330658 -6.62753296 C-147.41069829 -6.64242756 -142.78863639 -6.64189638 -138.16625977 -6.63134766 C-132.25696232 -6.61975621 -126.3489182 -6.65363707 -120.43982792 -6.700037 C-115.8800074 -6.72956825 -111.3204869 -6.73124765 -106.76058769 -6.72501755 C-104.58258009 -6.72604096 -102.40455504 -6.73645996 -100.2266407 -6.75664139 C-97.175097 -6.7814519 -94.12597089 -6.7677453 -91.07446289 -6.74462891 C-90.18431488 -6.75991638 -89.29416687 -6.77520386 -88.37704468 -6.79095459 C-81.60405561 -6.6781396 -77.08164481 -4.46735286 -72 0 C-69 3.55017922 -69 3.55017922 -69 6 C-64.26838646 3.32638029 -64.26838646 3.32638029 -59.625 0.50390625 C-41.43420999 -10.89376061 -18.21389933 -11.96813691 0 0 Z M-54.78515625 21.07421875 C-62.59874968 32.07468321 -64.14151787 44.93789166 -62.4375 58.1875 C-60.86917253 65.97650891 -57.5984531 72.95790856 -52.4375 79 C-41.83024165 85.17149577 -29.89401616 86.78549885 -17.88671875 84.375 C-10.18867219 81.98998972 -4.50250186 77.64854271 -0.65625 70.50390625 C4.45578846 58.50887314 4.31334666 44.95212487 1.25 32.4375 C1.09313721 31.78338135 0.93627441 31.1292627 0.7746582 30.45532227 C-1.01546733 23.78506554 -4.25669461 18.82887026 -10 15 C-24.63123364 7.38633953 -43.35188913 7.78961297 -54.78515625 21.07421875 Z M266 18 C261.29954575 24.14851596 260.24471191 30.31770814 260.5859375 37.94140625 C261.26142383 42.93108359 262.49502696 47.04686508 266.578125 50.23046875 C268.34639834 51.26992673 270.140477 52.13582334 272 53 C273.31876903 53.73892117 274.63155675 54.48864037 275.9375 55.25 C276.948125 55.8275 277.95875 56.405 279 57 C277.87980469 56.96519531 276.75960938 56.93039063 275.60546875 56.89453125 C274.13282749 56.86639161 272.66017002 56.83909163 271.1875 56.8125 C270.44951172 56.78736328 269.71152344 56.76222656 268.95117188 56.73632812 C264.7815283 56.66662675 264.7815283 56.66662675 260.984375 58.1875 C258.84323012 62.12992549 260.15903328 66.7836463 261 71 C262.42550294 75.4381638 264.18553827 78.28024312 267.6875 81.375 C278.79457912 86.82375579 294.93496744 86.9253226 306.66015625 83.11328125 C311.53073296 80.795895 315.64089556 77.55778999 318.19140625 72.7578125 C320.48609983 64.93146627 320.35003461 54.00068718 316.46484375 46.76953125 C312.81691376 42.36283183 307.88698012 40.43036389 302.4375 39.1875 C301.2309375 39.0946875 301.2309375 39.0946875 300 39 C300 38.34 300 37.68 300 37 C300.66 37.33 301.32 37.66 302 38 C304.55157655 38.0716735 307.07472971 38.09308442 309.625 38.0625 C310.33140625 38.05798828 311.0378125 38.05347656 311.765625 38.04882812 C313.51045275 38.03703875 315.255237 38.01910324 317 38 C318.26925106 31.01474245 317.57192128 25.59876152 315 19 C311.24549816 13.69472567 304.58216632 12.03694288 298.625 10.3125 C287.70768601 9.01281976 274.3398157 10.0068741 266 18 Z M-177 13 C-177.32482282 20.53223455 -176.08713267 27.67443585 -174.84765625 35.08984375 C-174.62540843 36.44357697 -174.403609 37.79738387 -174.18223572 39.15126038 C-173.71965499 41.97171759 -173.25273873 44.79141028 -172.7824707 47.6105957 C-172.1789398 51.22993831 -171.58480532 54.85074744 -170.99364567 58.47212887 C-170.53782316 61.25978698 -170.07793202 64.04676123 -169.61669731 66.83352852 C-169.3959375 68.16945285 -169.17626537 69.50555738 -168.95768929 70.84184074 C-168.65298608 72.69983176 -168.34239232 74.5568539 -168.03149414 76.41381836 C-167.85606583 77.47112656 -167.68063751 78.52843475 -167.49989319 79.61778259 C-167.23845535 81.94381641 -167.23845535 81.94381641 -166 83 C-164.00035018 83.08758003 -161.9976389 83.10696576 -159.99609375 83.09765625 C-158.78115234 83.09443359 -157.56621094 83.09121094 -156.31445312 83.08789062 C-155.03505859 83.07951172 -153.75566406 83.07113281 -152.4375 83.0625 C-150.51260742 83.05573242 -150.51260742 83.05573242 -148.54882812 83.04882812 C-145.36583978 83.03699545 -142.18294238 83.02051068 -139 83 C-136.67977476 73.9310993 -134.48362339 64.86939292 -132.61328125 55.6953125 C-132 53 -132 53 -131 51 C-129.27283932 58.56697749 -127.81368676 66.16570222 -126.41210938 73.79882812 C-126.24388672 74.69923828 -126.07566406 75.59964844 -125.90234375 76.52734375 C-125.67792603 77.74538696 -125.67792603 77.74538696 -125.44897461 78.98803711 C-125.07248372 81.05642893 -125.07248372 81.05642893 -124 83 C-115.09 83 -106.18 83 -97 83 C-94.35377257 70.04402365 -91.8854089 57.08392733 -89.70751953 44.04125977 C-89.24358067 41.27421354 -88.76834573 38.50924199 -88.29296875 35.74414062 C-87.99150112 33.95063607 -87.69069489 32.15702019 -87.390625 30.36328125 C-87.25005676 29.55377518 -87.10948853 28.7442691 -86.96466064 27.91023254 C-86.08400168 22.54162144 -85.87920119 17.44103636 -86 12 C-88.95857409 11.94620774 -91.91617721 11.90642907 -94.875 11.875 C-95.71675781 11.85824219 -96.55851563 11.84148437 -97.42578125 11.82421875 C-98.63427734 11.81455078 -98.63427734 11.81455078 -99.8671875 11.8046875 C-100.98262939 11.78897705 -100.98262939 11.78897705 -102.12060547 11.77294922 C-104.24490235 11.8334403 -104.24490235 11.8334403 -106 14 C-106.53546814 15.84274999 -106.53546814 15.84274999 -106.81640625 17.96484375 C-106.94039795 18.76043701 -107.06438965 19.55603027 -107.19213867 20.37573242 C-107.31435791 21.22111572 -107.43657715 22.06649902 -107.5625 22.9375 C-107.69180908 23.79255127 -107.82111816 24.64760254 -107.9543457 25.52856445 C-108.86204666 31.66759632 -109.59630065 37.80530311 -110 44 C-110.28875 43.360625 -110.5775 42.72125 -110.875 42.0625 C-111.82823451 39.84793921 -111.82823451 39.84793921 -114 39 C-114.24427256 37.01092344 -114.47469463 35.01956761 -114.65234375 33.0234375 C-115.09582922 29.16660877 -115.78341989 25.37672063 -116.5 21.5625 C-116.69613892 20.49696899 -116.69613892 20.49696899 -116.89624023 19.40991211 C-117.59664803 15.59417945 -117.59664803 15.59417945 -119 12 C-122.60374463 11.85499356 -126.20674242 11.76603237 -129.8125 11.6875 C-131.34874023 11.6246582 -131.34874023 11.6246582 -132.91601562 11.56054688 C-134.39038086 11.53637695 -134.39038086 11.53637695 -135.89453125 11.51171875 C-136.80050049 11.48553467 -137.70646973 11.45935059 -138.63989258 11.43237305 C-141.19296985 11.79288675 -141.19296985 11.79288675 -142.73461914 14.14672852 C-144.07820766 17.17634825 -144.77317927 19.87920007 -145.3515625 23.140625 C-145.56296875 24.29304688 -145.774375 25.44546875 -145.9921875 26.6328125 C-146.30542969 28.42332031 -146.30542969 28.42332031 -146.625 30.25 C-147.05141148 32.63079741 -147.48092493 35.01104207 -147.9140625 37.390625 C-148.0992041 38.44282227 -148.2843457 39.49501953 -148.47509766 40.57910156 C-149 43 -149 43 -150 44 C-150.33 41.69 -150.66 39.38 -151 37 C-151.33 37 -151.66 37 -152 37 C-153.32 28.75 -154.64 20.5 -156 12 C-159.09375 11.979375 -162.1875 11.95875 -165.375 11.9375 C-166.34872559 11.928396 -167.32245117 11.91929199 -168.32568359 11.90991211 C-169.09219238 11.90741455 -169.85870117 11.90491699 -170.6484375 11.90234375 C-171.43395996 11.89710693 -172.21948242 11.89187012 -173.02880859 11.88647461 C-175.07772668 11.87426047 -175.07772668 11.87426047 -177 13 Z M26 14 C25.70606161 16.99633831 25.70606161 16.99633831 25.77294922 20.56103516 C25.77265717 21.23432358 25.77236511 21.907612 25.77206421 22.6013031 C25.77345953 24.83068654 25.78902984 27.05973732 25.8046875 29.2890625 C25.80841692 30.83319923 25.81126423 32.37733833 25.81326294 33.92147827 C25.82090501 37.98875443 25.84055832 42.05588811 25.8626709 46.12310791 C25.88311704 50.2721565 25.89226201 54.42122807 25.90234375 58.5703125 C25.92380377 66.71361439 25.95899049 74.85677307 26 83 C33.26 83 40.52 83 48 83 C48.09087891 80.41865234 48.09087891 80.41865234 48.18359375 77.78515625 C48.26797891 75.5442614 48.35262791 73.30337647 48.4375 71.0625 C48.47681641 69.92619141 48.51613281 68.78988281 48.55664062 67.61914062 C48.59853516 66.53955078 48.64042969 65.45996094 48.68359375 64.34765625 C48.72025146 63.34742432 48.75690918 62.34719238 48.79467773 61.31665039 C49 59 49 59 50 58 C55.37898118 57.53226251 55.37898118 57.53226251 57.65185547 59.24414062 C59.29087071 61.37883777 59.47911335 62.67710565 59.6953125 65.34375 C59.77136719 66.17777344 59.84742188 67.01179688 59.92578125 67.87109375 C60.02439453 69.17240234 60.02439453 69.17240234 60.125 70.5 C60.27059083 72.21899347 60.41891523 73.93775818 60.5703125 75.65625 C60.62977051 76.41744141 60.68922852 77.17863281 60.75048828 77.96289062 C60.95590803 80.19863446 60.95590803 80.19863446 62 83 C69.26 83 76.52 83 84 83 C83.89090862 64.76393603 83.89090862 64.76393603 78 48 C78.639375 47.113125 79.27875 46.22625 79.9375 45.3125 C84.39091638 38.16004339 83.24637296 29.72738052 81.5078125 21.73828125 C80.3058894 18.31799392 78.62807272 16.47254257 75.625 14.625 C69.70684634 11.97203456 64.43077857 11.84067904 58.05078125 11.83203125 C57.19695358 11.82870285 56.34312592 11.82537445 55.46342468 11.82194519 C53.6656447 11.81689776 51.86785542 11.81453619 50.07006836 11.81469727 C47.31153191 11.81249923 44.55338825 11.79428927 41.79492188 11.77539062 C40.04687637 11.77245862 38.29882896 11.77047253 36.55078125 11.76953125 C35.7237117 11.76234573 34.89664215 11.75516022 34.04450989 11.74775696 C29.54881986 11.57056287 29.54881986 11.57056287 26 14 Z M107 15 C106.55598498 18.00232378 106.55598498 18.00232378 106.64355469 21.47509766 C106.64151031 22.12741867 106.63946594 22.77973969 106.63735962 23.451828 C106.63435336 25.60619206 106.65281985 27.75978954 106.671875 29.9140625 C106.67493246 31.4095338 106.67680868 32.90500794 106.67755127 34.40048218 C106.682153 37.53272416 106.69657598 40.66470885 106.71875 43.796875 C106.7470812 47.82000715 106.75796644 51.84293701 106.7624321 55.86615944 C106.7665798 58.95270832 106.776391 62.03921597 106.78830719 65.12574387 C106.79401964 66.60977217 106.7987751 68.09380446 106.80257416 69.5778389 C106.80941633 71.64652808 106.82303746 73.71505397 106.83886719 75.78369141 C106.84569519 76.96266998 106.85252319 78.14164856 106.85955811 79.35635376 C106.70050787 81.92337434 106.70050787 81.92337434 108 83 C109.35094982 83.09268999 110.70667091 83.11747326 112.06079102 83.11352539 C113.35201622 83.11341209 113.35201622 83.11341209 114.66932678 83.11329651 C116.07244362 83.10555458 116.07244362 83.10555458 117.50390625 83.09765625 C118.93342873 83.09553383 118.93342873 83.09553383 120.39183044 83.09336853 C123.44875165 83.08775152 126.50560077 83.07519616 129.5625 83.0625 C131.62955624 83.05748719 133.69661362 83.05292391 135.76367188 83.04882812 C140.84247588 83.03777656 145.9212257 83.02050055 151 83 C151.33 77.39 151.66 71.78 152 66 C145.07 66 138.14 66 131 66 C130.97494385 64.39970947 130.9498877 62.79941895 130.92407227 61.15063477 C130.83020174 55.23729858 130.72993212 49.32408548 130.62768555 43.41088867 C130.58425934 40.84711579 130.54259015 38.28331254 130.50268555 35.71948242 C130.44516853 32.04336372 130.38142137 28.36739901 130.31640625 24.69140625 C130.29969376 23.53725723 130.28298126 22.38310822 130.26576233 21.19398499 C130.24581711 20.13296066 130.22587189 19.07193634 130.20532227 17.97875977 C130.18200584 16.56978172 130.18200584 16.56978172 130.15821838 15.13233948 C130.23454841 13.01693335 130.23454841 13.01693335 129 12 C125.88354012 11.72257034 122.75235077 11.76823528 119.625 11.75 C118.31015625 11.7190625 118.31015625 11.7190625 116.96875 11.6875 C116.12570312 11.68234375 115.28265625 11.6771875 114.4140625 11.671875 C113.6401416 11.6625293 112.8662207 11.65318359 112.06884766 11.64355469 C109.34279432 12.11323109 108.64437865 12.77784624 107 15 Z M175.31385803 13.11857605 C173.37192696 15.89939067 173.63315373 18.10693916 173.64355469 21.47509766 C173.64151031 22.12741867 173.63946594 22.77973969 173.63735962 23.451828 C173.63435336 25.60619206 173.65281985 27.75978954 173.671875 29.9140625 C173.67493246 31.4095338 173.67680868 32.90500794 173.67755127 34.40048218 C173.682153 37.53272416 173.69657598 40.66470885 173.71875 43.796875 C173.7470812 47.82000715 173.75796644 51.84293701 173.7624321 55.86615944 C173.7665798 58.95270832 173.776391 62.03921597 173.78830719 65.12574387 C173.79401964 66.60977217 173.7987751 68.09380446 173.80257416 69.5778389 C173.80941633 71.64652808 173.82303746 73.71505397 173.83886719 75.78369141 C173.84569519 76.96266998 173.85252319 78.14164856 173.85955811 79.35635376 C173.70050787 81.92337434 173.70050787 81.92337434 175 83 C177.90119809 83.13868974 180.77673991 83.21326378 183.6796875 83.23828125 C184.56222198 83.246353 185.44475647 83.25442474 186.35403442 83.26274109 C188.2320966 83.27660953 190.11018427 83.28731926 191.98828125 83.29516602 C194.82863394 83.31222158 197.66777416 83.35606146 200.5078125 83.40039062 C215.66029508 83.80644175 215.66029508 83.80644175 228.94018555 77.35253906 C237.68714695 68.36599114 237.37108394 55.4964261 237.21484375 43.78515625 C236.94036765 35.11273443 235.28462968 25.44922713 229 19 C221.08310361 13.66291985 212.32517897 11.68680577 202.88671875 11.69921875 C201.78237236 11.69279106 201.78237236 11.69279106 200.65571594 11.68623352 C199.1154584 11.68053761 197.57517398 11.67995457 196.03491211 11.68432617 C193.67581183 11.6875158 191.31793282 11.66386857 188.95898438 11.63867188 C187.45573074 11.63640136 185.95247375 11.63569423 184.44921875 11.63671875 C183.74609055 11.627509 183.04296234 11.61829926 182.31852722 11.60881042 C178.6154262 11.62513306 178.6154262 11.62513306 175.31385803 13.11857605 Z M-85 14 C-84 16 -84 16 -84 16 Z M-155 15 C-154 17 -154 17 -154 17 Z M-154 22 C-153 24 -153 24 -153 24 Z M83 28 C84 30 84 30 84 30 Z M318 29 C319 31 319 31 319 31 Z M83 37 C84 39 84 39 84 39 Z M3 39 C4 41 4 41 4 41 Z M3 56 C4 58 4 58 4 58 Z M237 58 C238 60 238 60 238 60 Z M320 60 C321 64 321 64 321 64 Z M152 68 C152 72.95 152 77.9 152 83 C152.33 83 152.66 83 153 83 C153 78.05 153 73.1 153 68 C152.67 68 152.34 68 152 68 Z M84 73 C85 76 85 76 85 76 Z M-96 80 C-95 82 -95 82 -95 82 Z " fill="#FCFCFC" transform="translate(910,58)"/>
<path d="M0 0 C1.35805921 0.01151447 2.71613431 0.02129277 4.07421875 0.02929688 C13.84878872 0.14092305 13.84878872 0.14092305 18.11230469 0.85375977 C21.58669029 1.4306748 24.38196446 0.82638594 27.875 0.3125 C32.16659328 0.10933023 36.4541353 0.08191634 40.75 0.0625 C41.88308594 0.041875 43.01617187 0.02125 44.18359375 0 C50.31562774 -0.02842194 55.20595389 0.2790773 60.78173828 2.95800781 C63.03228072 3.56551217 63.03228072 3.56551217 65.33935547 1.91845703 C70.64818658 -0.49291509 75.73521158 -0.11572777 81.5 -0.0859375 C82.72025879 -0.08880768 83.94051758 -0.09167786 85.19775391 -0.09463501 C87.77311671 -0.096673 90.34849509 -0.09116176 92.92382812 -0.07861328 C96.8610299 -0.06255697 100.79720508 -0.07847214 104.734375 -0.09765625 C107.23958559 -0.09567377 109.74479555 -0.09183001 112.25 -0.0859375 C114.0127124 -0.09504654 114.0127124 -0.09504654 115.81103516 -0.1043396 C121.64569261 -0.05424136 125.79005526 0.13228727 130.875 3.3125 C133.28946506 3.09300318 134.87830107 2.31095186 137.07080078 1.28271484 C142.11779011 -0.46347492 147.3915524 -0.05936733 152.68505859 -0.05810547 C154.73750153 -0.0624734 156.7877813 -0.09881786 158.83984375 -0.13671875 C167.45752104 -0.16218972 172.20263356 0.33198498 178.80078125 5.953125 C179.25839844 6.48421875 179.71601562 7.0153125 180.1875 7.5625 C180.65800781 8.08328125 181.12851562 8.6040625 181.61328125 9.140625 C184.86244784 14.73361764 185.18517256 21.2137995 185.2890625 27.53125 C185.31811172 28.64626892 185.31811172 28.64626892 185.3477478 29.78381348 C185.4068819 32.12659723 185.45365996 34.46943192 185.5 36.8125 C185.53824094 38.41408233 185.57729609 40.01564543 185.6171875 41.6171875 C185.71252752 45.51546637 185.79679794 49.41384122 185.875 53.3125 C186.65875 53.456875 187.4425 53.60125 188.25 53.75 C190.875 54.3125 190.875 54.3125 192.875 55.3125 C192.82899658 54.16773193 192.78299316 53.02296387 192.7355957 51.84350586 C192.56834592 47.57431271 192.42251232 43.30460462 192.28295898 39.03442383 C192.2197422 37.19046609 192.15080899 35.34669472 192.07592773 33.50317383 C191.96896323 30.84485458 191.88294545 28.18653136 191.80078125 25.52734375 C191.7447448 24.30192116 191.7447448 24.30192116 191.68757629 23.05174255 C191.49097096 15.47507853 193.56363652 9.93629663 198.875 4.3125 C205.96131031 -1.19907468 216.47119331 0.10087483 225 0.0625 C226.15371094 0.041875 227.30742188 0.02125 228.49609375 0 C234.43478298 -0.0273988 238.71177399 0.03550302 243.875 3.3125 C245.9230428 3.2174261 245.9230428 3.2174261 247.875 2.3125 C252.59993071 0.45117697 256.8466739 0.0183322 261.87109375 0.046875 C262.99874901 0.04400482 262.99874901 0.04400482 264.14918518 0.04107666 C265.73170305 0.0397219 267.3142323 0.0433686 268.89672852 0.05175781 C271.30185258 0.06245265 273.70622727 0.05184644 276.11132812 0.0390625 C277.65625163 0.04038451 279.20117467 0.04294777 280.74609375 0.046875 C281.4567247 0.04282654 282.16735565 0.03877808 282.89952087 0.03460693 C286.38547757 0.06688598 289.1669144 0.40422715 292.50805664 1.45410156 C296.53256895 2.48014647 298.05414084 1.74776832 301.875 0.3125 C304.51545681 0.1055622 307.04855765 -0.01497346 309.6875 -0.0234375 C310.4194458 -0.0300943 311.1513916 -0.0367511 311.90551758 -0.04360962 C313.44512436 -0.05368461 314.98477435 -0.05842824 316.52441406 -0.05810547 C318.86857276 -0.06248798 321.21086 -0.09888338 323.5546875 -0.13671875 C325.05728529 -0.1425864 326.55989193 -0.14655614 328.0625 -0.1484375 C329.10337769 -0.16999405 329.10337769 -0.16999405 330.1652832 -0.19198608 C336.55776078 -0.13246817 340.63882153 2.84834086 345.125 7.125 C349.5036888 11.69855192 350.0880965 17.03169396 350.140625 23.125 C349.06677074 31.96850567 344.33037204 37.97010852 339.31054688 45.10546875 C338.72982422 45.96011719 338.14910156 46.81476563 337.55078125 47.6953125 C337.01364502 48.46246582 336.47650879 49.22961914 335.9230957 50.02001953 C334.57136322 52.97663914 334.84602771 54.25762726 335.875 57.3125 C337.13423116 59.74904133 337.13423116 59.74904133 338.74609375 62.1484375 C339.60750977 63.49808594 339.60750977 63.49808594 340.48632812 64.875 C341.69904939 66.74272045 342.91258487 68.60991248 344.12695312 70.4765625 C349.55842288 78.99174465 351.88800136 85.18039314 349.875 95.3125 C348.02306031 100.47843703 345.33937964 103.1611732 340.875 106.3125 C336.24181562 108.22389614 332.27275349 108.56954853 327.28125 108.578125 C326.57150024 108.58003845 325.86175049 108.5819519 325.13049316 108.58392334 C323.63793582 108.5852773 322.14536638 108.58163628 320.65283203 108.57324219 C318.38156424 108.56253096 316.11108725 108.5731639 313.83984375 108.5859375 C312.38281077 108.58461576 310.92577828 108.58205308 309.46875 108.578125 C308.15583984 108.57586914 306.84292969 108.57361328 305.49023438 108.57128906 C301.93642088 108.31689669 299.2110347 107.49606084 295.875 106.3125 C293.02780571 106.60303003 290.39587874 107.18968524 287.61669922 107.8449707 C282.47908496 108.72106432 277.26440501 108.49842246 272.06494141 108.49780273 C270.01313426 108.49998602 267.96186827 108.51816217 265.91015625 108.53710938 C264.60175781 108.53904297 263.29335938 108.54097656 261.9453125 108.54296875 C260.75695801 108.54707764 259.56860352 108.55118652 258.34423828 108.55541992 C253.86279677 108.2416244 249.90594941 106.9637768 245.65039062 105.59912109 C243.54499664 105.09961328 243.54499664 105.09961328 240.46875 106.7265625 C234.60053667 109.10916578 228.61878993 108.74864702 222.375 108.6875 C221.19035156 108.69910156 220.00570312 108.71070313 218.78515625 108.72265625 C212.00006608 108.69996364 207.10652271 107.89943947 200.875 105.3125 C198.510598 105.68123113 196.53294954 106.45189616 194.31396484 107.35620117 C189.47585957 108.70156951 184.8509674 108.61776709 179.8515625 108.61328125 C178.79141937 108.61756638 177.73127625 108.6218515 176.63900757 108.62626648 C174.40159823 108.63199646 172.16417027 108.63251988 169.92675781 108.62817383 C166.51855398 108.62501718 163.11122145 108.64847905 159.703125 108.67382812 C157.52343859 108.6761017 155.34374986 108.67680434 153.1640625 108.67578125 C152.15235992 108.684991 151.14065735 108.69420074 150.09829712 108.70368958 C145.50361932 108.67391028 141.70549985 108.46360209 137.41943359 106.72729492 C132.85505705 104.90537991 131.34371034 105.80389435 126.86108398 107.35620117 C121.69473372 108.83263152 116.43052019 108.61779748 111.09765625 108.61328125 C109.40968178 108.61970894 109.40968178 108.61970894 107.68760681 108.62626648 C105.31493806 108.63199277 102.94225176 108.63252263 100.56958008 108.62817383 C96.95298135 108.62501353 93.33720091 108.64849665 89.72070312 108.67382812 C87.40885519 108.67610135 85.09700507 108.67680451 82.78515625 108.67578125 C81.71096939 108.684991 80.63678253 108.69420074 79.53004456 108.70368958 C74.7883732 108.67467353 70.80655681 108.51962048 66.38061523 106.72729492 C61.88857447 104.91439874 60.39513809 105.75620021 56.01098633 107.3605957 C52.72925067 108.35674108 50.11883813 108.55644743 46.69921875 108.54296875 C45.54099609 108.54103516 44.38277344 108.53910156 43.18945312 108.53710938 C41.99255859 108.52486328 40.79566406 108.51261719 39.5625 108.5 C38.37720703 108.49935547 37.19191406 108.49871094 35.97070312 108.49804688 C30.85985877 108.47253517 25.84304679 108.38324607 20.76953125 107.73828125 C17.24238464 107.35266542 16.08501983 107.50155149 12.875 108.3125 C8.44081597 108.56572847 4.00317134 108.54377287 -0.4375 108.5625 C-1.64857422 108.583125 -2.85964844 108.60375 -4.10742188 108.625 C-12.46226094 108.66158386 -17.37879177 107.88342722 -24.3125 103.125 C-31.23727941 96.20022059 -31.64013555 89.4653596 -31.65513611 80.1763916 C-31.6446568 78.58633844 -31.63328765 76.99629093 -31.62109375 75.40625 C-31.62124896 73.75532976 -31.62274149 72.10440915 -31.62550354 70.45349121 C-31.62688339 67.00382253 -31.61439944 63.5545717 -31.59155273 60.10498047 C-31.5631692 55.7002432 -31.56591092 51.29619942 -31.57864285 46.89141083 C-31.58562341 43.48543454 -31.57778372 40.07961637 -31.56538582 36.67366028 C-31.56089438 35.05028389 -31.56051418 33.4268904 -31.56445122 31.80351257 C-31.58785333 13.66580133 -31.58785333 13.66580133 -25.9375 6.5625 C-17.5279404 -0.16514768 -10.47017159 -0.22750313 0 0 Z M-12.125 20.3125 C-12.41893839 23.30883831 -12.41893839 23.30883831 -12.35205078 26.87353516 C-12.35234283 27.54682358 -12.35263489 28.220112 -12.35293579 28.9138031 C-12.35154047 31.14318654 -12.33597016 33.37223732 -12.3203125 35.6015625 C-12.31658308 37.14569923 -12.31373577 38.68983833 -12.31173706 40.23397827 C-12.30409499 44.30125443 -12.28444168 48.36838811 -12.2623291 52.43560791 C-12.24188296 56.5846565 -12.23273799 60.73372807 -12.22265625 64.8828125 C-12.20119623 73.02611439 -12.16600951 81.16927307 -12.125 89.3125 C-4.865 89.3125 2.395 89.3125 9.875 89.3125 C10.205 81.3925 10.535 73.4725 10.875 65.3125 C16.155 65.3125 21.435 65.3125 26.875 65.3125 C26.875 73.2325 26.875 81.1525 26.875 89.3125 C34.135 89.3125 41.395 89.3125 48.875 89.3125 C48.875 65.8825 48.875 42.4525 48.875 18.3125 C42.275 18.3125 35.675 18.3125 28.875 18.3125 C26.64368133 20.1201787 26.64368133 20.1201787 26.64794922 22.65087891 C26.66365967 24.08052979 26.66365967 24.08052979 26.6796875 25.5390625 C26.68935547 27.0859375 26.68935547 27.0859375 26.69921875 28.6640625 C26.71597656 29.74429688 26.73273438 30.82453125 26.75 31.9375 C26.75902344 33.02546875 26.76804687 34.1134375 26.77734375 35.234375 C26.80096482 37.92717649 26.83683667 40.61986535 26.875 43.3125 C21.595 43.3125 16.315 43.3125 10.875 43.3125 C10.81441406 41.59160156 10.75382812 39.87070313 10.69140625 38.09765625 C10.60702109 35.8567614 10.52237209 33.61587647 10.4375 31.375 C10.39818359 30.23869141 10.35886719 29.10238281 10.31835938 27.93164062 C10.27646484 26.85205078 10.23457031 25.77246094 10.19140625 24.66015625 C10.15474854 23.65992432 10.11809082 22.65969238 10.08032227 21.62915039 C10.12828159 19.35180812 10.12828159 19.35180812 8.875 18.3125 C5.7367655 18.06283433 2.58450387 18.12728209 -0.5625 18.125 C-1.44744141 18.11275391 -2.33238281 18.10050781 -3.24414062 18.08789062 C-4.09041016 18.08595703 -4.93667969 18.08402344 -5.80859375 18.08203125 C-6.58775146 18.07792236 -7.36690918 18.07381348 -8.16967773 18.06958008 C-10.36059972 18.1384098 -10.36059972 18.1384098 -12.125 20.3125 Z M73.12454224 19.43008423 C71.2722749 22.2204959 71.50827646 24.45918473 71.51855469 27.78759766 C71.51651031 28.43991867 71.51446594 29.09223969 71.51235962 29.764328 C71.50935336 31.91869206 71.52781985 34.07228954 71.546875 36.2265625 C71.54993246 37.7220338 71.55180868 39.21750794 71.55255127 40.71298218 C71.557153 43.84522416 71.57157598 46.97720885 71.59375 50.109375 C71.6220812 54.13250715 71.63296644 58.15543701 71.6374321 62.17865944 C71.6415798 65.26520832 71.651391 68.35171597 71.66330719 71.43824387 C71.66901964 72.92227217 71.6737751 74.40630446 71.67757416 75.8903389 C71.68441633 77.95902808 71.69803746 80.02755397 71.71386719 82.09619141 C71.72069519 83.27516998 71.72752319 84.45414856 71.73455811 85.66885376 C71.57550787 88.23587434 71.57550787 88.23587434 72.875 89.3125 C74.34854348 89.40554018 75.82650591 89.42996265 77.30297852 89.42602539 C78.24387833 89.42594986 79.18477814 89.42587433 80.15419006 89.42579651 C81.17709641 89.42063522 82.20000275 89.41547394 83.25390625 89.41015625 C84.29570541 89.4087413 85.33750458 89.40732635 86.41087341 89.40586853 C89.75311094 89.4002508 93.09528257 89.3876953 96.4375 89.375 C98.69726466 89.36998728 100.95703037 89.36542398 103.21679688 89.36132812 C108.76955682 89.35027561 114.32226722 89.3329991 119.875 89.3125 C119.875 83.3725 119.875 77.4325 119.875 71.3125 C111.955 71.3125 104.035 71.3125 95.875 71.3125 C95.875 65.3125 95.875 65.3125 96.875 64.3125 C98.21515221 64.15667697 99.56258903 64.06205858 100.91015625 63.99609375 C101.71904297 63.95419922 102.52792969 63.91230469 103.36132812 63.86914062 C104.21146484 63.82982422 105.06160156 63.79050781 105.9375 63.75 C106.79150391 63.70681641 107.64550781 63.66363281 108.52539062 63.61914062 C110.64172037 63.51273298 112.75833813 63.41208269 114.875 63.3125 C114.90183987 60.33327407 114.92176037 57.35428705 114.9375 54.375 C114.95006836 53.09979492 114.95006836 53.09979492 114.96289062 51.79882812 C114.96611328 50.98994141 114.96933594 50.18105469 114.97265625 49.34765625 C114.97789307 48.5987915 114.98312988 47.84992676 114.98852539 47.07836914 C115.06841752 45.28582261 115.06841752 45.28582261 113.875 44.3125 C112.53232587 44.22618126 111.18525678 44.20543527 109.83984375 44.21484375 C109.03095703 44.21806641 108.22207031 44.22128906 107.38867188 44.22460938 C106.1134668 44.23717773 106.1134668 44.23717773 104.8125 44.25 C103.95849609 44.25451172 103.10449219 44.25902344 102.22460938 44.26367188 C100.10804337 44.27549627 97.99151315 44.29343231 95.875 44.3125 C95.83245644 42.31295254 95.83419217 40.31208364 95.875 38.3125 C97.55800669 36.62949331 99.69508727 37.08440923 102.00390625 36.99609375 C103.03837891 36.95419922 104.07285156 36.91230469 105.13867188 36.86914062 C106.22728516 36.82982422 107.31589844 36.79050781 108.4375 36.75 C110.0762207 36.68522461 110.0762207 36.68522461 111.74804688 36.61914062 C114.45689564 36.51267932 117.16583992 36.41066484 119.875 36.3125 C119.90184312 33.49993719 119.92176188 30.68762759 119.9375 27.875 C119.95006836 26.67133789 119.95006836 26.67133789 119.96289062 25.44335938 C119.9715143 23.39954779 119.9272815 21.35566098 119.875 19.3125 C118.33689934 17.77439934 116.91261244 18.17035719 114.77001953 18.15136719 C113.89886505 18.14175964 113.02771057 18.1321521 112.13015747 18.12225342 C111.18228363 18.11800354 110.23440979 18.11375366 109.2578125 18.109375 C108.28971649 18.10367493 107.32162048 18.09797485 106.32418823 18.09210205 C104.27131244 18.08263617 102.21842135 18.0761118 100.16552734 18.07226562 C97.02023865 18.06256244 93.87560382 18.03155489 90.73046875 18 C88.73958723 17.99347009 86.74870102 17.98821957 84.7578125 17.984375 C83.81398712 17.9720282 82.87016174 17.9596814 81.8977356 17.94696045 C80.58154739 17.9514621 80.58154739 17.9514621 79.23876953 17.95605469 C78.4667923 17.95240906 77.69481506 17.94876343 76.89944458 17.94500732 C74.82346839 18.18978671 74.82346839 18.18978671 73.12454224 19.43008423 Z M142.875 21.3125 C142.43098498 24.31482378 142.43098498 24.31482378 142.51855469 27.78759766 C142.51651031 28.43991867 142.51446594 29.09223969 142.51235962 29.764328 C142.50935336 31.91869206 142.52781985 34.07228954 142.546875 36.2265625 C142.54993246 37.7220338 142.55180868 39.21750794 142.55255127 40.71298218 C142.557153 43.84522416 142.57157598 46.97720885 142.59375 50.109375 C142.6220812 54.13250715 142.63296644 58.15543701 142.6374321 62.17865944 C142.6415798 65.26520832 142.651391 68.35171597 142.66330719 71.43824387 C142.66901964 72.92227217 142.6737751 74.40630446 142.67757416 75.8903389 C142.68441633 77.95902808 142.69803746 80.02755397 142.71386719 82.09619141 C142.72069519 83.27516998 142.72752319 84.45414856 142.73455811 85.66885376 C142.57550787 88.23587434 142.57550787 88.23587434 143.875 89.3125 C145.22594982 89.40518999 146.58167091 89.42997326 147.93579102 89.42602539 C149.22701622 89.42591209 149.22701622 89.42591209 150.54432678 89.42579651 C151.94744362 89.41805458 151.94744362 89.41805458 153.37890625 89.41015625 C154.80842873 89.40803383 154.80842873 89.40803383 156.26683044 89.40586853 C159.32375165 89.40025152 162.38060077 89.38769616 165.4375 89.375 C167.50455624 89.36998719 169.57161362 89.36542391 171.63867188 89.36132812 C176.71747588 89.35027656 181.7962257 89.33300055 186.875 89.3125 C187.205 83.7025 187.535 78.0925 187.875 72.3125 C180.945 72.3125 174.015 72.3125 166.875 72.3125 C166.84994385 70.71220947 166.8248877 69.11191895 166.79907227 67.46313477 C166.70520174 61.54979858 166.60493212 55.63658548 166.50268555 49.72338867 C166.45925934 47.15961579 166.41759015 44.59581254 166.37768555 42.03198242 C166.32016853 38.35586372 166.25642137 34.67989901 166.19140625 31.00390625 C166.17469376 29.84975723 166.15798126 28.69560822 166.14076233 27.50648499 C166.12081711 26.44546066 166.10087189 25.38443634 166.08032227 24.29125977 C166.05700584 22.88228172 166.05700584 22.88228172 166.03321838 21.44483948 C166.10954841 19.32943335 166.10954841 19.32943335 164.875 18.3125 C161.75854012 18.03507034 158.62735077 18.08073528 155.5 18.0625 C154.18515625 18.0315625 154.18515625 18.0315625 152.84375 18 C152.00070312 17.99484375 151.15765625 17.9896875 150.2890625 17.984375 C149.5151416 17.9750293 148.7412207 17.96568359 147.94384766 17.95605469 C145.21779432 18.42573109 144.51937865 19.09034624 142.875 21.3125 Z M209.875 21.3125 C209.43098498 24.31482378 209.43098498 24.31482378 209.51855469 27.78759766 C209.51651031 28.43991867 209.51446594 29.09223969 209.51235962 29.764328 C209.50935336 31.91869206 209.52781985 34.07228954 209.546875 36.2265625 C209.54993246 37.7220338 209.55180868 39.21750794 209.55255127 40.71298218 C209.557153 43.84522416 209.57157598 46.97720885 209.59375 50.109375 C209.6220812 54.13250715 209.63296644 58.15543701 209.6374321 62.17865944 C209.6415798 65.26520832 209.651391 68.35171597 209.66330719 71.43824387 C209.66901964 72.92227217 209.6737751 74.40630446 209.67757416 75.8903389 C209.68441633 77.95902808 209.69803746 80.02755397 209.71386719 82.09619141 C209.72069519 83.27516998 209.72752319 84.45414856 209.73455811 85.66885376 C209.57550787 88.23587434 209.57550787 88.23587434 210.875 89.3125 C212.50972882 89.39950342 214.14814055 89.41951063 215.78515625 89.41015625 C216.77451172 89.40693359 217.76386719 89.40371094 218.78320312 89.40039062 C220.34458008 89.38782227 220.34458008 89.38782227 221.9375 89.375 C222.98228516 89.37048828 224.02707031 89.36597656 225.10351562 89.36132812 C227.6940666 89.34949913 230.28450559 89.33301689 232.875 89.3125 C232.89812545 80.20290835 232.91591612 71.09332674 232.92681217 61.9837122 C232.93204056 57.75418629 232.9391374 53.5246804 232.95043945 49.29516602 C232.96126991 45.21681457 232.96727717 41.13848243 232.96987724 37.06011772 C232.97173121 35.50072361 232.97535127 33.9413306 232.98073006 32.38194466 C232.98794262 30.20520838 232.98899085 28.02855286 232.98852539 25.85180664 C232.99185631 23.98982384 232.99185631 23.98982384 232.99525452 22.09022522 C233.19247011 19.404683 233.19247011 19.404683 231.875 18.3125 C228.75854012 18.03507034 225.62735077 18.08073528 222.5 18.0625 C221.18515625 18.0315625 221.18515625 18.0315625 219.84375 18 C219.00070312 17.99484375 218.15765625 17.9896875 217.2890625 17.984375 C216.5151416 17.9750293 215.7412207 17.96568359 214.94384766 17.95605469 C212.21779432 18.42573109 211.51937865 19.09034624 209.875 21.3125 Z M256.875 19.3125 C257.16053982 25.74243378 260.69938328 30.16175218 264.1875 35.3125 C264.76951172 36.1890625 265.35152344 37.065625 265.95117188 37.96875 C266.52029297 38.8246875 267.08941406 39.680625 267.67578125 40.5625 C268.22443848 41.38878906 268.7730957 42.21507813 269.33837891 43.06640625 C270.26031517 44.41400931 271.21244443 45.74266509 272.22021484 47.02734375 C274.27307858 49.69032742 274.87171036 51.2097902 274.98046875 54.60546875 C273.50610333 59.54954219 271.03888337 63.3594156 268.1875 67.625 C267.09442788 69.30688616 266.00197381 70.98917416 264.91015625 72.671875 C264.38566895 73.47173828 263.86118164 74.27160156 263.32080078 75.09570312 C261.538955 77.8277463 259.81692104 80.58638797 258.125 83.375 C257.67640625 84.10847656 257.2278125 84.84195313 256.765625 85.59765625 C255.72136429 87.28626101 255.72136429 87.28626101 255.875 89.3125 C264.785 89.3125 273.695 89.3125 282.875 89.3125 C286.175 83.3725 289.475 77.4325 292.875 71.3125 C295.26918616 73.70668616 296.43312377 75.0387374 297.91796875 77.88671875 C298.23531982 78.48830811 298.5526709 79.08989746 298.87963867 79.7097168 C299.46515503 80.84340698 299.46515503 80.84340698 300.0625 82 C301.320625 84.413125 302.57875 86.82625 303.875 89.3125 C313.115 89.3125 322.355 89.3125 331.875 89.3125 C330.97075403 83.88702416 329.83195172 81.13044101 326.875 76.8125 C326.48070801 76.21445557 326.08641602 75.61641113 325.68017578 75.00024414 C323.9941453 72.44519796 322.28288898 69.90835556 320.55371094 67.38232422 C319.68900779 66.11810632 318.82981316 64.85010052 317.9765625 63.578125 C317.17467391 62.38295347 316.35999334 61.19624055 315.53125 60.01953125 C313.90973493 57.5930087 312.88179999 55.84034926 312.84375 52.88671875 C314.31905718 49.2040391 316.34208299 46.0064316 318.5 42.6875 C318.94714355 41.98326904 319.39428711 41.27903809 319.85498047 40.5534668 C321.89835555 37.34208301 323.97712571 34.15985083 326.09375 30.99609375 C327.03734375 29.57490234 327.03734375 29.57490234 328 28.125 C328.55945313 27.30644531 329.11890625 26.48789063 329.6953125 25.64453125 C331.04841121 22.96969705 330.96749531 21.26591817 330.875 18.3125 C326.93763877 18.22553823 323.00052372 18.17212165 319.0625 18.125 C317.94294922 18.09986328 316.82339844 18.07472656 315.66992188 18.04882812 C314.06020508 18.03432617 314.06020508 18.03432617 312.41796875 18.01953125 C311.42821045 18.0038208 310.43845215 17.98811035 309.41870117 17.97192383 C306.86113927 18.10271149 306.86113927 18.10271149 305.15625 19.60742188 C303.87015086 21.3189532 302.82161278 22.98866894 301.83203125 24.88671875 C301.48076172 25.55380859 301.12949219 26.22089844 300.76757812 26.90820312 C300.41115234 27.59849609 300.05472656 28.28878906 299.6875 29 C299.13545898 30.0528418 299.13545898 30.0528418 298.57226562 31.12695312 C297.6682106 32.85287635 296.77093399 34.58234719 295.875 36.3125 C293.01872125 32.91835058 290.7984853 29.55573226 288.75 25.625 C286.7052511 21.68172326 286.7052511 21.68172326 283.875 18.3125 C281.28695824 18.01768755 281.28695824 18.01768755 278.28125 18.08203125 C276.61255859 18.08493164 276.61255859 18.08493164 274.91015625 18.08789062 C273.74355469 18.10013672 272.57695313 18.11238281 271.375 18.125 C270.20839844 18.12564453 269.04179688 18.12628906 267.83984375 18.12695312 C262.18291862 17.87587097 262.18291862 17.87587097 256.875 19.3125 Z M49.875 21.3125 C49.875 43.4225 49.875 65.5325 49.875 88.3125 C50.205 88.3125 50.535 88.3125 50.875 88.3125 C50.875 66.2025 50.875 44.0925 50.875 21.3125 C50.545 21.3125 50.215 21.3125 49.875 21.3125 Z M96.875 37.3125 C96.875 37.6425 96.875 37.9725 96.875 38.3125 C104.465 38.3125 112.055 38.3125 119.875 38.3125 C119.875 37.9825 119.875 37.6525 119.875 37.3125 C112.285 37.3125 104.695 37.3125 96.875 37.3125 Z M115.875 47.3125 C115.875 52.2625 115.875 57.2125 115.875 62.3125 C116.205 62.3125 116.535 62.3125 116.875 62.3125 C116.875 57.3625 116.875 52.4125 116.875 47.3125 C116.545 47.3125 116.215 47.3125 115.875 47.3125 Z M251.875 49.3125 C252.205 51.9525 252.535 54.5925 252.875 57.3125 C253.205 57.3125 253.535 57.3125 253.875 57.3125 C254.04181109 54.39597826 254.04181109 54.39597826 253.875 51.3125 C253.215 50.6525 252.555 49.9925 251.875 49.3125 Z M251.875 57.3125 C252.875 59.3125 252.875 59.3125 252.875 59.3125 Z M120.875 73.3125 C120.875 78.2625 120.875 83.2125 120.875 88.3125 C121.205 88.3125 121.535 88.3125 121.875 88.3125 C121.875 83.3625 121.875 78.4125 121.875 73.3125 C121.545 73.3125 121.215 73.3125 120.875 73.3125 Z M187.875 74.3125 C187.875 79.2625 187.875 84.2125 187.875 89.3125 C188.205 89.3125 188.535 89.3125 188.875 89.3125 C188.875 84.3625 188.875 79.4125 188.875 74.3125 C188.545 74.3125 188.215 74.3125 187.875 74.3125 Z " fill="#FCFCFC" transform="translate(348.125,51.6875)"/>
<path d="M0 0 C2.74836573 2.055948 5.37648406 4.16301098 7.94921875 6.43359375 C10.68758948 8.53333125 10.68758948 8.53333125 14 9 C16.59067228 7.39239967 16.59067228 7.39239967 19.25 5.0625 C38.00870382 -9.82670855 59.71882392 -14.43687866 83.31542969 -11.73486328 C97.08077711 -9.62078567 110.87826447 -2.56546564 121.140625 6.78515625 C123.64924772 8.42419336 125.05471595 8.46815472 128 8 C130.17309795 6.53490267 130.17309795 6.53490267 132.25 4.5 C146.13772324 -7.1384486 165.2528319 -13.1866112 183.2421875 -12.37109375 C191.79080175 -11.52689588 195.75309702 -7.70865953 201.3359375 -1.4140625 C205.85226968 5.13779968 205.59443119 12.33950772 205 20 C203.80932038 25.96422245 199.74906219 30.42892785 195 34 C190.1123379 36.52974699 185.03064408 37.14640168 179.625 37.8125 C170.69231288 39.08710565 162.79595537 42.80656094 157.2109375 50.0703125 C152.58933826 57.43505451 149.86110464 65.27709687 151 74 C153.33996498 81.76626309 156.67550377 89.5655025 163.71191406 94.10424805 C169.03014704 96.86842121 174.04975552 97.9099095 179.9375 98.8125 C189.88074168 100.57742766 195.76954691 103.60005949 202 111.6875 C205.99329631 118.30139702 206.25051681 126.74966841 204.46875 134.23046875 C201.6517829 141.16571926 197.48504448 144.75747776 191 148 C176.92417871 152.61051847 158.75092687 147.24268459 145.78125 141.48828125 C141.76258206 139.33784237 138.17330596 136.74697172 134.5703125 133.96484375 C131.78692743 131.8371193 128.9306502 129.91816609 126 128 C125.20078125 128.65226563 124.4015625 129.30453125 123.578125 129.9765625 C106.91552566 143.34813199 86.66556557 151.18759999 65 150 C61.64863465 149.57771879 58.36580946 148.95109219 55.0625 148.25 C54.18932129 148.06808105 53.31614258 147.88616211 52.41650391 147.69873047 C37.1494327 144.40549847 25.93436707 138.00455452 14 128 C8.92929781 130.94458216 4.21808093 134.34633796 -0.55078125 137.74609375 C-13.77825922 146.67153297 -31.1707595 150.77192991 -47 149 C-54.54273947 147.53469074 -59.68295167 142.86582293 -64.375 137.0625 C-66.24306804 133.54191023 -66.72632829 130.96823978 -67 127 C-67.185625 125.1128125 -67.185625 125.1128125 -67.375 123.1875 C-67.26859902 117.09899919 -64.31098383 111.6755808 -60.390625 107.13671875 C-54.718215 101.89364253 -48.59745605 100.23197523 -41.1340332 98.98413086 C-31.18911866 97.31052723 -24.95635266 94.75438161 -18.32421875 87.0390625 C-14.47489129 81.11177951 -13.47050217 76.1314963 -13.5625 69.1875 C-13.56934814 68.39577393 -13.57619629 67.60404785 -13.58325195 66.78833008 C-13.79361122 59.10115648 -15.39815991 53.25230011 -20.25 47.1875 C-27.70365971 41.2584525 -34.36659288 38.16140762 -43.9375 37.125 C-53.02977555 35.86430633 -57.50580781 33.01963083 -63.51953125 26.09765625 C-67.69826673 20.17686219 -67.8389927 14.01782435 -67 7 C-64.3076219 -1.59397474 -59.32760175 -6.59577681 -51.625 -10.875 C-34.26392492 -16.48292947 -14.58997705 -9.47461451 0 0 Z M-48 7 C-50.31332486 10.46998729 -50.33957563 11.92509248 -50 16 C-48.38806605 19.08989841 -48.38806605 19.08989841 -46.11157227 19.61254883 C-45.35416748 19.72622803 -44.5967627 19.83990723 -43.81640625 19.95703125 C-42.9764209 20.0964917 -42.13643555 20.23595215 -41.27099609 20.37963867 C-40.37719238 20.52248291 -39.48338867 20.66532715 -38.5625 20.8125 C-24.53953247 23.36337297 -13.75837052 29.17975372 -4.92578125 40.70703125 C3.23442279 52.93878364 5.65002245 65.79036494 2.875 80.375 C-0.18350454 92.52709391 -7.28231399 102.70352621 -18 109.4375 C-24.81806579 113.15549286 -31.05517852 114.92288486 -38.75 115.875 C-43.96397061 116.54944952 -43.96397061 116.54944952 -48.3125 119.25 C-50.34723419 122.56586312 -50.73143483 124.1802848 -50 128 C-47.89429193 130.71085314 -46.69717625 131.86318042 -43.29296875 132.53125 C-24.75046484 132.34465877 -9.98672628 126.07492137 3 113 C7.50080373 108.36560015 7.50080373 108.36560015 11 103 C11.99 103 12.98 103 14 103 C15.69140625 105.125 15.69140625 105.125 17.5625 108 C27.83997148 122.5831517 43.63987981 129.18951933 60.734375 132.53515625 C75.9851042 134.54547964 93.11462604 131.07231808 105.75 122.3125 C111.92794623 117.48712188 118.67972146 112.07754831 122.59375 105.19921875 C123.0578125 104.47347656 123.521875 103.74773437 124 103 C124.99 103 125.98 103 127 103 C128.69140625 105.125 128.69140625 105.125 130.5625 108 C140.72093425 122.41424459 156.09480374 129.02266693 173 132 C180.22204152 132.98553254 180.22204152 132.98553254 186.796875 130.71875 C188.49115364 128.29835194 188.4126901 125.92092241 188.49609375 123.03515625 C187.74908681 119.97066323 186.51559116 118.88669337 184 117 C181.37643704 116.33479059 178.97311336 115.86209531 176.3125 115.5 C162.52444382 113.22802529 150.82796141 106.96413808 142.49609375 95.35546875 C134.90161877 83.39863216 132.06248717 72.16209706 135.0625 58.125 C138.10720122 47.16976664 143.76605643 35.90073278 153.80566406 29.92529297 C163.17176654 24.73375725 171.93168196 20.96291593 182.765625 20.44140625 C185.48179682 19.90481986 186.40389272 19.2458048 188 17 C188.39796155 15.05061295 188.39796155 15.05061295 188.25 13 C188.22679687 11.9790625 188.22679687 11.9790625 188.203125 10.9375 C188.04772119 8.78385108 188.04772119 8.78385108 187 6 C180.70457715 2.60247021 173.69289177 4.11293461 167.0078125 5.71875 C149.45395685 11.11993635 136.80375807 21.47949718 126 36 C125.11248047 34.89591797 125.11248047 34.89591797 124.20703125 33.76953125 C123.02173828 32.30580078 123.02173828 32.30580078 121.8125 30.8125 C121.03519531 29.84957031 120.25789062 28.88664062 119.45703125 27.89453125 C112.78992166 20.04027337 105.75891001 14.62639798 96.5 10.25 C95.88334473 9.95625488 95.26668945 9.66250977 94.63134766 9.35986328 C79.34335922 2.3836342 62.95391583 2.9778883 47.26171875 8.2578125 C33.17555658 13.89227737 21.48211126 22.72528647 14 36 C11.12615009 33.2403428 8.70329367 30.37021275 6.3125 27.1875 C-4.12836718 14.12204786 -20.27377196 6.25382623 -36.75 4.125 C-41.29997994 3.80321924 -44.19365742 4.26724122 -48 7 Z M189 12 C190 14 190 14 190 14 Z M-12 65 C-12 67.97 -12 70.94 -12 74 C-11.67 74 -11.34 74 -11 74 C-11 71.03 -11 68.06 -11 65 C-11.33 65 -11.66 65 -12 65 Z M134 73 C135 75 135 75 135 75 Z M-42 100 C-38 101 -38 101 -38 101 Z M177 100 C177 100.33 177 100.66 177 101 C178.65 101 180.3 101 182 101 C182 100.67 182 100.34 182 100 C180.35 100 178.7 100 177 100 Z M189 124 C190 127 190 127 190 127 Z M69 133 C69 133.33 69 133.66 69 134 C70.65 134 72.3 134 74 134 C74 133.67 74 133.34 74 133 C72.35 133 70.7 133 69 133 Z " fill="#FBFBFB" transform="translate(86,37)"/>
<path d="M0 0 C11.81871951 0 22.61284266 5.41627318 31.14331055 13.4465332 C35.786171 18.11728752 40.2376184 22.96637703 43 29 C43.31453125 29.66257812 43.6290625 30.32515625 43.953125 31.0078125 C47.89657481 41.29663156 47.89700344 56.74751394 43.9609375 67.0390625 C39.63602777 75.86469131 32.48141553 81.72829467 23.125 84.9375 C13.25162074 87.40970764 4.08899783 86.60600341 -5 82 C-13.41032125 76.92689422 -19.78620026 69.33385857 -23 60 C-23.125 57.1875 -23.125 57.1875 -23 55 C-23.33 55 -23.66 55 -24 55 C-24.33 52.03 -24.66 49.06 -25 46 C-29.82442184 47.26946514 -29.82442184 47.26946514 -33 51 C-32.71698198 62.5704427 -28.45578171 75.78370666 -20 84 C-16.81049307 86.30502181 -13.49051018 88.19050239 -10 90 C-9.20078125 90.41507812 -8.4015625 90.83015625 -7.578125 91.2578125 C-5.73022976 92.19486576 -3.86678885 93.10117574 -2 94 C-2 94.99 -2 95.98 -2 97 C-13.78260388 96.54419327 -22.969127 93.64447032 -32 86 C-32.59425781 85.56042969 -33.18851563 85.12085938 -33.80078125 84.66796875 C-42.35049353 78.08980874 -48.53961473 66.93683005 -50.75 56.4375 C-51.77520169 42.34097681 -48.31107809 30.00643436 -40.125 18.32421875 C-37.85534665 15.8417854 -35.97144692 14.65943537 -32.9375 13.25 C-32.08027344 12.84265625 -31.22304687 12.4353125 -30.33984375 12.015625 C-22.78827231 8.73781436 -13.03011738 8.75742147 -5.04296875 10.73046875 C3.45109706 14.53152889 11.89420824 22.49249284 15.625 31.0625 C17.03083746 35.30717832 17.57751758 39.51403165 17.82421875 43.96875 C17.8801646 46.06735773 17.8801646 46.06735773 19 48 C21.31 48 23.62 48 26 48 C27.11103897 36.34643571 23.80887143 23.33639541 16.8046875 13.828125 C13.38758721 10.36664679 9.27348407 8.23494412 5 6 C2.19140625 4.5234375 2.19140625 4.5234375 0 3 C0 2.01 0 1.02 0 0 Z M26 31 C27 33 27 33 27 33 Z M-50 45 C-49 48 -49 48 -49 48 Z M-50 50 C-49 53 -49 53 -49 53 Z " fill="#FCFCFC" transform="translate(157,57)"/>
<path d="M0 0 C4.07604465 1.19298868 6.23298948 4.3073373 8.5625 7.75 C9.83245035 11.55985105 9.74664789 15.15609619 9.75 19.125 C9.76224609 19.88039063 9.77449219 20.63578125 9.78710938 21.4140625 C9.80039509 26.48034765 9.15641439 30.18202681 6.4375 34.5625 C3.89754816 36.17113617 1.53064309 36.34349791 -1.4375 36.234375 C-5.1000659 35.34734732 -6.49037511 32.78522409 -8.4375 29.75 C-11.51013978 24.48261751 -11.11486315 18.09977243 -9.9375 12.27734375 C-8.28477772 6.65245372 -5.99607787 1.84494704 0 0 Z M-9.4375 14.75 C-8.4375 18.75 -8.4375 18.75 -8.4375 18.75 Z M-9.4375 19.75 C-9.4375 21.4 -9.4375 23.05 -9.4375 24.75 C-9.1075 24.75 -8.7775 24.75 -8.4375 24.75 C-8.4375 23.1 -8.4375 21.45 -8.4375 19.75 C-8.7675 19.75 -9.0975 19.75 -9.4375 19.75 Z " fill="#FBFBFB" transform="translate(880.4375,87.25)"/>
<path d="M0 0 C3.26624066 0.04104791 5.11359875 0.53515556 7.6875 2.5625 C12.75348189 7.99033774 12.69195902 13.10882931 12.5625 20.26953125 C12.16238408 25.23972122 10.88712332 28.02532287 7.125 31.25 C3.31890438 32.77243825 0.39582139 32.58262651 -3.6875 32.375 C-5.11667743 29.51664514 -4.81730809 27.06242281 -4.8203125 23.87109375 C-4.82160156 22.57365234 -4.82289062 21.27621094 -4.82421875 19.93945312 C-4.82212402 19.26277588 -4.8200293 18.58609863 -4.81787109 17.88891602 C-4.81251202 15.81714585 -4.81782518 13.74559161 -4.82421875 11.67382812 C-4.82292969 10.37767578 -4.82164063 9.08152344 -4.8203125 7.74609375 C-4.81918457 6.54911865 -4.81805664 5.35214355 -4.81689453 4.11889648 C-4.62000881 -0.05619528 -4.33253093 0.44059637 0 0 Z " fill="#FCFCFC" transform="translate(1111.6875,89.625)"/>
<path d="M0 0 C3.625 0.375 3.625 0.375 6.125 1.875 C8.42440371 5.70733951 7.59950718 8.05932536 6.625 12.375 C4.625 14.375 4.625 14.375 2.4609375 14.5703125 C1.24277344 14.53550781 1.24277344 14.53550781 0 14.5 C-0.81726563 14.48195313 -1.63453125 14.46390625 -2.4765625 14.4453125 C-3.10304688 14.42210938 -3.72953125 14.39890625 -4.375 14.375 C-5.61387548 11.89724905 -5.54241669 10.13846293 -5.5625 7.375 C-5.57667969 6.488125 -5.59085938 5.60125 -5.60546875 4.6875 C-5.21196724 0.73914585 -3.78370924 0.42041214 0 0 Z " fill="#FCFCFC" transform="translate(963.375,87.625)"/>
<path d="M0 0 C1.60746056 0.42523816 3.21089836 0.86570126 4.8125 1.3125 C6.15248047 1.67794922 6.15248047 1.67794922 7.51953125 2.05078125 C10.08340575 3.03191748 11.37419554 3.80296695 13 6 C12.6875 8.6875 12.6875 8.6875 12 11 C9.36 11 6.72 11 4 11 C3.34 9.68 2.68 8.36 2 7 C1.34 7 0.68 7 0 7 C0 4.69 0 2.38 0 0 Z " fill="#FAFAFA" transform="translate(1193,115)"/>
<path d="M0 0 C2.99711556 1.15273675 3.88669134 2.14604442 5.4375 4.9375 C5.80100784 6.59784663 6.13832988 8.26436339 6.4375 9.9375 C4.82870578 9.53907441 3.22551827 9.11796843 1.625 8.6875 C0.28501953 8.33945313 0.28501953 8.33945313 -1.08203125 7.984375 C-3.93896099 6.77861568 -4.94619034 5.53648297 -6.5625 2.9375 C-4.26471314 0.80991958 -3.19086483 -0.07782597 0 0 Z " fill="#FAFAFA" transform="translate(1200.5625,85.0625)"/>
<path d="M0 0 C0.33 0 0.66 0 1 0 C1 21.45 1 42.9 1 65 C0.67 65 0.34 65 0 65 C0 43.55 0 22.1 0 0 Z " fill="#FDFDFD" transform="translate(316,74)"/>
<path d="M0 0 C15.18 0 30.36 0 46 0 C46 0.33 46 0.66 46 1 C30.82 1 15.64 1 0 1 C0 0.67 0 0.34 0 0 Z " fill="#FDFDFD" transform="translate(422,51)"/>
<path d="M0 0 C13.2 0 26.4 0 40 0 C40 0.33 40 0.66 40 1 C26.8 1 13.6 1 0 1 C0 0.67 0 0.34 0 0 Z " fill="#FDFDFD" transform="translate(937,51)"/>
<path d="M0 0 C11.55 0 23.1 0 35 0 C35 0.33 35 0.66 35 1 C23.45 1 11.9 1 0 1 C0 0.67 0 0.34 0 0 Z " fill="#FDFDFD" transform="translate(1086,51)"/>
<path d="M0 0 C0.33 0 0.66 0 1 0 C1 10.89 1 21.78 1 33 C0.67 33 0.34 33 0 33 C0 22.11 0 11.22 0 0 Z " fill="#FDFDFD" transform="translate(1065,72)"/>
<path d="M0 0 C0.33 0 0.66 0 1 0 C1 10.89 1 21.78 1 33 C0.67 33 0.34 33 0 33 C0 22.11 0 11.22 0 0 Z " fill="#FDFDFD" transform="translate(539,72)"/>
<path d="M0 0 C8.91 0 17.82 0 27 0 C27 0.33 27 0.66 27 1 C18.09 1 9.18 1 0 1 C0 0.67 0 0.34 0 0 Z " fill="#FDFDFD" transform="translate(606,51)"/>
<path d="M0 0 C8.58 0 17.16 0 26 0 C26 0.33 26 0.66 26 1 C17.42 1 8.84 1 0 1 C0 0.67 0 0.34 0 0 Z " fill="#FDFDFD" transform="translate(654,51)"/>
<path d="M0 0 C7.92 0 15.84 0 24 0 C24 0.33 24 0.66 24 1 C16.08 1 8.16 1 0 1 C0 0.67 0 0.34 0 0 Z " fill="#FDFDFD" transform="translate(768,51)"/>
<path d="M0 0 C7.26 0 14.52 0 22 0 C22 0.33 22 0.66 22 1 C14.74 1 7.48 1 0 1 C0 0.67 0 0.34 0 0 Z " fill="#FDFDFD" transform="translate(376,51)"/>
<path d="M0 0 C6.93 0 13.86 0 21 0 C21 0.33 21 0.66 21 1 C14.07 1 7.14 1 0 1 C0 0.67 0 0.34 0 0 Z " fill="#FDFDFD" transform="translate(1019,51)"/>
<path d="M0 0 C6.93 0 13.86 0 21 0 C21 0.33 21 0.66 21 1 C14.07 1 7.14 1 0 1 C0 0.67 0 0.34 0 0 Z " fill="#FDFDFD" transform="translate(734,51)"/>
<path d="M0 0 C6.93 0 13.86 0 21 0 C21 0.33 21 0.66 21 1 C14.07 1 7.14 1 0 1 C0 0.67 0 0.34 0 0 Z " fill="#FDFDFD" transform="translate(560,51)"/>
<path d="M0 0 C6.93 0 13.86 0 21 0 C21 0.33 21 0.66 21 1 C14.07 1 7.14 1 0 1 C0 0.67 0 0.34 0 0 Z " fill="#FDFDFD" transform="translate(493,51)"/>
<path d="M0 0 C6.93 0 13.86 0 21 0 C21 0.33 21 0.66 21 1 C14.07 1 7.14 1 0 1 C0 0.67 0 0.34 0 0 Z " fill="#FDFDFD" transform="translate(337,51)"/>
<path d="M0 0 C6.6 0 13.2 0 20 0 C20 0.33 20 0.66 20 1 C13.4 1 6.8 1 0 1 C0 0.67 0 0.34 0 0 Z " fill="#FDFDFD" transform="translate(805,51)"/>
<path d="M0 0 C4.29 0 8.58 0 13 0 C13 0.33 13 0.66 13 1 C8.71 1 4.42 1 0 1 C0 0.67 0 0.34 0 0 Z " fill="#FDFDFD" transform="translate(360,115)"/>
<path d="M0 0 C2.97 0 5.94 0 9 0 C9 0.33 9 0.66 9 1 C6.03 1 3.06 1 0 1 C0 0.67 0 0.34 0 0 Z " fill="#FDFDFD" transform="translate(151,24)"/>
<path d="M0 0 C2.64 0 5.28 0 8 0 C8 0.33 8 0.66 8 1 C5.36 1 2.72 1 0 1 C0 0.67 0 0.34 0 0 Z " fill="#FDFDFD" transform="translate(1197,49)"/>
<path d="M0 0 C2.31 0 4.62 0 7 0 C7 0.33 7 0.66 7 1 C4.69 1 2.38 1 0 1 C0 0.67 0 0.34 0 0 Z " fill="#FDFDFD" transform="translate(878,49)"/>
<path d="M0 0 C2.31 0 4.62 0 7 0 C7 0.33 7 0.66 7 1 C4.69 1 2.38 1 0 1 C0 0.67 0 0.34 0 0 Z " fill="#FDFDFD" transform="translate(262,24)"/>
<path d="M0 0 C2.31 0 4.62 0 7 0 C7 0.33 7 0.66 7 1 C4.69 1 2.38 1 0 1 C0 0.67 0 0.34 0 0 Z " fill="#FDFDFD" transform="translate(43,24)"/>
<path d="M0 0 C1.65 0 3.3 0 5 0 C5 0.33 5 0.66 5 1 C3.35 1 1.7 1 0 1 C0 0.67 0 0.34 0 0 Z " fill="#FDFDFD" transform="translate(1109,89)"/>
<path d="" fill="#FDFDFD" transform="translate(0,0)"/>
<path d="M0 0 C3 1 3 1 3 1 Z " fill="#FDFDFD" transform="translate(139,66)"/>
<path d="" fill="#FDFDFD" transform="translate(0,0)"/>
<path d="" fill="#FDFDFD" transform="translate(0,0)"/>
</svg>
