<?xml version="1.0" standalone="no"?>
<!DOCTYPE svg PUBLIC "-//W3C//DTD SVG 20010904//EN"
 "http://www.w3.org/TR/2001/REC-SVG-20010904/DTD/svg10.dtd">
<svg version="1.0" xmlns="http://www.w3.org/2000/svg"
 width="5000.000000pt" height="3125.000000pt" viewBox="0 0 5000.000000 3125.000000"
 preserveAspectRatio="xMidYMid meet">

<g transform="translate(0.000000,3125.000000) scale(0.100000,-0.100000)"
fill="#000000" stroke="none">
<path d="M810 17140 l0 -7560 23020 0 23020 0 0 7560 0 7560 -23020 0 -23020
0 0 -7560z m37497 4530 c729 -50 1355 -211 1961 -506 517 -250 917 -532 1320
-928 413 -405 728 -848 984 -1381 291 -607 447 -1211 499 -1935 23 -325 1
-846 -51 -1176 -108 -690 -346 -1339 -708 -1929 -111 -181 -271 -406 -287
-401 -5 1 -550 684 -1210 1518 -660 833 -1241 1567 -1291 1630 l-92 115 342
464 c189 255 555 752 814 1104 259 352 475 645 479 650 21 27 341 462 347 473
6 9 -199 12 -1012 12 l-1019 0 -889 -1247 c-489 -685 -902 -1266 -919 -1289
-16 -24 -33 -44 -37 -44 -5 0 -8 581 -8 1290 l0 1290 -895 0 -895 0 0 -2810 0
-2810 895 0 895 0 2 1297 3 1296 239 -309 c132 -170 492 -635 801 -1034 309
-399 917 -1184 1351 -1745 435 -561 793 -1025 797 -1031 4 -6 -46 -41 -126
-86 -663 -380 -1360 -595 -2172 -669 -150 -14 -620 -18 -810 -6 -706 42 -1435
240 -2050 557 -712 367 -1311 889 -1771 1540 -602 852 -924 1899 -924 3005 0
1264 418 2432 1199 3350 805 946 1925 1544 3201 1710 313 41 739 55 1037 35z
m-30516 -2190 c952 -73 1744 -527 2238 -1284 28 -43 51 -82 51 -86 0 -4 -89
-66 -197 -138 -313 -205 -927 -608 -939 -615 -7 -4 -27 17 -49 51 -131 198
-293 366 -481 498 -119 85 -327 172 -502 211 -104 23 -139 26 -317 27 -229 1
-331 -13 -504 -71 -224 -74 -408 -189 -577 -359 -300 -301 -454 -690 -454
-1146 1 -274 51 -501 165 -734 307 -631 975 -953 1683 -808 377 77 737 322
979 667 30 42 59 77 64 77 8 0 212 -132 939 -608 96 -63 177 -116 179 -118 6
-5 -147 -223 -228 -324 -41 -52 -132 -151 -201 -220 -228 -228 -456 -393 -745
-538 -731 -367 -1652 -411 -2452 -117 -254 93 -617 302 -818 470 -497 415
-831 967 -969 1605 -57 263 -81 640 -57 910 69 780 396 1439 964 1942 266 236
607 430 972 555 229 78 536 138 795 156 109 8 337 6 461 -3z m12573 -1 c884
-66 1628 -462 2132 -1134 68 -90 154 -221 154 -234 0 -12 -1119 -751 -1137
-751 -6 0 -33 30 -59 68 -278 392 -585 607 -991 694 -93 19 -137 22 -313 22
-175 0 -220 -3 -310 -23 -461 -99 -816 -370 -1030 -787 -120 -234 -179 -481
-180 -756 -1 -632 320 -1174 850 -1434 497 -244 1113 -191 1569 134 126 89
291 253 386 382 43 58 81 106 86 108 5 2 46 -21 91 -51 46 -30 137 -89 203
-132 66 -43 185 -121 265 -173 80 -52 235 -154 345 -225 110 -71 204 -133 209
-138 12 -11 -92 -167 -204 -309 -102 -129 -322 -350 -450 -452 -328 -260 -678
-434 -1087 -539 -856 -219 -1779 -66 -2491 413 -203 137 -454 369 -614 568
-171 215 -344 522 -444 790 -61 165 -126 427 -155 625 -30 210 -33 618 -6 815
91 650 348 1197 769 1635 234 244 491 432 792 580 364 179 712 271 1161 308
95 8 330 6 459 -4z m-8429 -2909 l0 -2815 -727 -3 -728 -2 0 2820 0 2820 728
-2 727 -3 0 -2815z m2975 2797 c196 -23 324 -43 455 -73 747 -166 1219 -540
1413 -1119 80 -237 113 -516 92 -790 -28 -386 -145 -699 -365 -980 -147 -189
-391 -381 -603 -476 -44 -20 -61 -33 -56 -41 4 -7 323 -485 709 -1063 386
-577 705 -1056 709 -1062 6 -10 -167 -13 -851 -13 l-859 0 -749 1175 -750
1174 -3 -1174 -2 -1175 -725 0 -725 0 0 2821 0 2820 1083 -4 c928 -3 1103 -6
1227 -20z m9580 -2152 l0 -2175 975 0 975 0 0 -645 0 -645 -1715 0 -1715 0 0
2820 0 2820 740 0 740 0 0 -2175z m6118 1533 l-3 -643 -1122 -3 -1123 -2 0
-460 0 -460 1073 -2 1072 -3 3 -592 c2 -471 0 -593 -10 -593 -7 0 -491 0
-1075 0 l-1063 0 0 -475 0 -475 1125 0 1125 0 0 -645 0 -645 -1855 0 -1855 0
0 2820 0 2820 1855 0 1855 0 -2 -642z"/>
<path d="M14050 17344 l0 -846 313 5 c244 3 328 8 384 21 297 69 476 193 588
407 54 105 83 206 93 329 42 539 -237 863 -792 919 -60 6 -217 11 -348 11
l-238 0 0 -846z"/>
<path d="M47870 7650 l0 -120 160 0 160 0 0 -490 0 -490 115 0 115 0 0 490 0
490 165 0 165 0 0 120 0 120 -440 0 -440 0 0 -120z"/>
<path d="M48930 7160 l0 -610 115 0 115 0 2 396 3 395 145 -255 c80 -140 147
-255 150 -255 3 0 70 114 150 254 80 140 148 255 153 255 4 0 7 -178 7 -395
l0 -396 112 3 112 3 1 608 0 608 -125 -3 -125 -3 -130 -240 c-71 -132 -135
-248 -141 -258 -10 -18 -21 -1 -129 198 -12 22 -54 100 -94 173 l-72 132 -125
0 -124 0 0 -610z"/>
</g>
</svg>
