<?xml version="1.0" encoding="UTF-8"?>
<!-- Generator: visioncortex VTracer 0.6.1 -->
<svg version="1.1" xmlns="http://www.w3.org/2000/svg" width="1280" height="1280">
<path d="M0 0 C2.24253809 -0.37259549 2.24253809 -0.37259549 5.10309792 -0.36914349 C6.19041604 -0.37511663 7.27773416 -0.38108978 8.39800131 -0.38724393 C10.20439017 -0.37413614 10.20439017 -0.37413614 12.04727173 -0.36076355 C13.31896536 -0.36332682 14.590659 -0.3658901 15.9008888 -0.36853105 C19.44236112 -0.3752647 22.98356319 -0.36320417 26.52500105 -0.34819686 C30.33958926 -0.33528199 34.15416134 -0.33962272 37.96876526 -0.34190369 C44.58167783 -0.34347931 51.19450183 -0.33403998 57.80739212 -0.31719017 C67.36859218 -0.29284381 76.92974927 -0.28499938 86.49097697 -0.2812262 C102.00214697 -0.27465484 117.51326973 -0.25467517 133.02441406 -0.22631836 C148.09504967 -0.19879546 163.16567247 -0.17755323 178.23632812 -0.16479492 C179.1647583 -0.16400675 180.09318848 -0.16321858 181.04975291 -0.16240653 C185.70725772 -0.15849151 190.36476262 -0.15470036 195.02226758 -0.15097082 C233.68154512 -0.11985362 272.3407687 -0.06677678 311 0 C311 5.28 311 10.56 311 16 C310.34 16 309.68 16 309 16 C309.02320313 17.13179687 309.04640625 18.26359375 309.0703125 19.4296875 C309.08906901 20.91145175 309.10726934 22.39322312 309.125 23.875 C309.14175781 24.62136719 309.15851563 25.36773437 309.17578125 26.13671875 C309.1933959 28.09194461 309.10320189 30.04742021 309 32 C308.34 32.66 307.68 33.32 307 34 C306.69940057 36.36509361 306.50484988 38.74441881 306.375 41.125 C306.30023437 42.40632813 306.22546875 43.68765625 306.1484375 45.0078125 C306.09945313 45.99523437 306.05046875 46.98265625 306 48 C305.34 48 304.68 48 304 48 C304.02320313 49.04800781 304.04640625 50.09601563 304.0703125 51.17578125 C304.08907303 52.55468037 304.10727293 53.9335872 304.125 55.3125 C304.14175781 56.00279297 304.15851563 56.69308594 304.17578125 57.40429688 C304.21217794 61.17135396 304.14378864 62.78431704 302 66 C301.73124363 68.19992327 301.55282593 70.41172363 301.4375 72.625 C301.09801634 78.90198366 301.09801634 78.90198366 300 80 C299.76472227 82.34987262 299.58613583 84.70556039 299.4375 87.0625 C299.35371094 88.35285156 299.26992188 89.64320313 299.18359375 90.97265625 C299.12300781 91.97167969 299.06242187 92.97070312 299 94 C297.515 94.495 297.515 94.495 296 95 C296 100.61 296 106.22 296 112 C295.34 112 294.68 112 294 112 C294.01160156 113.14339844 294.02320313 114.28679687 294.03515625 115.46484375 C294.04453288 116.95572754 294.05363321 118.44661309 294.0625 119.9375 C294.07087891 120.69224609 294.07925781 121.44699219 294.08789062 122.22460938 C294.09652441 124.14994313 294.05224333 126.07535581 294 128 C293.67 128.33 293.34 128.66 293 129 C292.84168746 130.74730139 292.72335745 132.49830059 292.625 134.25 C292.28213765 138.57231387 291.76707562 141.51107856 289 145 C289.66 145 290.32 145 291 145 C291 146.32 291 147.64 291 149 C290.34 149 289.68 149 289 149 C289.01160156 149.71027344 289.02320313 150.42054688 289.03515625 151.15234375 C289.04869141 152.53099609 289.04869141 152.53099609 289.0625 153.9375 C289.07410156 154.85402344 289.08570313 155.77054688 289.09765625 156.71484375 C289 159 289 159 288 160 C287.71372691 163.0035954 287.55134245 166.00740107 287.37890625 169.01953125 C287 172 287 172 286 173.9375 C284.52959301 176.97021441 284.60043719 179.84208747 284.4375 183.1875 C284.09869848 189.90130152 284.09869848 189.90130152 283 191 C282.76321284 193.69235776 282.57801975 196.36498156 282.4375 199.0625 C282.39431641 199.82111328 282.35113281 200.57972656 282.30664062 201.36132812 C282.20026367 203.24065438 282.09960066 205.12030244 282 207 C281.01 207.33 280.02 207.66 279 208 C279.01160156 209.14339844 279.02320313 210.28679687 279.03515625 211.46484375 C279.04453288 212.95572754 279.05363321 214.44661309 279.0625 215.9375 C279.07087891 216.69224609 279.07925781 217.44699219 279.08789062 218.22460938 C279.09652441 220.14994313 279.05224333 222.07535581 279 224 C278.67 224.33 278.34 224.66 278 225 C277.76572222 227.01594582 277.58663876 229.038474 277.4375 231.0625 C277.31181641 232.71958984 277.31181641 232.71958984 277.18359375 234.41015625 C277.12300781 235.26480469 277.06242187 236.11945313 277 237 C276.01 237.33 275.02 237.66 274 238 C274 243.61 274 249.22 274 255 C273.34 255 272.68 255 272 255 C272.02320313 256.05960937 272.04640625 257.11921875 272.0703125 258.2109375 C272.08906944 259.5989513 272.10726972 260.9869727 272.125 262.375 C272.14175781 263.07367188 272.15851563 263.77234375 272.17578125 264.4921875 C272.19344267 266.32897486 272.10303261 268.16601963 272 270 C271.34 270.66 270.68 271.32 270 272 C269.57277047 275.08917709 269.57277047 275.08917709 269.4375 278.5625 C269.09722222 284.90277778 269.09722222 284.90277778 268 286 C267.76306704 289.15158451 267.60409924 292.29544912 267.48242188 295.453125 C267.2934002 299.11943226 267.08356042 300.87465937 265 304 C264.70008931 306.58885171 264.49134775 309.09149082 264.375 311.6875 C264.33632813 312.38939453 264.29765625 313.09128906 264.2578125 313.81445312 C264.1637666 315.54254655 264.0808032 317.27123675 264 319 C263.34 319 262.68 319 262 319 C262 323.29 262 327.58 262 332 C334.6 332 407.2 332 482 332 C482 328.37 482 324.74 482 321 C481.34 321 480.68 321 480 321 C479.95101563 319.86820313 479.90203125 318.73640625 479.8515625 317.5703125 C479.77653486 316.08851661 479.70098703 314.606747 479.625 313.125 C479.5940625 312.37863281 479.563125 311.63226562 479.53125 310.86328125 C479.44356169 306.46526812 479.44356169 306.46526812 477 303 C476.85492305 300.25514407 476.81347577 297.61519457 476.875 294.875 C476.88402344 294.12089844 476.89304687 293.36679687 476.90234375 292.58984375 C476.9259313 290.72642746 476.96180281 288.86317407 477 287 C476.34 287 475.68 287 475 287 C474.95101563 286.16855469 474.90203125 285.33710938 474.8515625 284.48046875 C474.73941406 282.85044922 474.73941406 282.85044922 474.625 281.1875 C474.55539062 280.10855469 474.48578125 279.02960938 474.4140625 277.91796875 C474.18804267 274.81373814 474.18804267 274.81373814 472 272 C471.85778935 269.39754502 471.81197068 266.90882316 471.875 264.3125 C471.88402344 263.61060547 471.89304687 262.90871094 471.90234375 262.18554688 C471.92586296 260.45688475 471.96173287 258.72839855 472 257 C471.34 257 470.68 257 470 257 C470 251.39 470 245.78 470 240 C469.01 239.67 468.02 239.34 467 239 C466.93941406 238.07316406 466.87882812 237.14632812 466.81640625 236.19140625 C466.69072266 234.39509766 466.69072266 234.39509766 466.5625 232.5625 C466.48128906 231.36753906 466.40007812 230.17257812 466.31640625 228.94140625 C466.32343886 226.11429756 466.32343886 226.11429756 465 225 C464.71406667 221.4099482 464.55089829 217.81985155 464.37890625 214.22265625 C464.32736325 210.91423026 464.32736325 210.91423026 462 209 C461.85492305 206.25514407 461.81347577 203.61519457 461.875 200.875 C461.88402344 200.12089844 461.89304687 199.36679687 461.90234375 198.58984375 C461.9259313 196.72642746 461.96180281 194.86317407 462 193 C461.34 193 460.68 193 460 193 C459.95101563 191.87980469 459.90203125 190.75960937 459.8515625 189.60546875 C459.77652144 188.13278797 459.70097418 186.66013293 459.625 185.1875 C459.5940625 184.44951172 459.563125 183.71152344 459.53125 182.95117188 C459.32653852 179.18106885 459.13566173 177.20349259 457 174 C456.8046875 170.86328125 456.8046875 170.86328125 456.875 167.3125 C456.89304687 166.13300781 456.91109375 164.95351563 456.9296875 163.73828125 C456.96449219 162.38283203 456.96449219 162.38283203 457 161 C456.34 161 455.68 161 455 161 C455 155.39 455 149.78 455 144 C454.34 144 453.68 144 453 144 C451.06411593 140.12823186 451.52390435 135.35796042 451.28125 131.08984375 C451.34428075 128.13091514 451.34428075 128.13091514 450 127 C449.67553663 123.89957227 449.48665559 120.7979275 449.28125 117.6875 C449.29392201 115.08403248 449.29392201 115.08403248 448 114 C447.76340386 110.57498928 447.60326028 107.15719432 447.48242188 103.7265625 C447.39089509 101.81313467 447.20260148 99.90487161 447 98 C446.34 97.67 445.68 97.34 445 97 C444.7137306 94.30847736 444.53256862 91.69902132 444.4375 89 C444.67969985 84.10931377 444.67969985 84.10931377 443 80 C442.71525984 76.93113383 442.55128201 73.86224703 442.37890625 70.78515625 C442.2677106 67.86415567 442.2677106 67.86415567 440 66 C439.71929297 63.28842799 439.53432234 60.65561004 439.4375 57.9375 C439.67574053 53.08062236 439.67574053 53.08062236 438 49 C437.92741054 46.81360547 437.91626217 44.62499611 437.9375 42.4375 C437.94652344 41.23996094 437.95554687 40.04242188 437.96484375 38.80859375 C437.98224609 37.41833984 437.98224609 37.41833984 438 36 C437.34 36 436.68 36 436 36 C434.23484563 32.46969127 434.58929612 28.2283832 434.39453125 24.32226562 C434.49806566 20.86745986 434.49806566 20.86745986 433 18 C432.91368126 16.65732587 432.89293527 15.31025678 432.90234375 13.96484375 C432.90556641 13.15595703 432.90878906 12.34707031 432.91210938 11.51367188 C432.92048828 10.66353516 432.92886719 9.81339844 432.9375 8.9375 C432.94201172 8.08349609 432.94652344 7.22949219 432.95117188 6.34960938 C432.96299627 4.23304337 432.98093231 2.11651315 433 0 C472.5684598 -0.11435776 512.13689813 -0.20250427 551.70549007 -0.25532665 C556.3732404 -0.26158044 561.0409904 -0.26805203 565.70874023 -0.2746582 C567.10268163 -0.27662553 567.10268163 -0.27662553 568.52478345 -0.2786326 C583.58658065 -0.30040976 598.64828277 -0.33984395 613.7100235 -0.38576398 C629.15617156 -0.43246444 644.6022697 -0.4602818 660.04848546 -0.47044247 C669.58541834 -0.47731497 679.12208251 -0.49904769 688.65893271 -0.53958233 C695.19208554 -0.56594165 701.72509875 -0.57401653 708.25830094 -0.56750689 C712.03192865 -0.56429329 715.8050857 -0.5693382 719.57863045 -0.59602737 C723.66355636 -0.62470902 727.74747074 -0.61498652 731.83247375 -0.60127258 C733.03382015 -0.61583679 734.23516655 -0.630401 735.47291738 -0.64540654 C736.56222655 -0.6354513 737.65153572 -0.62549606 738.77385426 -0.61523914 C739.71745928 -0.61713775 740.6610643 -0.61903635 741.63326341 -0.62099248 C744 0 744 0 745.82663411 2.53845245 C746.21384485 3.35076314 746.6010556 4.16307383 747 5 C746.34 5.66 745.68 6.32 745 7 C743.5407239 11.29198853 742.82756997 15.37156141 742.3515625 19.8671875 C741.71654063 23.71965351 740.34501901 27.34560873 739 31 C738.34 31 737.68 31 737 31 C737 33.31 737 35.62 737 38 C736.34 38 735.68 38 735 38 C735 40.97 735 43.94 735 47 C733.515 47.495 733.515 47.495 732 48 C732.0309375 49.7015625 732.0309375 49.7015625 732.0625 51.4375 C732 55 732 55 731 56 C730.7746669 58.0279979 730.55232815 60.05674874 730.37890625 62.08984375 C730 64 730 64 728 66 C727.23987641 68.68768228 726.55884017 71.34325081 725.9375 74.0625 C724.11993243 81.88006757 724.11993243 81.88006757 723 83 C722.63239269 85.32817964 722.29758419 87.6618385 722 90 C721.34 90 720.68 90 720 90 C720 92.97 720 95.94 720 99 C718.515 99.495 718.515 99.495 717 100 C717 102.31 717 104.62 717 107 C716.34 107 715.68 107 715 107 C715.061875 108.918125 715.061875 108.918125 715.125 110.875 C715.1953125 113.0546875 715.1953125 113.0546875 715 115 C714.34 115.66 713.68 116.32 713 117 C712.855625 118.03125 712.71125 119.0625 712.5625 120.125 C712.11808976 123.18649277 711.63319074 125.16200384 710.5 127.9375 C709.34900021 130.78997774 708.7419677 133.31371564 708.4375 136.375 C708 140 708 140 706 142 C705.39906455 144.5072522 704.88512347 146.96583539 704.4375 149.5 C703.11121324 156.77757353 703.11121324 156.77757353 702 159 C701.34 159 700.68 159 700 159 C700 161.31 700 163.62 700 166 C699.34 166 698.68 166 698 166 C698 168.97 698 171.94 698 175 C697.01 175.33 696.02 175.66 695 176 C695.0309375 177.7015625 695.0309375 177.7015625 695.0625 179.4375 C695 183 695 183 694 184 C693.7746669 186.0279979 693.55232815 188.05674874 693.37890625 190.08984375 C693 192 693 192 691 194 C689.16838 199.27937529 688.47846887 204.44724285 688 210 C687.01 210.33 686.02 210.66 685 211 C685 213.31 685 215.62 685 218 C684.34 218 683.68 218 683 218 C683 220.97 683 223.94 683 227 C682.01 227.33 681.02 227.66 680 228 C680 230.31 680 232.62 680 235 C679.34 235 678.68 235 678 235 C678.0309375 236.9490625 678.0309375 236.9490625 678.0625 238.9375 C678.08399454 240.29165633 678.07148199 241.64756083 678 243 C677.67 243.33 677.34 243.66 677 244 C676.855625 245.134375 676.71125 246.26875 676.5625 247.4375 C676 251 676 251 674 253 C673.53993654 255.20250992 673.53993654 255.20250992 673.375 257.625 C673.30023437 258.44226563 673.22546875 259.25953125 673.1484375 260.1015625 C673.09945312 260.72804688 673.05046875 261.35453125 673 262 C672.34 262 671.68 262 671 262 C671.04125 262.94875 671.0825 263.8975 671.125 264.875 C671 268 671 268 669 270 C668.37407549 272.71616785 667.83932084 275.38171667 667.375 278.125 C667.17390625 279.25615234 667.17390625 279.25615234 666.96875 280.41015625 C666.63876771 282.27219918 666.31845927 284.13595175 666 286 C665.01 286.33 664.02 286.66 663 287 C663 289.31 663 291.62 663 294 C662.34 294 661.68 294 661 294 C661 296.97 661 299.94 661 303 C660.01 303.33 659.02 303.66 658 304 C658.0309375 305.9490625 658.0309375 305.9490625 658.0625 307.9375 C658.08399454 309.29165633 658.07148199 310.64756083 658 312 C657.67 312.33 657.34 312.66 657 313 C656.855625 314.134375 656.71125 315.26875 656.5625 316.4375 C656 320 656 320 654 322 C652.16838 327.27937529 651.47846887 332.44724285 651 338 C650.01 338.33 649.02 338.66 648 339 C648 341.31 648 343.62 648 346 C647.34 346 646.68 346 646 346 C646.03480469 346.556875 646.06960938 347.11375 646.10546875 347.6875 C646.313323 353.54701038 645.34325807 357.6300336 643 363 C642.34 363 641.68 363 641 363 C641.0309375 364.7015625 641.0309375 364.7015625 641.0625 366.4375 C641 370 641 370 640 371 C639.7746669 373.0279979 639.55232815 375.05674874 639.37890625 377.08984375 C639 379 639 379 637 381 C636.53993654 383.20250992 636.53993654 383.20250992 636.375 385.625 C636.30023437 386.44226563 636.22546875 387.25953125 636.1484375 388.1015625 C636.09945312 388.72804688 636.05046875 389.35453125 636 390 C639.14950061 389.24570784 641.99942127 388.22750948 645 387 C648.86731338 385.48244665 652.67326709 384.08860553 656.6875 383 C659.9922226 382.17066892 659.9922226 382.17066892 662.5 380.375 C665.77466111 378.57393639 668.32374078 378.78374946 672 379 C672 378.34 672 377.68 672 377 C672.804375 376.690625 673.60875 376.38125 674.4375 376.0625 C676.89080405 375.23664655 676.89080405 375.23664655 678 374 C679.99958364 373.95919217 682.00045254 373.95745644 684 374 C684 373.34 684 372.68 684 372 C686.31 372 688.62 372 691 372 C691.33 371.01 691.66 370.02 692 369 C694.83864804 367.58067598 697.69293675 366.80366792 700.75 365.9375 C703.8278351 365.3333058 703.8278351 365.3333058 705 364 C706.99958364 363.95919217 709.00045254 363.95745644 711 364 C711 363.34 711 362.68 711 362 C712.65 362 714.3 362 716 362 C716 361.34 716 360.68 716 360 C721.36000789 357.74315457 725.1977825 356.63736141 731 357 C731.33 356.01 731.66 355.02 732 354 C733.32 354 734.64 354 736 354 C736 353.34 736 352.68 736 352 C738.31 352 740.62 352 743 352 C743 351.34 743 350.68 743 350 C754.74113367 346.02845068 754.74113367 346.02845068 759.1875 344.875 C760.5796875 344.441875 760.5796875 344.441875 762 344 C762.33 343.34 762.66 342.68 763 342 C765.64 342 768.28 342 771 342 C772.26026798 344.52053595 771.91874445 345.8542098 771.5625 348.625 C771.40974609 349.85089844 771.40974609 349.85089844 771.25390625 351.1015625 C771.17011719 351.72804688 771.08632812 352.35453125 771 353 C770.34 353 769.68 353 769 353 C769 354.65 769 356.3 769 358 C768.34 358 767.68 358 767 358 C766.896875 358.66 766.79375 359.32 766.6875 360 C765.99627885 363.01623775 765.0018239 365.81235773 763.88671875 368.6953125 C762.89030029 371.28512258 761.94335641 373.8904087 761 376.5 C758.75025075 382.69969067 756.48266293 388.88882972 754 395 C753.34 395 752.68 395 752 395 C752 397.31 752 399.62 752 402 C751.01 402.33 750.02 402.66 749 403 C748.87625 403.680625 748.7525 404.36125 748.625 405.0625 C747.90899123 408.4277412 746.97054875 411.70013425 746 415 C745.34 415 744.68 415 744 415 C744 416.65 744 418.3 744 420 C743.34 420 742.68 420 742 420 C742 422.31 742 424.62 742 427 C741.34 427 740.68 427 740 427 C739.67 428.65 739.34 430.3 739 432 C738.34 432 737.68 432 737 432 C737 434.31 737 436.62 737 439 C736.34 439 735.68 439 735 439 C734.8453125 440.2684375 734.8453125 440.2684375 734.6875 441.5625 C733.9296948 445.351526 732.5498336 448.4663794 731 452 C730.25704087 454.31948215 729.62488933 456.64464791 729 459 C728.34 459 727.68 459 727 459 C727 460.65 727 462.3 727 464 C726.34 464 725.68 464 725 464 C725.04125 464.94875 725.0825 465.8975 725.125 466.875 C725 470 725 470 723 472 C722.3574765 474.06874034 722.3574765 474.06874034 722 476 C721.34 476 720.68 476 720 476 C720.04125 476.94875 720.0825 477.8975 720.125 478.875 C720 482 720 482 718 484 C716.7244073 486.79035904 715.8438408 489.54655719 715 492.5 C714.15978954 495.44073659 713.19256533 498.18895315 712 501 C711.34 501 710.68 501 710 501 C710 503.31 710 505.62 710 508 C709.34 508 708.68 508 708 508 C707.67 509.65 707.34 511.3 707 513 C706.34 513 705.68 513 705 513 C705.12375 514.485 705.12375 514.485 705.25 516 C705.27437772 520.01419749 703.86212186 522.67268327 701.95703125 526.1328125 C700.80820131 528.37420316 700.31151673 530.50786612 700 533 C699.34 533 698.68 533 698 533 C697.814375 534.0209375 697.814375 534.0209375 697.625 535.0625 C696.90899123 538.4277412 695.97054875 541.70013425 695 545 C694.34 545 693.68 545 693 545 C692.896875 546.03125 692.79375 547.0625 692.6875 548.125 C691.99839535 552.00904439 690.80682712 554.53089193 689 558 C688.23091844 560.31662373 687.614793 562.63541153 687 565 C686.34 565 685.68 565 685 565 C685 566.65 685 568.3 685 570 C684.34 570 683.68 570 683 570 C683 572.31 683 574.62 683 577 C682.34 577.33 681.68 577.66 681 578 C680.34786708 580.02463255 680.34786708 580.02463255 680 582 C679.34 582 678.68 582 678 582 C678.12375 583.546875 678.12375 583.546875 678.25 585.125 C677.95571232 589.68645904 676.60199847 591.32659039 674 595 C673.26924352 597.3140622 672.59861742 599.64828869 672 602 C671.35800351 603.67632417 670.70105843 605.34750513 670 607 C669.34 607 668.68 607 668 607 C668 609.31 668 611.62 668 614 C667.34 614 666.68 614 666 614 C665.896875 614.845625 665.79375 615.69125 665.6875 616.5625 C664.9296948 620.351526 663.5498336 623.4663794 662 627 C661.25704087 629.31948215 660.62488933 631.64464791 660 634 C659.34 634 658.68 634 658 634 C658 635.65 658 637.3 658 639 C657.34 639 656.68 639 656 639 C656.061875 640.423125 656.061875 640.423125 656.125 641.875 C656 645 656 645 654 647 C653.3574765 649.06874034 653.3574765 649.06874034 653 651 C652.34 651 651.68 651 651 651 C651 653.31 651 655.62 651 658 C650.01 658.33 649.02 658.66 648 659 C647.814375 660.0209375 647.814375 660.0209375 647.625 661.0625 C646.52831905 666.21690046 645.05849054 671.14784372 643 676 C642.34 676 641.68 676 641 676 C641 678.31 641 680.62 641 683 C640.34 683 639.68 683 639 683 C638.67 684.65 638.34 686.3 638 688 C637.34 688 636.68 688 636 688 C636.12375 689.546875 636.12375 689.546875 636.25 691.125 C636 695 636 695 634.1875 697.6875 C631.48188568 701.78457312 630.67123883 705.63868146 629.61328125 710.390625 C629 713 629 713 628 715 C627.34 715 626.68 715 626 715 C626 716.65 626 718.3 626 720 C625.34 720 624.68 720 624 720 C623.67 721.65 623.34 723.3 623 725 C622.34 725 621.68 725 621 725 C621 727.31 621 729.62 621 732 C620.34 732 619.68 732 619 732 C619 734.31 619 736.62 619 739 C618.01 739.33 617.02 739.66 616 740 C615.814375 741.0209375 615.814375 741.0209375 615.625 742.0625 C614.52831905 747.21690046 613.05849054 752.14784372 611 757 C610.34 757 609.68 757 609 757 C609 759.31 609 761.62 609 764 C608.34 764 607.68 764 607 764 C606.8453125 764.99 606.8453125 764.99 606.6875 766 C605.41988238 771.53142234 603.13211809 776.75170932 601 782 C600.34 782 599.68 782 599 782 C599 784.31 599 786.62 599 789 C598.34 789 597.68 789 597 789 C596.87625 789.86625 596.7525 790.7325 596.625 791.625 C596.01941879 794.89513853 595.11693965 797.87256899 594 801 C593.34 801 592.68 801 592 801 C592.061875 802.423125 592.061875 802.423125 592.125 803.875 C592 807 592 807 590 809 C589.44306887 810.64851615 588.94956263 812.3190267 588.5 814 C587.22222222 818.77777778 587.22222222 818.77777778 585 821 C584.35232207 823.57061311 584.35232207 823.57061311 584 826 C583.34 826 582.68 826 582 826 C582 828.31 582 830.62 582 833 C581.34 833 580.68 833 580 833 C579.67 834.65 579.34 836.3 579 838 C578.34 838 577.68 838 577 838 C577.12375 839.546875 577.12375 839.546875 577.25 841.125 C576.95571232 845.68645904 575.60199847 847.32659039 573 851 C572.14570447 853.31880217 571.5782801 855.59049958 571 858 C568.66705225 858.04241723 566.33297433 858.04092937 564 858 C563 857 563 857 562.90234375 854.93359375 C562.91974609 853.69802734 562.91974609 853.69802734 562.9375 852.4375 C562.94652344 851.61121094 562.95554687 850.78492188 562.96484375 849.93359375 C562.98224609 848.97646484 562.98224609 848.97646484 563 848 C562.34 848 561.68 848 561 848 C561 842.39 561 836.78 561 831 C560.01 830.67 559.02 830.34 558 830 C558 825.38 558 820.76 558 816 C557.34 816 556.68 816 556 816 C555.95101562 814.86820313 555.90203125 813.73640625 555.8515625 812.5703125 C555.77653486 811.08851661 555.70098703 809.606747 555.625 808.125 C555.5940625 807.37863281 555.563125 806.63226562 555.53125 805.86328125 C555.44356169 801.46526812 555.44356169 801.46526812 553 798 C552.71929297 795.28842799 552.53432234 792.65561004 552.4375 789.9375 C552.67574053 785.08062236 552.67574053 785.08062236 551 781 C550.76306704 777.84841549 550.60409924 774.70455088 550.48242188 771.546875 C550.2934002 767.88056774 550.08356042 766.12534063 548 763 C547.62109375 760.3359375 547.62109375 760.3359375 547.4375 757.375 C547.49724871 753.8749469 547.49724871 753.8749469 546 751 C545.92680379 748.30345146 545.90757463 745.63308542 545.9375 742.9375 C545.94426758 741.79958008 545.94426758 741.79958008 545.95117188 740.63867188 C545.9629932 738.75908129 545.98092922 736.87953101 546 735 C545.34 735 544.68 735 544 735 C544 729.39 544 723.78 544 718 C543.01 717.67 542.02 717.34 541 717 C540.93941406 716.14535156 540.87882813 715.29070313 540.81640625 714.41015625 C540.73261719 713.30542969 540.64882813 712.20070313 540.5625 711.0625 C540.48128906 709.96035156 540.40007813 708.85820313 540.31640625 707.72265625 C540.29581916 705.08890097 540.29581916 705.08890097 539 704 C538.76277062 700.6336022 538.60391333 697.27447239 538.48242188 693.90234375 C538.30045482 690.13253568 538.13757139 688.20635708 536 685 C535.72525224 682.43379929 535.53661287 679.94709995 535.4375 677.375 C535.63872685 672.82021265 535.63872685 672.82021265 534 669 C533.92741054 666.81360547 533.91626217 664.62499611 533.9375 662.4375 C533.94652344 661.23996094 533.95554687 660.04242187 533.96484375 658.80859375 C533.97644531 657.88175781 533.98804688 656.95492187 534 656 C533.01 655.67 532.02 655.34 531 655 C530.93941406 653.85660156 530.87882813 652.71320312 530.81640625 651.53515625 C530.73201572 650.04425695 530.64736698 648.55337225 530.5625 647.0625 C530.52318359 646.30775391 530.48386719 645.55300781 530.44335938 644.77539062 C530.55961976 641.08055813 530.55961976 641.08055813 529 638 C528.92680379 635.30345146 528.90757463 632.63308542 528.9375 629.9375 C528.94426758 628.79958008 528.94426758 628.79958008 528.95117188 627.63867188 C528.9629932 625.75908129 528.98092922 623.87953101 529 622 C528.34 622 527.68 622 527 622 C525.35314539 618.70629079 525.54605834 615.06997968 525.28125 611.43359375 C525.26165078 609.05456695 525.26165078 609.05456695 524 608 C523.76250896 604.41878586 523.60375158 600.84443701 523.48242188 597.2578125 C523.30676167 593.38665937 523.19202312 591.28803468 521 588 C520.71673857 586.04864348 520.43467363 584.09558272 520.24609375 582.1328125 C520.03592164 579.96304715 520.03592164 579.96304715 519.4765625 577.73046875 C518.86174704 574.20787856 518.89319328 570.74907876 518.9375 567.1875 C518.94201172 566.49462891 518.94652344 565.80175781 518.95117188 565.08789062 C518.96286844 563.39188932 518.98080076 561.69593297 519 560 C518.34 560 517.68 560 517 560 C515.23484563 556.46969127 515.58929612 552.2283832 515.39453125 548.32226562 C515.49806566 544.86745986 515.49806566 544.86745986 514 542 C513.92728259 539.64686445 513.91629132 537.29166332 513.9375 534.9375 C513.94652344 533.64714844 513.95554687 532.35679687 513.96484375 531.02734375 C513.98224609 529.52880859 513.98224609 529.52880859 514 528 C513.34 528 512.68 528 512 528 C511.95101562 527.00097656 511.90203125 526.00195312 511.8515625 524.97265625 C511.77679687 523.68230469 511.70203125 522.39195312 511.625 521.0625 C511.52058594 519.13083984 511.52058594 519.13083984 511.4140625 517.16015625 C511.27742187 516.11730469 511.14078125 515.07445312 511 514 C510.34 513.67 509.68 513.34 509 513 C509 507.39 509 501.78 509 496 C508.34 496 507.68 496 507 496 C506.95101562 495.10796875 506.90203125 494.2159375 506.8515625 493.296875 C506.77679687 492.12640625 506.70203125 490.9559375 506.625 489.75 C506.55539062 488.58984375 506.48578125 487.4296875 506.4140625 486.234375 C506.14839601 482.74676483 506.14839601 482.74676483 504 479 C504 475.04 504 471.08 504 467 C416.88 467 329.76 467 240 467 C240 470.3 240 473.6 240 477 C239.34 478.32 238.68 479.64 238 481 C237.73881579 483.05446959 237.55586557 485.11988009 237.4375 487.1875 C237.09897172 492.90102828 237.09897172 492.90102828 236 494 C235.76321284 496.69235776 235.57801975 499.36498156 235.4375 502.0625 C235.39431641 502.82111328 235.35113281 503.57972656 235.30664062 504.36132812 C235.20026367 506.24065438 235.09960066 508.12030244 235 510 C234.01 510.33 233.02 510.66 232 511 C232.01160156 511.99902344 232.02320313 512.99804688 232.03515625 514.02734375 C232.04869141 515.96287109 232.04869141 515.96287109 232.0625 517.9375 C232.07990234 519.86916016 232.07990234 519.86916016 232.09765625 521.83984375 C232 525 232 525 231 526 C230.78916247 528.67060873 230.62408803 531.3252135 230.5 534 C230.13513514 541.86486486 230.13513514 541.86486486 229 543 C228.79016721 545.14204311 228.63176615 547.28924113 228.5 549.4375 C228.11013767 555.77972466 228.11013767 555.77972466 227 558 C226.34 558 225.68 558 225 558 C225.01160156 558.99902344 225.02320313 559.99804688 225.03515625 561.02734375 C225.04417969 562.31769531 225.05320312 563.60804688 225.0625 564.9375 C225.07990234 566.86916016 225.07990234 566.86916016 225.09765625 568.83984375 C225 572 225 572 224 573 C223.76340471 576.18089225 223.60374385 579.35409437 223.48242188 582.54101562 C223.21328125 587.78671875 223.21328125 587.78671875 221 590 C220.71929297 592.71157201 220.53432234 595.34438996 220.4375 598.0625 C220.11993243 605.88006757 220.11993243 605.88006757 219 607 C218.76636119 608.84891946 218.58696365 610.70488031 218.4375 612.5625 C218.35371094 613.57441406 218.26992188 614.58632813 218.18359375 615.62890625 C218.12300781 616.41136719 218.06242188 617.19382812 218 618 C217.01 618.33 216.02 618.66 215 619 C215 624.61 215 630.22 215 636 C214.34 636 213.68 636 213 636 C213 641.61 213 647.22 213 653 C212.01 653.33 211.02 653.66 210 654 C210 657.96 210 661.92 210 666 C209.34 666 208.68 666 208 666 C208.02320313 667.19238281 208.04640625 668.38476562 208.0703125 669.61328125 C208.08907178 671.17968124 208.10727181 672.746088 208.125 674.3125 C208.15013672 675.49102539 208.15013672 675.49102539 208.17578125 676.69335938 C208.18222656 677.45068359 208.18867188 678.20800781 208.1953125 678.98828125 C208.20578613 679.68477783 208.21625977 680.38127441 208.22705078 681.09887695 C208 683 208 683 206 686 C205.72457149 688.73156938 205.5361176 691.38776024 205.4375 694.125 C205.12058024 701.87941976 205.12058024 701.87941976 204 703 C203.71602148 705.80823199 203.55153335 708.61646635 203.37890625 711.43359375 C203 714 203 714 201 716 C200.71929297 718.71157201 200.53432234 721.34438996 200.4375 724.0625 C200.11993243 731.88006757 200.11993243 731.88006757 199 733 C198.78916247 735.67060873 198.62408803 738.3252135 198.5 741 C198.13513514 748.86486486 198.13513514 748.86486486 197 750 C196.71461678 753.32947093 196.55107367 756.65897628 196.37890625 759.99609375 C196 763 196 763 194 765 C193.71964468 767.54631996 193.53469669 770.00930887 193.4375 772.5625 C193.11993243 779.88006757 193.11993243 779.88006757 192 781 C191.78982984 783.30895269 191.63160059 785.62273969 191.5 787.9375 C191.11021814 794.77956372 191.11021814 794.77956372 190 797 C189.34 797 188.68 797 188 797 C188.01160156 798.14339844 188.02320313 799.28679688 188.03515625 800.46484375 C188.04453288 801.95572754 188.05363321 803.44661309 188.0625 804.9375 C188.07087891 805.69224609 188.07925781 806.44699219 188.08789062 807.22460938 C188.09652441 809.14994313 188.05224333 811.07535581 188 813 C187.67 813.33 187.34 813.66 187 814 C186.71461678 817.32947093 186.55107367 820.65897628 186.37890625 823.99609375 C186 827 186 827 184 829 C183.71929297 831.71157201 183.53432234 834.34438996 183.4375 837.0625 C183.11993243 844.88006757 183.11993243 844.88006757 182 846 C181.79162581 847.82906235 181.63250341 849.66388134 181.5 851.5 C181.11111111 856.88888889 181.11111111 856.88888889 180 858 C177.66702567 858.04092937 175.33294775 858.04241723 173 858 C170.21288824 852.81020569 168.23024254 847.89214412 166.7109375 842.19921875 C166.02883575 839.74872554 166.02883575 839.74872554 164 837 C164 835.68 164 834.36 164 833 C163.34 833 162.68 833 162 833 C162 830.69 162 828.38 162 826 C161.34 826 160.68 826 160 826 C159.32438252 824.3369416 158.66066719 822.66905395 158 821 C157.73574219 820.34902344 157.47148437 819.69804688 157.19921875 819.02734375 C156.92722656 818.33769531 156.65523437 817.64804688 156.375 816.9375 C156.11460937 816.28652344 155.85421875 815.63554688 155.5859375 814.96484375 C155 813 155 813 155 809 C154.01 808.67 153.02 808.34 152 808 C152 805.69 152 803.38 152 801 C151.34 801 150.68 801 150 801 C149.690625 800.195625 149.38125 799.39125 149.0625 798.5625 C148.23664655 796.10919595 148.23664655 796.10919595 147 795 C146.95919217 793.00041636 146.95745644 790.99954746 147 789 C146.34 789 145.68 789 145 789 C145 787.35 145 785.7 145 784 C144.01 783.67 143.02 783.34 142 783 C140.60955102 779.12137916 140 776.13537997 140 772 C139.34 772 138.68 772 138 772 C136.64560332 769.29120665 136.93498549 766.99066732 137 764 C136.34 764 135.68 764 135 764 C135 762.35 135 760.7 135 759 C134.34 759 133.68 759 133 759 C132.72285156 758.07316406 132.44570313 757.14632812 132.16015625 756.19140625 C131.79792969 754.99386719 131.43570313 753.79632812 131.0625 752.5625 C130.52302734 750.77005859 130.52302734 750.77005859 129.97265625 748.94140625 C129.29110858 746.14132455 129.29110858 746.14132455 128 745 C127.95936168 743.33382885 127.957279 741.66611905 128 740 C127.01 739.67 126.02 739.34 125 739 C125 736.69 125 734.38 125 732 C124.34 732 123.68 732 123 732 C122.87625 731.360625 122.7525 730.72125 122.625 730.0625 C122.41875 729.381875 122.2125 728.70125 122 728 C121.34 727.67 120.68 727.34 120 727 C120 724.69 120 722.38 120 720 C119.34 720 118.68 720 118 720 C117.32438252 718.3369416 116.66066719 716.66905395 116 715 C115.73574219 714.34902344 115.47148437 713.69804688 115.19921875 713.02734375 C114.92722656 712.33769531 114.65523437 711.64804687 114.375 710.9375 C114.11460937 710.28652344 113.85421875 709.63554688 113.5859375 708.96484375 C113 707 113 707 113 703 C112.01 702.67 111.02 702.34 110 702 C109.24592899 699.69342986 108.588562 697.354248 108 695 C106.93070551 691.73514454 106.93070551 691.73514454 105 689 C104.95919217 687.00041636 104.95745644 684.99954746 105 683 C104.34 683 103.68 683 103 683 C102.70996094 682.09507812 102.70996094 682.09507812 102.4140625 681.171875 C102.15367187 680.37265625 101.89328125 679.5734375 101.625 678.75 C101.24214844 677.56664062 101.24214844 677.56664062 100.8515625 676.359375 C100.05990956 674.00022442 100.05990956 674.00022442 98.90625 671.90625 C97.64064633 669.24411813 97.8680184 666.90359516 98 664 C97.34 664 96.68 664 96 664 C96 662.35 96 660.7 96 659 C95.01 658.67 94.02 658.34 93 658 C93 656.35 93 654.7 93 653 C92.34 653 91.68 653 91 653 C90.690625 651.865625 90.38125 650.73125 90.0625 649.5625 C89.37075469 646.21224901 89.37075469 646.21224901 88 645 C87.95919217 643.00041636 87.95745644 640.99954746 88 639 C87.34 639 86.68 639 86 639 C86 637.35 86 635.7 86 634 C85.01 633.67 84.02 633.34 83 633 C81.60955102 629.12137916 81 626.13537997 81 622 C80.34 622 79.68 622 79 622 C77.64560332 619.29120665 77.93498549 616.99066732 78 614 C77.34 614 76.68 614 76 614 C75.32438252 612.3369416 74.66066719 610.66905395 74 609 C73.73574219 608.34902344 73.47148437 607.69804688 73.19921875 607.02734375 C72.92722656 606.33769531 72.65523438 605.64804687 72.375 604.9375 C72.11460937 604.28652344 71.85421875 603.63554688 71.5859375 602.96484375 C71 601 71 601 71 597 C70.34 597 69.68 597 69 597 C65.57142857 588.57142857 65.57142857 588.57142857 66 584 C65.34 584 64.68 584 64 584 C63.814375 582.5459375 63.814375 582.5459375 63.625 581.0625 C63.315625 579.5465625 63.315625 579.5465625 63 578 C62.34 577.67 61.68 577.34 61 577 C59.27281084 572.87393702 58.7879536 569.45297431 59 565 C58.01 564.67 57.02 564.34 56 564 C53.98569917 560.28944583 53.80597755 557.17148265 54 553 C53.01 552.67 52.02 552.34 51 552 C51 549.69 51 547.38 51 545 C50.34 545 49.68 545 49 545 C48.690625 544.195625 48.38125 543.39125 48.0625 542.5625 C47.23664655 540.10919595 47.23664655 540.10919595 46 539 C45.95919217 537.00041636 45.95745644 534.99954746 46 533 C45.34 533 44.68 533 44 533 C44 531.35 44 529.7 44 528 C43.01 527.67 42.02 527.34 41 527 C40.46491079 525.36128929 39.94579585 523.71425241 39.5390625 522.0390625 C38.79485657 519.22402268 37.69247025 516.58417273 36.5859375 513.89453125 C36 512 36 512 36 508 C35.34 508 34.68 508 34 508 C34 506.35 34 504.7 34 503 C33.34 503 32.68 503 32 503 C31.690625 501.865625 31.38125 500.73125 31.0625 499.5625 C30.37075469 496.21224901 30.37075469 496.21224901 29 495 C28.95919217 493.00041636 28.95745644 490.99954746 29 489 C28.34 489 27.68 489 27 489 C27 487.35 27 485.7 27 484 C26.01 483.67 25.02 483.34 24 483 C23.24592899 480.69342986 22.588562 478.354248 22 476 C20.93070551 472.73514454 20.93070551 472.73514454 19 470 C18.95919217 468.00041636 18.95745644 465.99954746 19 464 C18.34 464 17.68 464 17 464 C17 462.35 17 460.7 17 459 C16.01 458.67 15.02 458.34 14 458 C12.60955102 454.12137916 12 451.13537997 12 447 C11.34 447 10.68 447 10 447 C8.64560332 444.29120665 8.93498549 441.99066732 9 439 C8.34 439 7.68 439 7 439 C6.690625 438.195625 6.38125 437.39125 6.0625 436.5625 C5.23664655 434.10919595 5.23664655 434.10919595 4 433 C3.95919217 431.00041636 3.95745644 428.99954746 4 427 C3.34 427 2.68 427 2 427 C2 425.35 2 423.7 2 422 C1.34 422 0.68 422 0 422 C0 419.69 0 417.38 0 415 C-0.99 414.67 -1.98 414.34 -3 414 C-5.01430083 410.28944583 -5.19402245 407.17148265 -5 403 C-5.99 402.67 -6.98 402.34 -8 402 C-8.87890625 399.56640625 -8.87890625 399.56640625 -9.5625 396.5625 C-10.43536539 392.32840356 -10.43536539 392.32840356 -13 389 C-14.52018696 385.19953261 -15.24061997 382.09053942 -15 378 C-15.99 377.67 -16.98 377.34 -18 377 C-18.75407101 374.69342986 -19.411438 372.354248 -20 370 C-21.06929449 366.73514454 -21.06929449 366.73514454 -23 364 C-23.04080783 362.00041636 -23.04254356 359.99954746 -23 358 C-23.66 358 -24.32 358 -25 358 C-25 356.35 -25 354.7 -25 353 C-25.99 352.67 -26.98 352.34 -28 352 C-28.125 344.25 -28.125 344.25 -27 342 C-24.36 342 -21.72 342 -19 342 C-18.67 342.66 -18.34 343.32 -18 344 C-15.97536745 344.65213292 -15.97536745 344.65213292 -14 345 C-14 345.66 -14 346.32 -14 347 C-12.515 346.9071875 -12.515 346.9071875 -11 346.8125 C-6.53111789 346.78508355 -3.08695392 348.2791773 1 350 C1 350.66 1 351.32 1 352 C2.0209375 351.9071875 2.0209375 351.9071875 3.0625 351.8125 C6.91936125 352.05868263 9.51079594 353.35802162 13 355 C13 355.66 13 356.32 13 357 C14.03125 356.9175 15.0625 356.835 16.125 356.75 C20.67530444 357.04356803 22.30599078 358.46036866 26 361 C29.73225344 361.79682803 29.73225344 361.79682803 33 362 C33 362.66 33 363.32 33 364 C34.423125 363.938125 34.423125 363.938125 35.875 363.875 C39 364 39 364 41 366 C43.06874034 366.6425235 43.06874034 366.6425235 45 367 C45 367.66 45 368.32 45 369 C47.31 369 49.62 369 52 369 C52.495 370.485 52.495 370.485 53 372 C55.31 372 57.62 372 60 372 C60 372.66 60 373.32 60 374 C61.65 374.33 63.3 374.66 65 375 C65 375.66 65 376.32 65 377 C67.31 377 69.62 377 72 377 C72 377.66 72 378.32 72 379 C73.03125 378.9175 74.0625 378.835 75.125 378.75 C79.0742602 379.00479098 80.06022051 379.60257487 83.0546875 381.91796875 C86.76624788 383.98243105 91.03825533 384.48687603 95.171875 385.2890625 C98 386 98 386 100 388 C102.06874034 388.6425235 102.06874034 388.6425235 104 389 C104 389.66 104 390.32 104 391 C105.32 390.67 106.64 390.34 108 390 C107.57677892 385.43616269 107.57677892 385.43616269 106.046875 381.1796875 C104.66846358 378.30971149 104.21417345 375.50108503 103.625 372.375 C102.71168418 367.86462495 101.64696871 363.78242626 99.8125 359.5625 C98.02017532 355.43947174 97.61166022 352.46590749 98 348 C97.34 348 96.68 348 96 348 C96 345.03 96 342.06 96 339 C95.01 338.67 94.02 338.34 93 338 C93 335.69 93 333.38 93 331 C92.34 331 91.68 331 91 331 C90.92652344 330.06027344 90.92652344 330.06027344 90.8515625 329.1015625 C90.73941406 327.87566406 90.73941406 327.87566406 90.625 326.625 C90.55539062 325.81289063 90.48578125 325.00078125 90.4140625 324.1640625 C90.17107412 321.79665809 90.17107412 321.79665809 88 320 C87.875 316.875 87.875 316.875 88 314 C87.34 314 86.68 314 86 314 C86 310.7 86 307.4 86 304 C85.01 303.67 84.02 303.34 83 303 C81.60893272 299.21320573 80.92343566 295.68823693 80.5 291.6875 C80.37521316 287.97142293 80.37521316 287.97142293 78 286 C76.72820693 282.25943215 75.91175049 278.66524152 75.5 274.75 C75.2703352 270.92897973 75.2703352 270.92897973 73 268 C72.875 264.8125 72.875 264.8125 73 262 C72.34 262 71.68 262 71 262 C70.87625 260.9275 70.7525 259.855 70.625 258.75 C70.23550427 255.22621623 70.23550427 255.22621623 69.05859375 253.18359375 C67.662866 250.30458337 67.10584787 247.43728872 66.4375 244.3125 C65.87800521 240.33976595 65.87800521 240.33976595 64 237 C63.92820036 235.48071962 63.91607993 233.95832518 63.9375 232.4375 C63.94652344 231.61121094 63.95554687 230.78492188 63.96484375 229.93359375 C63.97644531 229.29550781 63.98804688 228.65742188 64 228 C63.01 227.67 62.02 227.34 61 227 C60.77213542 224.94921875 60.54427083 222.8984375 60.31640625 220.84765625 C60.18113386 218.98859771 60.18113386 218.98859771 59 218 C58.95907063 215.66702567 58.95758277 213.33294775 59 211 C58.01 210.67 57.02 210.34 56 210 C56 207.69 56 205.38 56 203 C55.34 203 54.68 203 54 203 C53.95101562 202.37351562 53.90203125 201.74703125 53.8515625 201.1015625 C53.73941406 199.87566406 53.73941406 199.87566406 53.625 198.625 C53.52058594 197.40683594 53.52058594 197.40683594 53.4140625 196.1640625 C53.17107412 193.79665809 53.17107412 193.79665809 51 192 C50.875 188.875 50.875 188.875 51 186 C50.34 186 49.68 186 49 186 C49 182.7 49 179.4 49 176 C48.01 175.67 47.02 175.34 46 175 C43.87689639 169.63636982 43.76667669 164.71642118 44 159 C43.34 159 42.68 159 42 159 C40.64560332 156.29120665 40.93498549 153.99066732 41 151 C40.34 151 39.68 151 39 151 C38.95101562 150.37351562 38.90203125 149.74703125 38.8515625 149.1015625 C38.73941406 147.87566406 38.73941406 147.87566406 38.625 146.625 C38.52058594 145.40683594 38.52058594 145.40683594 38.4140625 144.1640625 C38.17107412 141.79665809 38.17107412 141.79665809 36 140 C35.875 136.875 35.875 136.875 36 134 C35.34 134 34.68 134 34 134 C33.77213542 131.94921875 33.54427083 129.8984375 33.31640625 127.84765625 C33.18113386 125.98859771 33.18113386 125.98859771 32 125 C31.855625 123.865625 31.71125 122.73125 31.5625 121.5625 C31.35152449 117.95941003 31.35152449 117.95941003 29 116 C28.8046875 113.8359375 28.8046875 113.8359375 28.875 111.375 C28.89304687 110.55773437 28.91109375 109.74046875 28.9296875 108.8984375 C28.95289063 108.27195312 28.97609375 107.64546875 29 107 C28.34 107 27.68 107 27 107 C27 104.69 27 102.38 27 100 C26.01 99.67 25.02 99.34 24 99 C24 96.69 24 94.38 24 92 C23.34 92 22.68 92 22 92 C21.95101562 91.36191406 21.90203125 90.72382813 21.8515625 90.06640625 C21.77679688 89.24011719 21.70203125 88.41382813 21.625 87.5625 C21.52058594 86.32693359 21.52058594 86.32693359 21.4140625 85.06640625 C21.20910156 84.04353516 21.20910156 84.04353516 21 83 C20.01 82.505 20.01 82.505 19 82 C18.62599214 79.67284 18.29235267 77.33882138 18 75 C17.67 74.67 17.34 74.34 17 74 C16.7746669 71.9720021 16.55232815 69.94325126 16.37890625 67.91015625 C16.13777773 65.7671052 16.13777773 65.7671052 14 64 C13.63239269 61.67182036 13.29758419 59.3381615 13 57 C12.67 56.67 12.34 56.34 12 56 C11.85884839 53.32941149 11.95752893 50.67567762 12 48 C11.01 47.67 10.02 47.34 9 47 C6.87689639 41.63636982 6.76667669 36.71642118 7 31 C6.34 31 5.68 31 5 31 C3.64560332 28.29120665 3.93498549 25.99066732 4 23 C3.34 23 2.68 23 2 23 C1.96261719 22.443125 1.92523438 21.88625 1.88671875 21.3125 C1.40257161 15.6925959 0.07475353 11.23198717 -2 6 C-2 3 -2 3 0 0 Z " fill="#000202" transform="translate(268,211)"/>
<path d="M0 0 C0.86454803 -0.01268417 1.72909607 -0.02536835 2.61984253 -0.03843689 C3.55111969 -0.03550125 4.48239685 -0.03256561 5.44189453 -0.02954102 C6.4024173 -0.03478287 7.36294006 -0.04002472 8.35256958 -0.04542542 C10.38510166 -0.05185036 12.4176709 -0.05050252 14.45019531 -0.04199219 C17.55617827 -0.03349794 20.66031284 -0.06221179 23.76611328 -0.09399414 C25.74137315 -0.09560665 27.71663627 -0.09502766 29.69189453 -0.09204102 C30.61912323 -0.10327499 31.54635193 -0.11450897 32.50167847 -0.12608337 C37.94051587 -0.06749541 40.66911549 0.43311356 44.69970703 4.40405273 C45.68970703 4.73405273 46.67970703 5.06405273 47.69970703 5.40405273 C47.69970703 6.06405273 47.69970703 6.72405273 47.69970703 7.40405273 C48.68970703 7.73405273 49.67970703 8.06405273 50.69970703 8.40405273 C52.4050392 11.72496275 52.69970703 13.58898057 52.69970703 17.40405273 C53.68970703 17.73405273 54.67970703 18.06405273 55.69970703 18.40405273 C55.69970703 23.35405273 55.69970703 28.30405273 55.69970703 33.40405273 C54.70970703 33.89905273 54.70970703 33.89905273 53.69970703 34.40405273 C53.04757411 36.42868529 53.04757411 36.42868529 52.69970703 38.40405273 C52.03970703 38.40405273 51.37970703 38.40405273 50.69970703 38.40405273 C51.91101526 41.85162229 53.08480921 43.89810899 55.69970703 46.40405273 C57.77926943 49.82921433 58.6151634 53.57199856 59.69970703 57.40405273 C60.02970703 57.73405273 60.35970703 58.06405273 60.69970703 58.40405273 C60.77150667 59.92333311 60.7836271 61.44572755 60.76220703 62.96655273 C60.75318359 63.7928418 60.74416016 64.61913086 60.73486328 65.47045898 C60.72326172 66.10854492 60.71166016 66.74663086 60.69970703 67.40405273 C59.21470703 67.89905273 59.21470703 67.89905273 57.69970703 68.40405273 C57.69970703 71.37405273 57.69970703 74.34405273 57.69970703 77.40405273 C57.03970703 77.40405273 56.37970703 77.40405273 55.69970703 77.40405273 C55.43931641 77.98670898 55.17892578 78.56936523 54.91064453 79.16967773 C53.62027528 81.55061713 52.21557207 83.22190243 50.32470703 85.15405273 C49.73947266 85.76764648 49.15423828 86.38124023 48.55126953 87.01342773 C46.69970703 88.40405273 46.69970703 88.40405273 42.69970703 88.40405273 C42.69970703 89.06405273 42.69970703 89.72405273 42.69970703 90.40405273 C34.41928381 94.07234833 26.32902153 93.89579224 17.43237305 93.85009766 C14.87550209 93.84151344 12.32081541 93.87053596 9.76416016 93.90209961 C8.13199936 93.90371013 6.49983463 93.90313694 4.86767578 93.90014648 C4.10722458 93.91138046 3.34677338 93.92261444 2.5632782 93.93418884 C-0.64230944 93.891919 -2.82603134 93.73006074 -5.50067139 91.89151001 C-8.01893733 88.41073438 -7.85293716 85.23912544 -7.80200195 81.10302734 C-7.81010643 79.8511689 -7.81010643 79.8511689 -7.81837463 78.57402039 C-7.83087335 75.81778408 -7.81436504 73.0625899 -7.79638672 70.30639648 C-7.79654167 68.3911585 -7.79802993 66.4759202 -7.80079651 64.5606842 C-7.80218096 60.54829027 -7.78961349 56.5362536 -7.7668457 52.52392578 C-7.7384418 47.37650792 -7.74120298 42.22968289 -7.75393581 37.08222103 C-7.76088435 33.12829 -7.75311349 29.17449644 -7.74067879 25.22058296 C-7.7361576 23.32233774 -7.7358333 21.4240778 -7.73974419 19.52583122 C-7.74264881 16.87547316 -7.72618639 14.2259378 -7.7043457 11.57568359 C-7.70884735 10.78859009 -7.713349 10.00149658 -7.71798706 9.19055176 C-7.64609822 3.9504876 -7.64609822 3.9504876 -6.04380798 1.4185791 C-3.88242034 0.16089865 -2.49849613 0.01776433 0 0 Z M15.69970703 19.40405273 C15.69970703 20.06405273 15.69970703 20.72405273 15.69970703 21.40405273 C15.03970703 21.40405273 14.37970703 21.40405273 13.69970703 21.40405273 C13.63783203 22.66217773 13.57595703 23.92030273 13.51220703 25.21655273 C13.47740234 25.92424805 13.44259766 26.63194336 13.40673828 27.36108398 C13.56622279 29.45282424 13.56622279 29.45282424 14.79345703 31.15405273 C17.64560816 33.02431577 20.02195653 32.69151067 23.38720703 32.59155273 C24.56669922 32.56448242 25.74619141 32.53741211 26.96142578 32.50952148 C27.86505859 32.4747168 28.76869141 32.43991211 29.69970703 32.40405273 C29.69970703 31.74405273 29.69970703 31.08405273 29.69970703 30.40405273 C30.35970703 30.40405273 31.01970703 30.40405273 31.69970703 30.40405273 C31.69970703 27.43405273 31.69970703 24.46405273 31.69970703 21.40405273 C26.21295507 19.53622228 21.47777727 19.16821313 15.69970703 19.40405273 Z M14.75048828 54.52124023 C13.15230835 57.38489349 13.41585995 59.84786757 13.51220703 63.09155273 C13.53927734 64.27104492 13.56634766 65.45053711 13.59423828 66.66577148 C13.62904297 67.5694043 13.66384766 68.47303711 13.69970703 69.40405273 C14.35970703 69.40405273 15.01970703 69.40405273 15.69970703 69.40405273 C15.69970703 70.06405273 15.69970703 70.72405273 15.69970703 71.40405273 C20.31970703 71.40405273 24.93970703 71.40405273 29.69970703 71.40405273 C29.69970703 70.74405273 29.69970703 70.08405273 29.69970703 69.40405273 C31.34970703 69.40405273 32.99970703 69.40405273 34.69970703 69.40405273 C34.69970703 67.75405273 34.69970703 66.10405273 34.69970703 64.40405273 C35.35970703 64.40405273 36.01970703 64.40405273 36.69970703 64.40405273 C37.20474055 60.96982481 36.63390105 59.26454406 35.13720703 56.09155273 C32.89669295 53.55709366 31.55798173 53.38480417 28.13330078 52.91967773 C21.19552579 52.48233685 21.19552579 52.48233685 14.75048828 54.52124023 Z " fill="#000202" transform="translate(895.30029296875,1138.595947265625)"/>
<path d="M0 0 C0.78117188 -0.020625 1.56234375 -0.04125 2.3671875 -0.0625 C8.07482502 -0.10159341 8.07482502 -0.10159341 10.35522461 1.35571289 C12.25481965 4.1895829 11.96226838 6.50518011 11.91796875 9.88671875 C11.90830078 11.18544922 11.89863281 12.48417969 11.88867188 13.82226562 C11.86360585 15.19401639 11.83821101 16.56576118 11.8125 17.9375 C11.7974502 19.32094924 11.7837623 20.70441401 11.77148438 22.08789062 C11.73607223 25.47565207 11.68668054 28.86263139 11.625 32.25 C12.945 32.25 14.265 32.25 15.625 32.25 C15.625 31.59 15.625 30.93 15.625 30.25 C16.285 30.25 16.945 30.25 17.625 30.25 C17.955 29.26 18.285 28.27 18.625 27.25 C19.285 27.25 19.945 27.25 20.625 27.25 C20.625 26.59 20.625 25.93 20.625 25.25 C21.285 25.25 21.945 25.25 22.625 25.25 C23.12 23.765 23.12 23.765 23.625 22.25 C24.285 22.25 24.945 22.25 25.625 22.25 C25.625 21.59 25.625 20.93 25.625 20.25 C26.285 20.25 26.945 20.25 27.625 20.25 C27.851875 19.363125 28.07875 18.47625 28.3125 17.5625 C29.81507683 13.77028229 31.65807038 11.99983721 34.625 9.25 C35.181875 8.486875 35.73875 7.72375 36.3125 6.9375 C36.745625 6.380625 37.17875 5.82375 37.625 5.25 C38.285 5.25 38.945 5.25 39.625 5.25 C39.934375 4.610625 40.24375 3.97125 40.5625 3.3125 C41.625 1.25 41.625 1.25 42.625 0.25 C44.47869611 0.16262355 46.33567541 0.14301847 48.19140625 0.15234375 C49.31611328 0.15556641 50.44082031 0.15878906 51.59960938 0.16210938 C52.78361328 0.17048828 53.96761719 0.17886719 55.1875 0.1875 C56.37537109 0.19201172 57.56324219 0.19652344 58.78710938 0.20117188 C61.73312226 0.21300325 64.67903681 0.22948713 67.625 0.25 C68.25 2.625 68.25 2.625 68.625 5.25 C67.965 5.91 67.305 6.57 66.625 7.25 C65.9824765 9.31874034 65.9824765 9.31874034 65.625 11.25 C64.965 11.25 64.305 11.25 63.625 11.25 C63.295 12.24 62.965 13.23 62.625 14.25 C61.965 14.25 61.305 14.25 60.625 14.25 C60.625 14.91 60.625 15.57 60.625 16.25 C59.965 16.25 59.305 16.25 58.625 16.25 C58.13 17.735 58.13 17.735 57.625 19.25 C56.965 19.25 56.305 19.25 55.625 19.25 C55.625 19.91 55.625 20.57 55.625 21.25 C54.965 21.25 54.305 21.25 53.625 21.25 C53.56183594 21.971875 53.49867188 22.69375 53.43359375 23.4375 C52.36604888 27.15069954 50.51579704 28.65299841 47.6875 31.25 C44.2421321 34.42271289 42.03410128 36.74087589 40.625 41.25 C39.965 41.25 39.305 41.25 38.625 41.25 C38.625 42.24 38.625 43.23 38.625 44.25 C39.615 44.58 40.605 44.91 41.625 45.25 C41.625 45.91 41.625 46.57 41.625 47.25 C42.285 47.25 42.945 47.25 43.625 47.25 C44.88671875 48.97265625 44.88671875 48.97265625 46.3125 51.3125 C48.87324887 55.30777157 51.64598106 58.51280667 55.109375 61.7421875 C56.625 63.25 56.625 63.25 58.625 66.25 C58.625 67.24 58.625 68.23 58.625 69.25 C59.285 69.25 59.945 69.25 60.625 69.25 C60.625 69.91 60.625 70.57 60.625 71.25 C62.11 71.745 62.11 71.745 63.625 72.25 C63.625 72.91 63.625 73.57 63.625 74.25 C64.285 74.25 64.945 74.25 65.625 74.25 C67.0625 76.1484375 67.0625 76.1484375 68.625 78.625 C70.19612484 81.09952162 71.54883041 83.17383041 73.625 85.25 C73.25 87.875 73.25 87.875 72.625 90.25 C71.965 90.25 71.305 90.25 70.625 90.25 C70.625 90.91 70.625 91.57 70.625 92.25 C67.34355481 93.89072259 63.72710004 93.39274434 60.125 93.375 C59.33996094 93.37886719 58.55492187 93.38273437 57.74609375 93.38671875 C51.87830787 93.37665394 51.87830787 93.37665394 49.625 92.25 C49.625 91.59 49.625 90.93 49.625 90.25 C48.305 90.25 46.985 90.25 45.625 90.25 C42.88745901 88.22219186 42.37660163 86.47114983 41.625 83.25 C40.635 82.755 40.635 82.755 39.625 82.25 C39.625 81.59 39.625 80.93 39.625 80.25 C38.965 80.25 38.305 80.25 37.625 80.25 C37.625 79.59 37.625 78.93 37.625 78.25 C36.965 78.25 36.305 78.25 35.625 78.25 C31.60515005 75.14375231 29.19103918 69.94811753 27.625 65.25 C26.635 64.755 26.635 64.755 25.625 64.25 C23.625 63.25 23.625 63.25 22.625 60.25 C21.965 60.25 21.305 60.25 20.625 60.25 C20.625 58.93 20.625 57.61 20.625 56.25 C18.975 55.92 17.325 55.59 15.625 55.25 C15.625 54.59 15.625 53.93 15.625 53.25 C14.305 53.25 12.985 53.25 11.625 53.25 C11.625 63.81 11.625 74.37 11.625 85.25 C10.965 85.25 10.305 85.25 9.625 85.25 C9.295 86.9 8.965 88.55 8.625 90.25 C7.965 90.25 7.305 90.25 6.625 90.25 C6.625 90.91 6.625 91.57 6.625 92.25 C2.93031558 94.09734221 -1.34179345 93.72487755 -5.375 93.25 C-8 91.5 -8 91.5 -9.375 89.25 C-9.375 87.93 -9.375 86.61 -9.375 85.25 C-10.035 85.25 -10.695 85.25 -11.375 85.25 C-11.375 59.18 -11.375 33.11 -11.375 6.25 C-10.715 6.25 -10.055 6.25 -9.375 6.25 C-9.4059375 5.0434375 -9.4059375 5.0434375 -9.4375 3.8125 C-9.3039602 -1.66263168 -4.30168023 0.02811556 0 0 Z " fill="#000202" transform="translate(567.375,1138.75)"/>
<path d="M0 0 C0.78890625 0.00515625 1.5778125 0.0103125 2.390625 0.015625 C8.22076437 0.09576437 8.22076437 0.09576437 9.375 1.25 C9.46290975 3.54151417 9.48194038 5.83572524 9.47265625 8.12890625 C9.4712413 8.8155687 9.46982635 9.50223114 9.46836853 10.20970154 C9.46275479 12.41067801 9.45020007 14.61155409 9.4375 16.8125 C9.43248676 18.30143083 9.42792355 19.79036324 9.42382812 21.27929688 C9.41278093 24.93623075 9.39550713 28.59310558 9.375 32.25 C10.035 32.25 10.695 32.25 11.375 32.25 C11.375 32.91 11.375 33.57 11.375 34.25 C21.605 34.25 31.835 34.25 42.375 34.25 C42.25637593 24.18274065 42.25637593 24.18274065 42.10473633 14.1159668 C42.09724365 12.86468994 42.08975098 11.61341309 42.08203125 10.32421875 C42.0663208 9.04119873 42.05061035 7.75817871 42.03442383 6.4362793 C42.375 3.25 42.375 3.25 43.62890625 1.32617188 C45.79130728 -0.00658312 47.07490471 -0.09681054 49.60546875 -0.04296875 C50.40791016 -0.03330078 51.21035156 -0.02363281 52.03710938 -0.01367188 C52.87048828 0.01146484 53.70386719 0.03660156 54.5625 0.0625 C55.8299707 0.08280273 55.8299707 0.08280273 57.12304688 0.10351562 C59.20730384 0.13884201 61.29123277 0.19264861 63.375 0.25 C63.375 1.9 63.375 3.55 63.375 5.25 C64.365 5.58 65.355 5.91 66.375 6.25 C66.44453038 16.46392327 66.49782675 26.67779017 66.53043652 36.89190197 C66.5460881 41.63480683 66.56731715 46.3775497 66.60131836 51.12036133 C66.63392985 55.69800215 66.65185684 60.27548721 66.65963173 64.85323524 C66.66517202 66.59913904 66.67599089 68.34503438 66.69219017 70.09087181 C66.71398842 72.53757482 66.71696595 74.98363533 66.71557617 77.43041992 C66.726362 78.15115189 66.73714783 78.87188385 66.7482605 79.61445618 C66.72123223 84.01600427 66.0239717 86.72407595 63.375 90.25 C61.14445554 92.39654907 59.94892924 93.17490645 56.8671875 93.578125 C56.00351562 93.55234375 55.13984375 93.5265625 54.25 93.5 C53.38117188 93.48453125 52.51234375 93.4690625 51.6171875 93.453125 C49.375 93.25 49.375 93.25 47.375 92.25 C47.375 91.59 47.375 90.93 47.375 90.25 C46.715 90.25 46.055 90.25 45.375 90.25 C43.76831055 89.19213867 43.76831055 89.19213867 42.375 87.25 C42.03442383 84.0637207 42.03442383 84.0637207 42.08203125 80.17578125 C42.08952393 78.92450439 42.0970166 77.67322754 42.10473633 76.3840332 C42.13204834 74.79292725 42.15936035 73.20182129 42.1875 71.5625 C42.249375 66.509375 42.31125 61.45625 42.375 56.25 C32.145 56.25 21.915 56.25 11.375 56.25 C11.375 56.91 11.375 57.57 11.375 58.25 C10.715 58.25 10.055 58.25 9.375 58.25 C9.39594727 59.16813477 9.41689453 60.08626953 9.43847656 61.03222656 C9.50674583 64.44655428 9.55684385 67.86015443 9.59472656 71.27490234 C9.61481301 72.7512559 9.64208801 74.22753019 9.67675781 75.70361328 C9.72541184 77.82864962 9.74799673 79.95263234 9.765625 82.078125 C9.78657227 83.3559082 9.80751953 84.63369141 9.82910156 85.95019531 C9.375 89.25 9.375 89.25 7.49633789 91.66503906 C4.97471927 93.54907037 3.68439424 93.78933095 0.5625 93.75 C-0.65373047 93.76546875 -0.65373047 93.76546875 -1.89453125 93.78125 C-5.68123488 93.04449507 -8.30514499 91.21119029 -11.625 89.25 C-11.69444066 78.08884478 -11.74778107 66.92774075 -11.78043652 55.76641369 C-11.79610769 50.58402578 -11.81737248 45.40178541 -11.85131836 40.21948242 C-11.88386 35.22040159 -11.90184207 30.22146287 -11.90963173 25.22228432 C-11.91518459 23.31284662 -11.92602768 21.4034169 -11.94219017 19.49403954 C-11.96389546 16.82422308 -11.96696984 14.15499758 -11.96557617 11.48510742 C-11.976362 10.69172974 -11.98714783 9.89835205 -11.9982605 9.08093262 C-11.96826539 3.78783909 -11.96826539 3.78783909 -10.35224915 1.2558136 C-7.19579457 -0.58225646 -3.54616266 -0.09362806 0 0 Z " fill="#000202" transform="translate(291.625,1138.75)"/>
<path d="M0 0 C2.93804996 -0.08086376 5.87388075 -0.1404283 8.8125 -0.1875 C9.64587891 -0.21263672 10.47925781 -0.23777344 11.33789062 -0.26367188 C12.54155273 -0.27817383 12.54155273 -0.27817383 13.76953125 -0.29296875 C14.87711792 -0.31653442 14.87711792 -0.31653442 16.00708008 -0.34057617 C18.65412306 0.11178509 19.3726953 0.87616365 21 3 C21.38526917 5.52902222 21.38526917 5.52902222 21.40063477 8.58544922 C21.41397354 9.73028778 21.42731232 10.87512634 21.4410553 12.05465698 C21.44117111 13.29216705 21.44128693 14.52967712 21.44140625 15.8046875 C21.45461411 17.0759549 21.46782196 18.34722229 21.48143005 19.65701294 C21.51546335 23.03848386 21.53781717 26.41956981 21.55297852 29.80114746 C21.57481859 34.55808357 21.60763385 39.31480396 21.65428162 44.07156372 C21.67864459 46.60345031 21.69349824 49.13544996 21.69789124 51.66744995 C21.70807785 52.81859283 21.71826447 53.96973572 21.72875977 55.15576172 C21.73303482 56.16597382 21.73730988 57.17618591 21.74171448 58.2170105 C22.01709691 61.18421671 22.66070694 63.34420973 24 66 C24.66 66.33 25.32 66.66 26 67 C26 67.66 26 68.32 26 69 C30.42682491 70.0390378 34.78934632 70.31592951 39.3125 70.5625 C40.42334961 70.62727539 40.42334961 70.62727539 41.55664062 70.69335938 C43.37091464 70.79870432 45.1854355 70.89978316 47 71 C47 70.34 47 69.68 47 69 C47.66 69 48.32 69 49 69 C49 68.34 49 67.68 49 67 C50.375 65.375 50.375 65.375 52 64 C52.66 64 53.32 64 54 64 C53.979375 63.195625 53.95875 62.39125 53.9375 61.5625 C54 59 54 59 55 58 C55.11791674 56.26204649 55.16733481 54.51939658 55.18945312 52.77758789 C55.21452942 51.1056411 55.21452942 51.1056411 55.2401123 49.3999176 C55.25368774 48.18642136 55.26726318 46.97292511 55.28125 45.72265625 C55.29965942 44.48583603 55.31806885 43.24901581 55.33703613 41.97471619 C55.39600878 38.0040324 55.44891912 34.03329093 55.5 30.0625 C55.56718404 24.84495923 55.6411518 19.62755297 55.71875 14.41015625 C55.73232544 13.19868423 55.74590088 11.98721222 55.7598877 10.73902893 C55.78496399 9.0623539 55.78496399 9.0623539 55.81054688 7.35180664 C55.82307495 6.36443008 55.83560303 5.37705353 55.84851074 4.35975647 C56 2 56 2 57 0 C60.27066566 -0.08706892 63.54103365 -0.14041241 66.8125 -0.1875 C67.74126953 -0.21263672 68.67003906 -0.23777344 69.62695312 -0.26367188 C70.51962891 -0.27333984 71.41230469 -0.28300781 72.33203125 -0.29296875 C73.15421143 -0.3086792 73.9763916 -0.32438965 74.82348633 -0.34057617 C77.59746654 0.09349028 78.30031384 0.78922372 80 3 C80.36749268 5.36611938 80.36749268 5.36611938 80.35644531 8.18994141 C80.35944641 9.24758698 80.36244751 10.30523254 80.36553955 11.39492798 C80.34701935 13.10596207 80.34701935 13.10596207 80.328125 14.8515625 C80.32625183 16.02133636 80.32437866 17.19111023 80.32244873 18.39633179 C80.31572335 20.86939341 80.30179935 23.3424443 80.28125 25.81542969 C80.25006861 29.6166361 80.24027767 33.41742834 80.234375 37.21875 C80.2252065 39.6171926 80.21483122 42.01563095 80.203125 44.4140625 C80.19887512 45.55880035 80.19462524 46.70353821 80.19024658 47.88296509 C80.18063904 48.93430634 80.17103149 49.98564758 80.16113281 51.06884766 C80.15430481 51.99911774 80.14747681 52.92938782 80.14044189 53.8878479 C80 56 80 56 79 57 C78.79231771 58.47396739 78.63283983 59.9549126 78.5 61.4375 C78.10958904 65.78082192 78.10958904 65.78082192 77 68 C76.34 68 75.68 68 75 68 C74.814375 69.0828125 74.814375 69.0828125 74.625 70.1875 C74.0095069 72.95721894 73.11555626 75.3970354 72 78 C71.34 78 70.68 78 70 78 C70 78.66 70 79.32 70 80 C69.34 80 68.68 80 68 80 C68 80.66 68 81.32 68 82 C66.625 83.625 66.625 83.625 65 85 C64.34 85 63.68 85 63 85 C63 85.66 63 86.32 63 87 C59.27034861 89.03435531 57.33094958 90 53 90 C53 90.66 53 91.32 53 92 C50.75504292 93.12247854 49.11556845 93.26831921 46.625 93.5 C44.3652206 93.71161814 42.28140559 93.91816746 40.10009766 94.55249023 C36.58898053 95.30067411 33.20906632 94.28059239 29.75 93.5625 C29.00492187 93.41490234 28.25984375 93.26730469 27.4921875 93.11523438 C25.65992335 92.7511306 23.82973947 92.37658591 22 92 C22 91.34 22 90.68 22 90 C21.236875 89.896875 20.47375 89.79375 19.6875 89.6875 C16.70096183 88.92350186 16.03307752 88.20250065 14 86 C12.8553125 85.4121875 12.8553125 85.4121875 11.6875 84.8125 C7.08674108 81.70966259 3.68366161 77.34398265 2.125 72 C2.08375 71.34 2.0425 70.68 2 70 C1.34 70 0.68 70 0 70 C0 67.69 0 65.38 0 63 C-0.99 62.67 -1.98 62.34 -3 62 C-3 43.52 -3 25.04 -3 6 C-2.01 5.67 -1.02 5.34 0 5 C0 3.35 0 1.7 0 0 Z " fill="#000202" transform="translate(381,1139)"/>
<path d="M0 0 C0.78552246 0.01047363 1.57104492 0.02094727 2.38037109 0.03173828 C3.23115234 0.03818359 4.08193359 0.04462891 4.95849609 0.05126953 C6.29267578 0.07640625 6.29267578 0.07640625 7.65380859 0.10205078 C8.99958984 0.11558594 8.99958984 0.11558594 10.37255859 0.12939453 C12.59157445 0.15300108 14.81005937 0.18592768 17.02880859 0.22705078 C17.52380859 2.70205078 17.52380859 2.70205078 18.02880859 5.22705078 C19.01880859 5.55705078 20.00880859 5.88705078 21.02880859 6.22705078 C21.02880859 7.54705078 21.02880859 8.86705078 21.02880859 10.22705078 C21.68880859 10.22705078 22.34880859 10.22705078 23.02880859 10.22705078 C23.29693359 11.25830078 23.56505859 12.28955078 23.84130859 13.35205078 C24.57467132 15.96366626 25.3997834 17.95473213 26.65380859 20.41455078 C28.02880859 23.22705078 28.02880859 23.22705078 28.02880859 27.22705078 C28.68880859 27.22705078 29.34880859 27.22705078 30.02880859 27.22705078 C30.28275391 28.00048828 30.53669922 28.77392578 30.79833984 29.57080078 C33.13827273 36.65993276 33.13827273 36.65993276 35.71630859 43.66455078 C36.78301611 46.55989975 37.55435228 49.19053036 38.02880859 52.22705078 C38.68880859 52.22705078 39.34880859 52.22705078 40.02880859 52.22705078 C40.33818359 53.03142578 40.64755859 53.83580078 40.96630859 54.66455078 C41.79216204 57.11785483 41.79216204 57.11785483 43.02880859 58.22705078 C43.06961642 60.22663442 43.07135216 62.22750332 43.02880859 64.22705078 C43.68880859 64.22705078 44.34880859 64.22705078 45.02880859 64.22705078 C45.02880859 65.87705078 45.02880859 67.52705078 45.02880859 69.22705078 C46.51380859 69.72205078 46.51380859 69.72205078 48.02880859 70.22705078 C49.41925758 74.10567162 50.02880859 77.09167081 50.02880859 81.22705078 C51.51380859 81.72205078 51.51380859 81.72205078 53.02880859 82.22705078 C53.02880859 84.53705078 53.02880859 86.84705078 53.02880859 89.22705078 C51.54380859 89.72205078 51.54380859 89.72205078 50.02880859 90.22705078 C50.02880859 90.88705078 50.02880859 91.54705078 50.02880859 92.22705078 C47.29802983 93.59244016 45.07320492 93.35936904 42.02880859 93.35205078 C40.42005859 93.35591797 40.42005859 93.35591797 38.77880859 93.35986328 C36.02880859 93.22705078 36.02880859 93.22705078 34.02880859 92.22705078 C34.02880859 91.56705078 34.02880859 90.90705078 34.02880859 90.22705078 C33.38943359 89.95892578 32.75005859 89.69080078 32.09130859 89.41455078 C30.02880859 88.22705078 30.02880859 88.22705078 29.02880859 85.22705078 C28.36880859 85.22705078 27.70880859 85.22705078 27.02880859 85.22705078 C25.60717669 81.90990968 24.6387175 78.78485274 24.02880859 75.22705078 C23.36880859 75.22705078 22.70880859 75.22705078 22.02880859 75.22705078 C22.02880859 74.56705078 22.02880859 73.90705078 22.02880859 73.22705078 C12.45880859 73.22705078 2.88880859 73.22705078 -6.97119141 73.22705078 C-6.97119141 73.88705078 -6.97119141 74.54705078 -6.97119141 75.22705078 C-7.63119141 75.22705078 -8.29119141 75.22705078 -8.97119141 75.22705078 C-9.25994141 76.17580078 -9.54869141 77.12455078 -9.84619141 78.10205078 C-10.97119141 81.22705078 -10.97119141 81.22705078 -12.97119141 83.22705078 C-13.25994141 84.05205078 -13.54869141 84.87705078 -13.84619141 85.72705078 C-14.97119141 88.22705078 -14.97119141 88.22705078 -17.09619141 89.53955078 C-17.71494141 89.76642578 -18.33369141 89.99330078 -18.97119141 90.22705078 C-18.97119141 90.88705078 -18.97119141 91.54705078 -18.97119141 92.22705078 C-22.03652305 93.7597166 -25.23873413 93.32981549 -28.59619141 93.28955078 C-29.30259766 93.28503906 -30.00900391 93.28052734 -30.73681641 93.27587891 C-32.48164416 93.26408953 -34.2264284 93.24615403 -35.97119141 93.22705078 C-39.17119141 86.08858924 -39.17119141 86.08858924 -38.15869141 81.72705078 C-37.76681641 80.90205078 -37.37494141 80.07705078 -36.97119141 79.22705078 C-36.31119141 79.22705078 -35.65119141 79.22705078 -34.97119141 79.22705078 C-35.05369141 78.19580078 -35.13619141 77.16455078 -35.22119141 76.10205078 C-34.92422997 71.49914851 -33.54874279 69.98291136 -30.97119141 66.22705078 C-30.05199227 63.64130366 -29.30264097 61.04692069 -28.58447266 58.39892578 C-27.97119141 56.22705078 -27.97119141 56.22705078 -26.97119141 54.22705078 C-26.31119141 54.22705078 -25.65119141 54.22705078 -24.97119141 54.22705078 C-24.81650391 53.20611328 -24.81650391 53.20611328 -24.65869141 52.16455078 C-23.83407689 48.64119784 -22.39507717 45.54945089 -20.97119141 42.22705078 C-20.27978619 39.44816465 -20.27978619 39.44816465 -19.97119141 37.22705078 C-19.31119141 37.22705078 -18.65119141 37.22705078 -17.97119141 37.22705078 C-18.01244141 36.27830078 -18.05369141 35.32955078 -18.09619141 34.35205078 C-17.97119141 31.22705078 -17.97119141 31.22705078 -15.97119141 29.22705078 C-15.32866791 27.15831044 -15.32866791 27.15831044 -14.97119141 25.22705078 C-14.31119141 25.22705078 -13.65119141 25.22705078 -12.97119141 25.22705078 C-13.01244141 24.27830078 -13.05369141 23.32955078 -13.09619141 22.35205078 C-12.97119141 19.22705078 -12.97119141 19.22705078 -10.97119141 17.22705078 C-10.21342876 15.54006096 -9.51007359 13.82814445 -8.84619141 12.10205078 C-8.49298828 11.19197266 -8.13978516 10.28189453 -7.77587891 9.34423828 C-7.51033203 8.64556641 -7.24478516 7.94689453 -6.97119141 7.22705078 C-6.31119141 7.22705078 -5.65119141 7.22705078 -4.97119141 7.22705078 C-4.78556641 6.05142578 -4.78556641 6.05142578 -4.59619141 4.85205078 C-3.87177817 1.80951519 -3.25813474 0.37528676 0 0 Z M6.02880859 34.22705078 C6.02880859 35.54705078 6.02880859 36.86705078 6.02880859 38.22705078 C5.03880859 38.55705078 4.04880859 38.88705078 3.02880859 39.22705078 C0.53370753 43.77694096 -0.03006566 49.18530571 -0.97119141 54.22705078 C3.97880859 54.22705078 8.92880859 54.22705078 14.02880859 54.22705078 C14.02880859 52.24705078 14.02880859 50.26705078 14.02880859 48.22705078 C13.36880859 48.22705078 12.70880859 48.22705078 12.02880859 48.22705078 C12.02880859 45.91705078 12.02880859 43.60705078 12.02880859 41.22705078 C11.36880859 40.89705078 10.70880859 40.56705078 10.02880859 40.22705078 C9.36214193 38.56038411 8.69547526 36.89371745 8.02880859 35.22705078 C7.36880859 34.89705078 6.70880859 34.56705078 6.02880859 34.22705078 Z " fill="#000202" transform="translate(816.97119140625,1138.77294921875)"/>
<path d="M0 0 C1.66869141 -0.00193359 1.66869141 -0.00193359 3.37109375 -0.00390625 C4.53769531 -0.00003906 5.70429687 0.00382812 6.90625 0.0078125 C8.07285156 0.00394531 9.23945312 0.00007813 10.44140625 -0.00390625 C11.55386719 -0.00261719 12.66632812 -0.00132813 13.8125 0 C14.83666016 0.00112793 15.86082031 0.00225586 16.91601562 0.00341797 C19.40625 0.1328125 19.40625 0.1328125 21.40625 1.1328125 C21.40625 1.7928125 21.40625 2.4528125 21.40625 3.1328125 C22.2725 3.0709375 23.13875 3.0090625 24.03125 2.9453125 C27.84824033 3.15736752 30.11702536 4.25325557 33.40625 6.1328125 C33.40625 10.4228125 33.40625 14.7128125 33.40625 19.1328125 C32.74625 19.1328125 32.08625 19.1328125 31.40625 19.1328125 C30.91125 21.6078125 30.91125 21.6078125 30.40625 24.1328125 C28.75625 24.1328125 27.10625 24.1328125 25.40625 24.1328125 C25.40625 24.7928125 25.40625 25.4528125 25.40625 26.1328125 C23.59292846 25.82511543 21.78060655 25.51152186 19.96875 25.1953125 C18.45474609 24.93427734 18.45474609 24.93427734 16.91015625 24.66796875 C14.40625 24.1328125 14.40625 24.1328125 13.40625 23.1328125 C10.99271168 22.95127633 8.63500181 22.85466679 6.21875 22.8203125 C4.24841797 22.76423828 4.24841797 22.76423828 2.23828125 22.70703125 C-2.14751266 23.19434168 -4.24269285 24.310602 -7.59375 27.1328125 C-7.92375 28.1228125 -8.25375 29.1128125 -8.59375 30.1328125 C-7.60375 30.4628125 -6.61375 30.7928125 -5.59375 31.1328125 C-5.59375 31.7928125 -5.59375 32.4528125 -5.59375 33.1328125 C-4.93375 33.1328125 -4.27375 33.1328125 -3.59375 33.1328125 C-3.59375 33.7928125 -3.59375 34.4528125 -3.59375 35.1328125 C-2.5728125 35.3184375 -2.5728125 35.3184375 -1.53125 35.5078125 C3.62315046 36.60449345 8.55409372 38.07432196 13.40625 40.1328125 C13.40625 40.7928125 13.40625 41.4528125 13.40625 42.1328125 C14.355 42.1121875 15.30375 42.0915625 16.28125 42.0703125 C19.40625 42.1328125 19.40625 42.1328125 21.40625 43.1328125 C21.40625 43.7928125 21.40625 44.4528125 21.40625 45.1328125 C22.72625 45.1328125 24.04625 45.1328125 25.40625 45.1328125 C25.40625 45.7928125 25.40625 46.4528125 25.40625 47.1328125 C26.39625 47.4628125 27.38625 47.7928125 28.40625 48.1328125 C28.40625 48.7928125 28.40625 49.4528125 28.40625 50.1328125 C29.045625 50.4009375 29.685 50.6690625 30.34375 50.9453125 C32.40625 52.1328125 32.40625 52.1328125 33.40625 55.1328125 C34.06625 55.1328125 34.72625 55.1328125 35.40625 55.1328125 C38.45916751 61.7474671 39.78581086 67.87702087 38.40625 75.1328125 C33.14922768 86.8023862 33.14922768 86.8023862 27.796875 89.3984375 C27.00796875 89.64078125 26.2190625 89.883125 25.40625 90.1328125 C24.560625 90.6690625 23.715 91.2053125 22.84375 91.7578125 C20.40625 93.1328125 20.40625 93.1328125 16.40625 93.1328125 C16.40625 93.7928125 16.40625 94.4528125 16.40625 95.1328125 C15.69597656 95.26558594 14.98570312 95.39835937 14.25390625 95.53515625 C13.33480469 95.71175781 12.41570313 95.88835937 11.46875 96.0703125 C10.09396484 96.33134766 10.09396484 96.33134766 8.69140625 96.59765625 C6.45335156 96.90996238 6.45335156 96.90996238 5.40625 98.1328125 C3.81894583 97.92577283 2.23245266 97.70935888 0.65234375 97.453125 C-2.96200015 96.93768813 -6.59928347 96.69514371 -10.23828125 96.4140625 C-12.59375 96.1328125 -12.59375 96.1328125 -14.59375 95.1328125 C-14.59375 94.4728125 -14.59375 93.8128125 -14.59375 93.1328125 C-15.58375 93.1946875 -16.57375 93.2565625 -17.59375 93.3203125 C-22.06263211 93.34772895 -25.50679608 91.8536352 -29.59375 90.1328125 C-30.21238847 79.51285216 -30.21238847 79.51285216 -27.96875 74.5078125 C-25.28532689 71.82438939 -23.26471333 70.96712235 -19.59375 70.1328125 C-19.26375 70.4628125 -18.93375 70.7928125 -18.59375 71.1328125 C-17.43875 71.2978125 -16.28375 71.4628125 -15.09375 71.6328125 C-11.59375 72.1328125 -11.59375 72.1328125 -10.59375 73.1328125 C-9.14070692 73.23167166 -7.68296328 73.26360583 -6.2265625 73.265625 C-5.34097656 73.26691406 -4.45539062 73.26820312 -3.54296875 73.26953125 C-2.61097656 73.26566406 -1.67898438 73.26179688 -0.71875 73.2578125 C0.66763672 73.26361328 0.66763672 73.26361328 2.08203125 73.26953125 C2.97019531 73.26824219 3.85835937 73.26695313 4.7734375 73.265625 C5.99716064 73.26393311 5.99716064 73.26393311 7.24560547 73.26220703 C9.59011373 73.21538571 9.59011373 73.21538571 12.40625 72.1328125 C13.0940736 69.77913537 13.0940736 69.77913537 13.40625 67.1328125 C9.64253456 61.48723934 3.72930951 59.68131687 -2.59375 58.1328125 C-2.59375 57.4728125 -2.59375 56.8128125 -2.59375 56.1328125 C-4.90375 56.1328125 -7.21375 56.1328125 -9.59375 56.1328125 C-9.59375 55.4728125 -9.59375 54.8128125 -9.59375 54.1328125 C-10.955 53.9471875 -10.955 53.9471875 -12.34375 53.7578125 C-17.98014654 52.67389009 -20.73824315 50.416709 -24.59375 46.1328125 C-24.59375 45.4728125 -24.59375 44.8128125 -24.59375 44.1328125 C-25.25375 44.1328125 -25.91375 44.1328125 -26.59375 44.1328125 C-28.20703125 42.95703125 -28.20703125 42.95703125 -29.59375 41.1328125 C-29.88671875 38.65234375 -29.88671875 38.65234375 -29.78125 35.9453125 C-29.75417969 35.04425781 -29.72710938 34.14320312 -29.69921875 33.21484375 C-29.66441406 32.52777344 -29.62960937 31.84070312 -29.59375 31.1328125 C-30.25375 31.1328125 -30.91375 31.1328125 -31.59375 31.1328125 C-31.63629356 29.13326504 -31.63455783 27.13239614 -31.59375 25.1328125 C-31.26375 24.8028125 -30.93375 24.4728125 -30.59375 24.1328125 C-30.36299918 22.78534166 -30.18221937 21.42903685 -30.03125 20.0703125 C-29.886875 18.7709375 -29.7425 17.4715625 -29.59375 16.1328125 C-28.60375 15.8028125 -27.61375 15.4728125 -26.59375 15.1328125 C-26.59375 14.4728125 -26.59375 13.8128125 -26.59375 13.1328125 C-25.93375 13.1328125 -25.27375 13.1328125 -24.59375 13.1328125 C-24.325625 12.4934375 -24.0575 11.8540625 -23.78125 11.1953125 C-22.59375 9.1328125 -22.59375 9.1328125 -19.59375 8.1328125 C-19.26375 7.1428125 -18.93375 6.1528125 -18.59375 5.1328125 C-17.93375 5.1328125 -17.27375 5.1328125 -16.59375 5.1328125 C-16.59375 4.4728125 -16.59375 3.8128125 -16.59375 3.1328125 C-13.62375 3.1328125 -10.65375 3.1328125 -7.59375 3.1328125 C-7.59375 2.4728125 -7.59375 1.8128125 -7.59375 1.1328125 C-4.95377351 -0.18717575 -2.95297683 0.00325218 0 0 Z " fill="#000202" transform="translate(1003.59375,1135.8671875)"/>
<path d="M0 0 C0.78890625 -0.00064453 1.5778125 -0.00128906 2.390625 -0.00195312 C3.62039063 0.02801758 3.62039063 0.02801758 4.875 0.05859375 C6.10476563 0.04795898 6.10476563 0.04795898 7.359375 0.03710938 C13.31218982 0.10033372 13.31218982 0.10033372 15.47529602 1.62139893 C17.52751356 4.37003839 17.23502317 6.49203814 17.21557617 9.89526367 C17.21623329 10.86152428 17.21623329 10.86152428 17.21690369 11.8473053 C17.21481559 13.97403396 17.19148513 16.09997177 17.16796875 18.2265625 C17.16237283 19.70200673 17.15810271 21.17745653 17.15510559 22.65290833 C17.14365637 26.53448909 17.11418887 30.41573258 17.08099365 34.29718018 C17.05029424 38.25862058 17.03660055 42.22011553 17.02148438 46.18164062 C16.98931894 53.95327869 16.93812205 61.72463894 16.875 69.49609375 C17.535 69.49609375 18.195 69.49609375 18.875 69.49609375 C18.875 70.15609375 18.875 70.81609375 18.875 71.49609375 C29.105 71.49609375 39.335 71.49609375 49.875 71.49609375 C50.205 72.48609375 50.535 73.47609375 50.875 74.49609375 C51.865 74.82609375 52.855 75.15609375 53.875 75.49609375 C53.95642927 77.24531515 54.01438541 78.99563917 54.0625 80.74609375 C54.11470703 82.20789062 54.11470703 82.20789062 54.16796875 83.69921875 C53.83340784 86.89316026 53.10834367 88.22489679 50.875 90.49609375 C50.215 90.49609375 49.555 90.49609375 48.875 90.49609375 C48.875 91.15609375 48.875 91.81609375 48.875 92.49609375 C46.4904817 93.6883529 45.02590784 93.62292082 42.36523438 93.62548828 C41.43086548 93.62864044 40.49649658 93.6317926 39.53381348 93.63504028 C38.01660706 93.63200394 38.01660706 93.63200394 36.46875 93.62890625 C35.43310913 93.62986298 34.39746826 93.6308197 33.33044434 93.63180542 C31.1381016 93.63248673 28.94575685 93.63063584 26.75341797 93.62646484 C23.3889515 93.62111593 20.02461854 93.6264115 16.66015625 93.6328125 C14.53385387 93.63215171 12.40755157 93.63087053 10.28125 93.62890625 C9.26977905 93.63093048 8.25830811 93.63295471 7.21618652 93.63504028 C6.28181763 93.63188812 5.34744873 93.62873596 4.38476562 93.62548828 C3.56028931 93.62469269 2.73581299 93.62389709 1.88635254 93.62307739 C-0.125 93.49609375 -0.125 93.49609375 -2.125 92.49609375 C-2.125 91.83609375 -2.125 91.17609375 -2.125 90.49609375 C-2.785 90.49609375 -3.445 90.49609375 -4.125 90.49609375 C-7.39050069 86.40841255 -7.5548431 82.58590047 -7.51318359 77.55639648 C-7.51844055 76.77205231 -7.52369751 75.98770813 -7.52911377 75.17959595 C-7.54227987 72.59608848 -7.53358877 70.01320085 -7.5234375 67.4296875 C-7.52545901 65.63037498 -7.52837109 63.83106326 -7.53213501 62.03175354 C-7.53655359 58.26498598 -7.53014158 54.49843214 -7.51611328 50.73168945 C-7.49900933 45.90389495 -7.50887311 41.07660035 -7.52683067 36.24882412 C-7.53767062 32.53506197 -7.53422142 28.82141838 -7.5264473 25.10765266 C-7.52444651 23.32745365 -7.52690031 21.54724385 -7.53388596 19.76705742 C-7.54150532 17.2798802 -7.52989047 14.79351335 -7.51318359 12.30639648 C-7.51925629 11.57122299 -7.52532898 10.8360495 -7.53158569 10.07859802 C-7.492408 6.93020375 -7.29814161 4.79935055 -5.72232056 2.03930664 C-3.71787507 0.10275978 -2.75705105 -0.00710262 0 0 Z " fill="#000202" transform="translate(715.125,1138.50390625)"/>
<path d="M0 0 C0.78117187 -0.020625 1.56234375 -0.04125 2.3671875 -0.0625 C8.08296223 -0.10164914 8.08296223 -0.10164914 10.35224915 1.37055969 C12.22773647 4.14004632 11.98456836 6.32553765 11.96557617 9.64916992 C11.96623329 10.61543053 11.96623329 10.61543053 11.96690369 11.60121155 C11.96481559 13.72794021 11.94148513 15.85387802 11.91796875 17.98046875 C11.91237283 19.45591298 11.90810271 20.93136278 11.90510559 22.40681458 C11.89365637 26.28839534 11.86418887 30.16963883 11.83099365 34.05108643 C11.80029424 38.01252683 11.78660055 41.97402178 11.77148438 45.93554688 C11.73931894 53.70718494 11.68812205 61.47854519 11.625 69.25 C12.285 69.25 12.945 69.25 13.625 69.25 C13.625 69.91 13.625 70.57 13.625 71.25 C14.54313477 71.22905273 15.46126953 71.20810547 16.40722656 71.18652344 C19.82155428 71.11825417 23.23515443 71.06815615 26.64990234 71.03027344 C28.1262559 71.01018699 29.60253019 70.98291199 31.07861328 70.94824219 C33.20364962 70.89958816 35.32763234 70.87700327 37.453125 70.859375 C39.3697998 70.8279541 39.3697998 70.8279541 41.32519531 70.79589844 C44.625 71.25 44.625 71.25 47.04882812 73.05859375 C49.32841149 76.22797731 49.01753536 78.65154536 48.875 82.5 C48.83890625 83.76328125 48.8028125 85.0265625 48.765625 86.328125 C48.71921875 87.29234375 48.6728125 88.2565625 48.625 89.25 C47.635 89.58 46.645 89.91 45.625 90.25 C45.625 90.91 45.625 91.57 45.625 92.25 C43.1963955 93.46430225 41.64501176 93.37688439 38.93164062 93.37939453 C37.47002502 93.38412277 37.47002502 93.38412277 35.97888184 93.38894653 C34.39605408 93.38591019 34.39605408 93.38591019 32.78125 93.3828125 C31.16120056 93.38424759 31.16120056 93.38424759 29.50842285 93.38571167 C27.22192324 93.38639304 24.93542169 93.38454178 22.64892578 93.38037109 C19.13960444 93.37502226 15.63041109 93.38031758 12.12109375 93.38671875 C9.90364555 93.38605796 7.68619743 93.38477678 5.46875 93.3828125 C4.41353149 93.38483673 3.35831299 93.38686096 2.27111816 93.38894653 C1.29670776 93.38579437 0.32229736 93.38264221 -0.68164062 93.37939453 C-1.54164673 93.37859894 -2.40165283 93.37780334 -3.28771973 93.37698364 C-5.375 93.25 -5.375 93.25 -7.375 92.25 C-7.375 91.59 -7.375 90.93 -7.375 90.25 C-8.035 90.25 -8.695 90.25 -9.375 90.25 C-9.39812228 78.66311598 -9.4159145 67.07623741 -9.42681217 55.48933506 C-9.43204125 50.10966238 -9.43913935 44.73000542 -9.45043945 39.3503418 C-9.46126745 34.16325157 -9.46727665 28.97617651 -9.46987724 23.78907585 C-9.47173165 21.8054372 -9.47535256 19.82179942 -9.48073006 17.83816719 C-9.48793932 15.06990864 -9.48899099 12.30171362 -9.48852539 9.53344727 C-9.49212067 8.70482681 -9.49571594 7.87620636 -9.49942017 7.0224762 C-9.48476978 -0.97309312 -7.25817536 0.04743905 0 0 Z " fill="#000202" transform="translate(491.375,1138.75)"/>
</svg>
