<?xml version="1.0" encoding="UTF-8"?>
<!-- Generator: visioncortex VTracer 0.6.1 -->
<svg version="1.1" xmlns="http://www.w3.org/2000/svg" width="905" height="1280">
<path d="M0 0 C0.82200654 0.00262701 1.64401309 0.00525403 2.49092892 0.00796065 C3.35990684 0.0068068 4.22888475 0.00565296 5.12419534 0.00446415 C8.07422713 0.00178972 11.02420576 0.00632639 13.97423485 0.01075396 C16.09524542 0.01031843 18.21625594 0.00944385 20.33726618 0.00816479 C26.19542257 0.00591632 32.05356086 0.00994591 37.91171494 0.01494285 C44.21782308 0.01924214 50.52393011 0.0178013 56.83003929 0.01704058 C67.76569134 0.01651501 78.70133659 0.0196305 89.636987 0.02527842 C101.11031874 0.03118889 112.58364811 0.03504304 124.05698135 0.03613123 C124.76949486 0.03619997 125.48200837 0.03626871 126.21611319 0.03633953 C129.83438731 0.03667785 133.45266144 0.03697924 137.07093557 0.03726641 C162.72078674 0.03936863 188.37063481 0.04611104 214.02048424 0.05556902 C238.94398667 0.06474859 263.86748826 0.07183459 288.79099205 0.07607684 C289.55880526 0.07620836 290.32661848 0.07633989 291.11769876 0.0764754 C298.82816669 0.07779388 306.53863463 0.0790697 314.24910258 0.08031426 C329.95719318 0.08285069 345.66528373 0.08567195 361.37337425 0.08866534 C362.45680028 0.08887127 362.45680028 0.08887127 363.5621137 0.08908137 C411.82159465 0.09828707 460.08107378 0.1141536 508.3405526 0.13100848 C508.5981234 0.74661639 508.8556942 1.3622243 509.12107018 1.99648699 C509.46806969 2.80529314 509.8150692 3.6140993 510.17258385 4.44741473 C510.51265465 5.24864764 510.85272545 6.04988055 511.20310143 6.87539324 C512.72543172 9.89424054 514.83544214 11.89672077 517.3405526 14.13100848 C518.77734094 17.00458515 518.39668723 19.49734268 518.3405526 22.69350848 C518.30295341 24.83901238 518.29385164 26.98568339 518.3405526 29.13100848 C518.6705526 29.46100848 519.0005526 29.79100848 519.3405526 30.13100848 C519.49946139 32.18095075 519.59194778 34.23610052 519.65695885 36.29116473 C519.69885338 37.56024676 519.74074791 38.82932879 519.78391197 40.13686785 C519.81327843 41.13689837 519.81327843 41.13689837 519.84323815 42.15713152 C519.90209588 44.16093721 519.9679463 46.16453357 520.03391197 48.16811785 C520.36860936 58.70311655 520.36860936 58.70311655 520.33664635 63.90835223 C520.33988391 66.57934305 520.50234579 68.61638805 521.3405526 71.13100848 C520.6805526 71.46100848 520.0205526 71.79100848 519.3405526 72.13100848 C519.18664162 85.82091662 519.6118667 99.48005128 520.08133629 113.16095194 C520.2187518 117.17364773 520.35229224 121.18645542 520.48459557 125.19932207 C520.83763262 135.88599471 521.19625352 146.57247787 521.55902222 157.2588245 C521.79790787 164.29597188 522.03378545 171.33320691 522.26442078 178.37062994 C522.37339664 181.69027031 522.48476552 185.00978594 522.59976891 188.32922587 C523.59711759 217.13058977 523.47997361 245.78467868 522.16190961 274.56932005 C521.99256468 278.29430232 521.83024695 282.01959283 521.66683128 285.74483904 C521.39314841 291.96003686 521.11429218 298.17498479 520.83200768 304.38979754 C520.50597824 311.56894689 520.18808321 318.74842299 519.8743566 325.92811975 C519.57000954 332.88982448 519.26053322 339.85129157 518.94852188 346.81265673 C518.81655904 349.75832274 518.68631794 352.70405737 518.55745819 355.64986071 C518.37857845 359.73204505 518.19215104 363.81384989 518.00485924 367.89565691 C517.95235008 369.11303545 517.89984093 370.33041399 517.84574059 371.58468279 C517.7679512 373.24026202 517.7679512 373.24026202 517.68859032 374.92928728 C517.64526605 375.89138991 517.60194178 376.85349253 517.55730465 377.84474978 C517.3405526 380.13100848 517.3405526 380.13100848 516.3405526 382.13100848 C516.14325301 384.55022715 516.00000861 386.94904385 515.89562157 389.37264666 C515.82120673 390.91014522 515.7467625 392.44764236 515.67229298 393.98513827 C515.61547566 395.20974536 515.61547566 395.20974536 515.55751052 396.45909199 C514.90943574 410.31759707 514.12875888 424.1622708 513.11960533 437.99917254 C513.06635822 438.73009222 513.0131111 439.4610119 512.95825043 440.21408066 C512.62685664 444.74429439 512.28919798 449.27402474 511.94947627 453.80362067 C511.70907211 457.0162498 511.47139858 460.22907892 511.23368344 463.44190797 C510.67434219 471.0016306 510.11107794 478.56105293 509.5448983 486.12026629 C508.96264604 493.89480387 508.38658316 501.66978323 507.81345531 509.44499835 C507.31629507 516.18737345 506.81586194 522.92949976 506.31266293 529.67142686 C506.0141138 533.6715006 505.71670413 537.67165005 505.42230728 541.67203173 C505.14784465 545.39915594 504.86928847 549.12595147 504.5874894 552.85252795 C504.4848377 554.21905838 504.38363754 555.58569872 504.2839711 556.95245013 C504.14820129 558.8111073 504.00673946 560.66934612 503.8649514 562.52755389 C503.74855387 564.08786019 503.74855387 564.08786019 503.62980488 565.67968783 C503.3405526 568.13100848 503.3405526 568.13100848 502.3405526 570.13100848 C502.04670917 572.80395988 501.80523019 575.46234469 501.60031822 578.14248309 C501.50007064 579.39243673 501.50007064 579.39243673 501.39779785 580.66764197 C501.1759314 583.45585253 500.96088559 586.24453381 500.7468026 589.03335223 C500.67186451 589.99722605 500.59692642 590.96109988 500.51971748 591.954182 C500.03209695 598.2295869 499.55595812 604.50580035 499.08645561 610.78258547 C498.92272951 612.97040481 498.75830765 615.1581722 498.59318474 617.34588656 C496.47961137 645.35948245 494.79121185 673.2144222 494.70481041 701.31182513 C494.63119388 721.23412273 493.09423544 740.73347965 490.4968026 760.48257098 C490.3957824 761.25213625 490.29476219 762.02170153 490.19068077 762.81458697 C489.46512831 768.00643276 489.46512831 768.00643276 488.3405526 769.13100848 C487.99874618 771.36297119 487.71968134 773.60455092 487.4643319 775.84804949 C487.34197544 776.91021512 487.34197544 776.91021512 487.21714714 777.99383864 C486.94473828 780.37366404 486.6793521 782.75420701 486.41477135 785.13491473 C486.22512172 786.82131859 486.03544943 788.50771991 485.84575585 790.19411883 C485.3361335 794.74789389 484.83528255 799.30259208 484.33783653 803.85771212 C484.13195522 805.74237244 483.92543658 807.62696324 483.71826866 809.51148257 C480.50156973 838.77689253 477.97219905 868.00589405 476.3940194 897.40469012 C476.32583504 898.66922015 476.25765068 899.93375018 476.18740013 901.2365993 C476.06393965 903.57957102 475.94577182 905.92283009 475.83391502 908.26638445 C475.78260933 909.28268938 475.73130364 910.29899432 475.67844322 911.34609637 C475.63675011 912.22826327 475.59505699 913.11043017 475.55210045 914.0193294 C475.3405526 916.13100848 475.3405526 916.13100848 474.3405526 918.13100848 C474.10131743 920.73368022 473.91733908 923.31855142 473.7714608 925.92690691 C473.72230931 926.74570015 473.67315783 927.56449339 473.6225169 928.40809855 C473.45736996 931.18526965 473.29910576 933.96278418 473.14133385 936.74038348 C473.02471412 938.74843752 472.90796034 940.75648378 472.7910836 942.76452288 C472.47091193 948.30301579 472.15864845 953.84192904 471.84894112 959.38101611 C471.65331829 962.87626122 471.45595296 966.37140496 471.2584298 969.86654314 C468.43207892 1020.07627337 466.30981684 1070.31342265 464.25778893 1120.55971941 C464.19586954 1122.07412183 464.13394938 1123.58852422 464.07202843 1125.10292658 C463.78352088 1132.1646519 463.49721783 1139.22645299 463.21540001 1146.28844866 C462.36447566 1167.48650849 462.36447566 1167.48650849 461.82810143 1177.31606707 C461.75771156 1178.60934924 461.6873217 1179.9026314 461.61479881 1181.23510394 C461.3405526 1184.13100848 461.3405526 1184.13100848 460.3405526 1186.13100848 C460.01832014 1188.79332687 459.74603351 1191.44300344 459.50852135 1194.11318621 C459.43195305 1194.93771288 459.35538475 1195.76223956 459.2764962 1196.61175188 C459.11048385 1198.40514547 458.94633844 1200.19871262 458.78382042 1201.99242625 C458.52673136 1204.82918098 458.2647416 1207.6654447 458.00144127 1210.5016292 C457.44332493 1216.52351317 456.89164474 1222.54597825 456.3405526 1228.56850848 C455.70201149 1235.54227574 455.06086464 1242.51578764 454.41394737 1249.48878321 C454.15564399 1252.28653423 453.90169569 1255.08465893 453.64792565 1257.88282427 C453.48968255 1259.59504713 453.33124578 1261.30725211 453.17258385 1263.01943621 C453.10294426 1263.80032107 453.03330467 1264.58120592 452.9615548 1265.38575396 C452.67215009 1268.46921218 452.32388917 1271.18099876 451.3405526 1274.13100848 C450.61734322 1274.10169741 449.89413384 1274.07238634 449.14900902 1274.04218706 C428.83697475 1273.2405437 408.55268999 1272.93173417 388.22592857 1272.94253191 C385.8688707 1272.94352285 383.51181926 1272.94251792 381.15476158 1272.94131121 C357.50416561 1272.93680391 333.93485097 1273.35387382 310.3405526 1275.13100848 C308.79987158 1271.6530471 308.03014245 1268.68797119 307.74289635 1264.90053973 C307.663619 1263.93309832 307.58434166 1262.96565691 307.50266197 1261.9688991 C307.42854088 1260.97052019 307.35441979 1259.97214129 307.2780526 1258.94350848 C307.12409839 1256.94973781 306.96671793 1254.95622781 306.80539635 1252.96303973 C306.73957359 1252.0836574 306.67375084 1251.20427508 306.60593346 1250.2982448 C306.45799885 1248.0865791 306.45799885 1248.0865791 305.3405526 1246.13100848 C305.08758793 1244.37345376 304.8855654 1242.60846573 304.70798424 1240.84170184 C304.59432518 1239.72198489 304.48066612 1238.60226794 304.36356285 1237.44862017 C304.24382103 1236.21845675 304.12407921 1234.98829333 304.00070885 1233.72085223 C303.8110656 1231.79747782 303.8110656 1231.79747782 303.61759117 1229.83524737 C300.47753158 1197.70806186 298.35756763 1165.72479249 297.57346275 1133.44448504 C297.23703709 1119.6230693 296.83147537 1105.80346151 296.43694237 1091.98360857 C296.40416663 1090.83530692 296.3713909 1089.68700526 296.33762196 1088.50390658 C296.27085869 1086.16514727 296.20404333 1083.82638944 296.13717678 1081.48763308 C295.94238534 1074.65388995 295.75312164 1067.82002451 295.56902722 1060.98598513 C294.95334139 1038.15606186 294.24971185 1015.33291711 293.3093026 992.51382098 C293.26825905 991.48533919 293.2272155 990.4568574 293.18492821 989.3972095 C293.06928361 986.52584874 292.94729957 983.65483689 292.82297447 980.78384051 C292.7722403 979.50450577 292.7722403 979.50450577 292.72048119 978.19932589 C292.62690876 974.03073975 292.62690876 974.03073975 291.3405526 970.13100848 C291.14073824 967.01949451 290.99836095 963.92462037 290.89499596 960.80947527 C290.85875964 959.83609367 290.82252333 958.86271206 290.78518894 957.85983405 C290.70583476 955.72797376 290.62829719 953.5960453 290.55231789 951.46406206 C290.34228095 945.63465493 290.11073689 939.80609611 289.8808358 933.97744402 C289.80836947 932.13321006 289.80836947 932.13321006 289.73443916 930.25171885 C288.25666359 892.83216982 286.76162004 855.5042331 282.1530526 818.31850848 C282.06567204 817.60864668 281.97829147 816.89878489 281.88826302 816.16741213 C279.80530287 799.28725627 279.80530287 799.28725627 276.81523827 782.55173907 C271.46664618 755.27579347 269.95692355 727.10721712 269.83493736 699.38330492 C269.80055359 691.77055147 269.70642358 684.15830624 269.61618736 676.54604754 C269.60259284 675.35852806 269.60259284 675.35852806 269.58872369 674.14701828 C269.37074446 655.49317951 268.81136151 636.85312744 268.1843026 618.20913348 C268.14399229 617.00706177 268.14399229 617.00706177 268.10286763 615.78070578 C267.77746079 606.09714299 267.44034746 596.41401161 267.0981544 586.73102912 C266.8627942 580.05447241 266.63635031 573.37763373 266.41184881 566.70070419 C266.16473338 559.35559038 265.91239377 552.0106657 265.65740135 544.6658214 C265.5505415 541.58616761 265.44540862 538.50646229 265.34169701 535.42670092 C265.22121243 531.8568738 265.09613477 528.28723729 264.96737412 524.71769938 C264.8988825 522.78893104 264.83496874 520.86000186 264.77117088 518.93107256 C264.72917061 517.79260378 264.68717034 516.654135 264.64389732 515.48116717 C264.59192066 513.99426567 264.59192066 513.99426567 264.53889397 512.47732577 C264.48466885 510.11067073 264.48466885 510.11067073 263.3405526 508.13100848 C263.16094829 506.14637206 263.04283588 504.15609101 262.95163658 502.1654323 C262.86166405 500.22358302 262.86166405 500.22358302 262.76987389 498.24250445 C262.70803161 496.77438162 262.64699034 495.3062249 262.58664635 493.83803973 C262.55444496 493.07036587 262.52224358 492.30269202 262.48906639 491.51175532 C262.23222779 485.32304477 262.00239383 479.13347105 261.7780526 472.94350848 C261.72624777 471.54399069 261.72624777 471.54399069 261.67339638 470.11619982 C260.53859 439.23082011 260.2129261 408.3656153 260.2155526 377.46303973 C260.21561267 376.13603041 260.21561267 376.13603041 260.21567395 374.78221282 C260.21837722 355.90272803 260.26244654 337.02346278 260.34229782 318.14415297 C260.36750421 312.12018645 260.38651577 306.09620376 260.40421072 300.07221094 C260.41673452 296.03159653 260.43353127 291.99109642 260.46074608 287.95055231 C260.66503939 267.69075304 260.66503939 267.69075304 259.58493736 247.47036394 C259.49290614 246.31961225 259.49290614 246.31961225 259.39901569 245.14561304 C258.82403222 239.8851973 257.15391734 236.49075793 254.3405526 232.13100848 C250.28393789 231.75457657 250.28393789 231.75457657 246.6530526 233.25600848 C243.15833179 238.24846678 241.9314714 242.43305541 241.65717247 248.50442156 C241.62396082 249.20179352 241.59074917 249.89916547 241.5565311 250.61766991 C241.23139561 258.12819953 241.2295723 265.64066246 241.27463463 273.1563991 C241.27978335 274.69236501 241.28441519 276.22833273 241.28858021 277.76430163 C241.29830931 281.05136957 241.31102678 284.33840651 241.32608917 287.62545428 C241.34983693 292.89926541 241.3646674 298.17307907 241.37764671 303.44692644 C241.37989343 304.34960033 241.38214014 305.25227421 241.38445494 306.18230185 C241.38904377 308.03132148 241.39360935 309.88034117 241.39815226 311.72936091 C241.40530936 314.56276363 241.41303729 317.39616426 241.42093876 320.22956499 C241.73541373 433.7162203 241.73541373 433.7162203 239.9030526 481.63100848 C239.8521938 482.98665408 239.8521938 482.98665408 239.80030754 484.36968645 C239.58285542 490.13469619 239.348827 495.89876008 239.09445885 501.66225848 C239.06389334 502.36648943 239.03332783 503.07072039 239.00183609 503.79629168 C238.91668471 505.70564975 238.82335688 507.6146382 238.72946861 509.5235866 C238.67839455 510.5697011 238.62732048 511.6158156 238.57469872 512.69363055 C238.3405526 515.13100848 238.3405526 515.13100848 237.3405526 517.13100848 C237.18999088 518.93032362 237.09957837 520.73479251 237.03720787 522.53931841 C236.9952076 523.69053683 236.95320732 524.84175524 236.90993431 526.02785906 C236.86834694 527.2993178 236.82675957 528.57077654 236.78391197 529.88076434 C236.7365078 531.23047362 236.68871256 532.58016922 236.64055565 533.92985186 C236.51005153 537.62405254 236.38557231 541.31843404 236.26244476 545.01288709 C236.15751163 548.14570708 236.04972006 551.27842621 235.94196966 554.41115037 C235.68497299 561.88525573 235.4328903 569.35951614 235.18381432 576.83388934 C234.96024423 583.5407841 234.73155603 590.24747685 234.49729088 596.95400652 C234.15597262 606.73019655 233.82271717 616.50663653 233.4968026 626.28335223 C233.45613387 627.49807526 233.45613387 627.49807526 233.41464356 628.73733816 C232.80225162 647.08342575 232.28079771 665.42396393 232.08469322 683.77969012 C232.07267152 684.90073547 232.07267152 684.90073547 232.06040695 686.0444282 C232.02141314 689.73215227 231.98402677 693.41989158 231.94699791 697.10763583 C231.71325934 720.16432256 231.11601155 742.83892004 227.8405526 765.69350848 C227.51296428 768.21325499 227.18878061 770.73344632 226.86789635 773.25405535 C226.29202846 777.68933124 225.70884939 782.12296006 225.08078697 786.55117449 C224.90211083 787.81357706 224.90211083 787.81357706 224.71982506 789.10148272 C224.3405526 791.13100848 224.3405526 791.13100848 223.3405526 793.13100848 C221.64562054 802.19001615 220.72198746 811.42347742 219.5905526 820.56850848 C219.50105717 821.28711172 219.41156174 822.00571497 219.31935433 822.74609408 C214.52423663 861.52852898 213.27743709 900.5313821 211.80051354 939.55263934 C211.75312381 940.80011383 211.70573408 942.04758833 211.6569083 943.33286509 C211.4326606 949.266293 211.21525493 955.19981719 211.01189354 961.1339992 C210.9736182 962.20337253 210.93534287 963.27274586 210.89590767 964.37452444 C210.82461077 966.36655674 210.75688575 968.35872127 210.69335487 970.35101637 C210.6614896 971.22153922 210.62962433 972.09206208 210.59679344 972.98896441 C210.57123407 973.74555189 210.54567469 974.50213936 210.51934078 975.28165373 C210.3405526 977.13100848 210.3405526 977.13100848 209.3405526 979.13100848 C209.13246668 981.94046035 208.98274283 984.73076551 208.87351158 987.54458269 C208.83583483 988.43394141 208.79815807 989.32330012 208.7593396 990.23960909 C208.63367543 993.26310495 208.5159586 996.28684581 208.39914635 999.31069598 C208.33551808 1000.90634701 208.33551808 1000.90634701 208.2706044 1002.53423342 C207.4787513 1022.48143537 206.9075428 1042.43340318 206.37570885 1062.38882098 C206.33539881 1063.89512567 206.29507869 1065.40143009 206.25474861 1066.90773425 C205.88284231 1080.81786463 205.51647108 1094.72813332 205.16599205 1108.63882098 C203.49328369 1174.85753934 203.49328369 1174.85753934 200.69415978 1204.38253435 C200.35755297 1207.95079307 200.04494756 1211.5201883 199.74216393 1215.09145769 C199.33544192 1219.85964208 198.90758468 1224.6252675 198.4601815 1229.38979754 C198.20238898 1232.14678827 197.95311594 1234.9044863 197.70383385 1237.66225848 C197.53895857 1239.44094973 197.37361659 1241.21959781 197.2077401 1242.99819598 C197.13481743 1243.81126208 197.06189476 1244.62432818 196.98676232 1245.46203265 C196.45529012 1251.01627095 196.45529012 1251.01627095 195.3405526 1252.13100848 C195.11341256 1253.76167614 194.94600174 1255.40076851 194.80539635 1257.04116473 C194.71838463 1258.03052019 194.63137291 1259.01987566 194.54172447 1260.0392116 C194.45471275 1261.08012957 194.36770104 1262.12104754 194.2780526 1263.19350848 C194.18717369 1264.23829363 194.09629479 1265.28307879 194.00266197 1266.3595241 C193.77794352 1268.94969998 193.55742949 1271.54016614 193.3405526 1274.13100848 C190.22110743 1275.17082353 188.4141184 1275.16857155 185.16648033 1274.98501238 C184.11206246 1274.92810229 183.05764458 1274.87119219 181.97127464 1274.81255755 C180.83372231 1274.74491198 179.69616997 1274.67726641 178.52414635 1274.60757098 C177.35674416 1274.54193957 176.18934197 1274.47630816 174.98656395 1274.40868792 C172.51756594 1274.26848893 170.04873083 1274.12539576 167.58005455 1273.97964129 C163.79033386 1273.75673086 160.00011468 1273.54475345 156.20969322 1273.33413348 C153.81447343 1273.19676495 151.41928972 1273.05876552 149.02414635 1272.92007098 C147.88456978 1272.85647387 146.74499321 1272.79287676 145.57088402 1272.72735247 C144.5196183 1272.66413805 143.46835259 1272.60092364 142.38523033 1272.53579363 C141.45718086 1272.48170336 140.52913139 1272.42761309 139.57295921 1272.37188372 C137.3405526 1272.13100848 137.3405526 1272.13100848 135.3405526 1271.13100848 C133.17432734 1271.03345564 131.0050661 1271.00023739 128.83664635 1270.99819598 C126.89048424 1270.99626238 126.89048424 1270.99626238 124.90500572 1270.99428973 C124.22832848 1270.99638445 123.55165123 1270.99847918 122.85446861 1271.00063738 C120.78269845 1271.00599646 118.71114421 1271.0006833 116.63938072 1270.99428973 C115.34322838 1270.99557879 114.04707604 1270.99686785 112.71164635 1270.99819598 C110.9161837 1270.99988787 110.9161837 1270.99988787 109.08444908 1271.00161394 C106.42884264 1270.81838054 106.42884264 1270.81838054 105.3405526 1272.13100848 C103.94215064 1272.28234772 102.53664542 1272.36893688 101.13132408 1272.42812762 C100.23626656 1272.46809359 99.34120903 1272.50805956 98.41902855 1272.54923663 C97.44309242 1272.5878229 96.4671563 1272.62640917 95.46164635 1272.66616473 C93.96070175 1272.73063044 93.96070175 1272.73063044 92.42943504 1272.79639849 C90.30346572 1272.88681006 88.1773975 1272.97492012 86.05124596 1273.06094012 C82.81607257 1273.19196862 79.58124649 1273.32977972 76.34641197 1273.4688991 C74.2806737 1273.55589074 72.21491892 1273.64249148 70.14914635 1273.72866473 C69.18737984 1273.76927523 68.22561333 1273.80988573 67.23470238 1273.85172686 C61.93128333 1274.06460904 56.64822606 1274.17115611 51.3405526 1274.13100848 C49.6988656 1268.94828492 48.86657476 1264.06346101 48.39499596 1258.65713152 C48.27992447 1257.43146723 48.27992447 1257.43146723 48.16252831 1256.18104205 C47.91241615 1253.50212722 47.67151249 1250.8224653 47.43039635 1248.14272723 C47.25698381 1246.27415772 47.08286529 1244.40565362 46.90807274 1242.5372127 C46.45080231 1237.63455363 46.0007895 1232.7312594 45.55301598 1227.82772478 C44.83426192 1219.96163576 44.1079391 1212.09626204 43.37500885 1204.23148188 C43.12047154 1201.48303372 42.8711719 1198.73414421 42.62227562 1195.98518023 C42.46729024 1194.30940575 42.31211381 1192.63364893 42.15671471 1190.95791277 C42.08864617 1190.1906386 42.02057762 1189.42336443 41.9504464 1188.63283953 C41.63452713 1184.75616774 41.63452713 1184.75616774 40.3405526 1181.13100848 C40.17625218 1179.22500788 40.07192817 1177.31373684 39.99492577 1175.40221819 C39.91754142 1173.56659524 39.91754142 1173.56659524 39.83859375 1171.69388899 C39.78555513 1170.3264143 39.73258078 1168.95893711 39.67966393 1167.59145769 C39.62058531 1166.15207666 39.56107707 1164.7127132 39.50117233 1163.2733663 C39.37194134 1160.14896921 39.24550004 1157.02447568 39.12112167 1153.89988169 C38.92082615 1148.87315865 38.71352497 1143.84673964 38.50493553 1138.82035479 C38.24522108 1132.55378023 37.98659927 1126.28716312 37.72968981 1120.02047291 C36.92635477 1100.43015245 36.1012922 1080.84076531 35.25852135 1061.25210223 C35.21865797 1060.32537652 35.1787946 1059.39865081 35.13772324 1058.4438425 C33.71441065 1025.40871024 32.09390738 992.39082807 30.15957955 959.38129076 C29.96533345 956.06476676 29.77303439 952.74813378 29.58093956 949.43148455 C29.2843264 944.32896464 28.98167391 939.22684445 28.67274216 934.12505564 C28.56216768 932.29721799 28.45268153 930.46931413 28.34437683 928.64134058 C28.19873543 926.20000742 28.04730529 923.75911234 27.89377525 921.31826434 C27.83148342 920.25388801 27.83148342 920.25388801 27.76793316 919.16800913 C27.55963623 915.52728645 27.55963623 915.52728645 26.3405526 912.13100848 C26.20148529 910.78139302 26.11753001 909.42587137 26.06272057 908.07021746 C26.0250457 907.21658114 25.98737084 906.36294482 25.94855431 905.48344073 C25.91033562 904.54084902 25.87211693 903.59825732 25.8327401 902.62710223 C25.73705018 900.55461269 25.63997294 898.48218689 25.54172447 896.40981707 C25.48943688 895.29854449 25.43714928 894.1872719 25.38327721 893.04232439 C24.28339651 870.26222621 22.35662785 847.6660362 19.8405526 825.00600848 C19.76545212 824.32891203 19.69035164 823.65181559 19.61297539 822.95420107 C18.82145895 815.83134447 18.01292769 808.71051044 17.1921151 801.59096941 C16.60492557 796.48682112 16.03885382 791.38091384 15.4889901 786.27261004 C15.35335655 785.01965136 15.21772301 783.76669268 15.07797936 782.47576556 C14.82124357 780.09578506 14.56744105 777.71548576 14.31699303 775.33483538 C14.20295128 774.28288988 14.08890953 773.23094439 13.97141197 772.14712176 C13.87324181 771.22295458 13.77507164 770.29878741 13.67392662 769.34661517 C13.45210186 767.09647994 13.45210186 767.09647994 12.3405526 765.13100848 C8.52657827 741.05780475 7.04037021 716.91271262 6.9655526 692.56850848 C6.87362158 664.96861515 4.96294958 637.57820472 2.8405526 610.06850848 C2.67705812 607.93169986 2.5135855 605.79488956 2.35013512 603.65807757 C1.88771575 597.63656776 1.41336223 591.61605826 0.9343026 585.59585223 C0.86100605 584.6632004 0.7877095 583.73054858 0.71219185 582.76963457 C0.50627464 580.16565991 0.29457928 577.56222777 0.08078697 574.95888934 C0.02049624 574.1890191 -0.0397945 573.41914887 -0.10191223 572.62594923 C-0.37728897 568.75198152 -0.37728897 568.75198152 -1.6594474 565.13100848 C-1.87945869 563.24485001 -2.0443724 561.35217305 -2.18384621 559.45835528 C-2.27488624 558.24984408 -2.36592628 557.04133288 -2.45972511 555.79620013 C-2.55690154 554.4485805 -2.65399022 553.10095455 -2.75100014 551.75332293 C-2.8559234 550.33846624 -2.96120772 548.92363629 -3.06682655 547.50883135 C-3.3539461 543.64723691 -3.63564877 539.78526447 -3.91619822 535.92318782 C-4.21300457 531.84661901 -4.51396335 527.77035633 -4.81424782 523.69404253 C-5.32080462 516.80809981 -5.82376251 509.9219009 -6.3247306 503.03554949 C-6.83368009 496.0401285 -7.34661208 489.04501517 -7.8637931 482.05019793 C-13.09202938 411.32837797 -13.09202938 411.32837797 -14.14392921 386.2358211 C-14.1743701 385.53395237 -14.20481098 384.83208365 -14.23617432 384.10894617 C-14.31260946 382.30991948 -14.38197492 380.51059598 -14.45060036 378.71125445 C-14.49656478 376.14544357 -14.49656478 376.14544357 -15.6594474 374.13100848 C-15.82381768 372.33968404 -15.92943987 370.54284955 -16.00748512 368.74569353 C-16.05934471 367.60202319 -16.1112043 366.45835284 -16.16463539 365.28002581 C-16.21714455 364.01880907 -16.2696537 362.75759234 -16.32375404 361.45815691 C-16.38263128 360.12097163 -16.4419008 358.78380356 -16.50153419 357.44665179 C-16.66271024 353.80562483 -16.81814236 350.16437291 -16.97241589 346.52304778 C-17.13499883 342.70443648 -17.30226694 338.88603011 -17.46888039 335.06759295 C-17.74854053 328.64159937 -18.02456029 322.21545724 -18.29836342 315.7892116 C-18.61365827 308.38999441 -18.93424523 300.99102167 -19.2578409 293.59216318 C-19.56986377 286.45574167 -19.87840549 279.3191738 -20.18529388 272.18252978 C-20.31542027 269.15735174 -20.44666592 266.13222546 -20.57883713 263.1071361 C-20.73514879 259.5253167 -20.88835624 255.94337659 -21.03933212 252.36132845 C-21.12083838 250.44357847 -21.20524433 248.52595239 -21.28978798 246.60833392 C-21.85170302 233.11602616 -21.64587062 219.68329573 -21.16872475 206.19302019 C-21.11598657 204.65067482 -21.06348823 203.10832123 -21.01120827 201.56596026 C-20.89940081 198.2763625 -20.78632427 194.98681178 -20.67233726 191.69728884 C-20.49247797 186.49483573 -20.31801824 181.29220998 -20.14470741 176.08953509 C-20.08509125 174.30163792 -20.02547324 172.51374081 -19.96585342 170.72584376 C-19.93603543 169.83148686 -19.90621745 168.93712996 -19.87549588 168.01567134 C-19.47199086 155.92399981 -19.06425141 143.83248949 -18.64479896 131.74136004 C-18.3607869 123.55321096 -18.08428797 115.36484583 -17.81643519 107.17615172 C-17.67464857 102.85113914 -17.52894491 98.52633657 -17.3739669 94.20177492 C-17.22864205 90.14556716 -17.09313954 86.08915194 -16.96523926 82.0323585 C-16.91653733 80.54389677 -16.86417843 79.05554956 -16.80791351 77.56735453 C-16.73171943 75.53796287 -16.66986111 73.508048 -16.6087577 71.47814593 C-16.55068475 69.77429389 -16.55068475 69.77429389 -16.4914386 68.03602061 C-16.66213505 65.08453679 -17.28088721 63.6767461 -18.6594474 61.13100848 C-18.69497143 58.1854743 -18.61315833 55.37350281 -18.4094474 52.44350848 C-18.35353432 51.5808034 -18.29762123 50.71809832 -18.24001381 49.82925066 C-18.11555401 47.94533647 -17.98660558 46.06171484 -17.85378334 44.17837176 C-17.64880893 40.96418756 -17.51478968 37.75143663 -17.3860099 34.53335223 C-17.27032689 32.31582531 -17.1531617 30.09837518 -17.0344474 27.88100848 C-17.00189857 26.83469256 -16.96934975 25.78837664 -16.93581459 24.71035418 C-16.51636596 18.03090358 -15.16440614 14.5000097 -10.2766349 9.85244402 C-7.78165206 7.1966282 -7.37711945 4.6476015 -6.6594474 1.13100848 C-4.85816951 -0.67026942 -2.39824401 0.00729281 0 0 Z M518.3405526 54.13100848 C519.3405526 57.13100848 519.3405526 57.13100848 519.3405526 57.13100848 Z M516.3405526 69.13100848 C517.3405526 71.13100848 517.3405526 71.13100848 517.3405526 71.13100848 Z " fill="#000202" transform="translate(200.659447401762,1.8689915239810944)"/>
<path d="M0 0 C6.83024454 0.63714747 13.61797053 0.86873669 20.4765625 0.9609375 C22.03834732 0.9855455 22.03834732 0.9855455 23.63168335 1.01065063 C27.96035251 1.07801506 32.28903825 1.13961979 36.61791992 1.19165039 C73.69966038 1.65666884 73.69966038 1.65666884 83.78515625 9.71484375 C86.02852989 13.97282596 85.78515625 17.99435599 85.78515625 22.71484375 C84.17072165 23.69087075 82.54281632 24.6446195 80.91015625 25.58984375 C79.55277344 26.39035156 79.55277344 26.39035156 78.16796875 27.20703125 C69.94546747 30.87202605 60.6445548 31.29585118 51.78515625 32.27734375 C49.55560525 32.52521287 47.32641371 32.77634421 45.09765625 33.03125 C44.12441406 33.13896729 43.15117188 33.24668457 42.1484375 33.35766602 C39.77296116 33.59238743 39.77296116 33.59238743 37.78515625 34.71484375 C28.84246708 36.14809642 19.65856788 35.86869539 10.62939453 35.84521484 C8.13047428 35.83977919 5.63172783 35.84522873 3.1328125 35.8515625 C1.54557252 35.85090297 -0.04166735 35.84962442 -1.62890625 35.84765625 C-2.37669342 35.84968048 -3.12448059 35.85170471 -3.89492798 35.85379028 C-9.09984281 35.82984469 -9.09984281 35.82984469 -10.21484375 34.71484375 C-10.48142028 30.19149958 -10.48609437 25.66258431 -10.51000977 21.13232422 C-10.52722285 18.85583276 -10.57109321 16.58079364 -10.61523438 14.3046875 C-10.62536106 12.86068779 -10.63387725 11.4166757 -10.640625 9.97265625 C-10.65520752 8.65410645 -10.66979004 7.33555664 -10.68481445 5.97705078 C-10.21484375 2.71484375 -10.21484375 2.71484375 -8.57666016 0.7434082 C-5.43846751 -0.62326594 -3.40428743 -0.37451309 0 0 Z " fill="#F8FBFA" transform="translate(576.21484375,21.28515625)"/>
<path d="M0 0 C0.33 1.32 0.66 2.64 1 4 C1.74946396 3.99777939 2.49892792 3.99555878 3.27110291 3.99327087 C10.31982291 3.97326821 17.36853315 3.958026 24.41727352 3.94818783 C28.0414596 3.94295998 31.6656223 3.93586413 35.28979492 3.92456055 C38.78459975 3.91372816 42.27938204 3.90772242 45.77420235 3.90512276 C47.76239389 3.90236449 49.75057631 3.89455312 51.73875427 3.88670349 C52.93992386 3.88662796 54.14109344 3.88655243 55.37866211 3.88647461 C56.97417152 3.88314369 56.97417152 3.88314369 58.60191345 3.87974548 C61 4 61 4 62 5 C63.71083895 15.49736987 63.58637363 26.6931486 62.49169922 37.25561523 C62.40008514 38.14683578 62.30847107 39.03805634 62.21408081 39.95628357 C62.14343414 40.63070999 62.07278748 41.30513641 62 42 C61.25053604 42.01030746 60.50107208 42.02061493 59.72889709 42.03123474 C52.68009546 42.12904525 45.63138126 42.23153576 38.58272648 42.33933926 C34.9585842 42.39460097 31.3344339 42.448026 27.71020508 42.49731445 C24.21532901 42.54491032 20.7205538 42.5972511 17.22579765 42.65294075 C15.23766177 42.68336413 13.24945191 42.70881982 11.26124573 42.73423767 C9.45949135 42.7641555 9.45949135 42.7641555 7.62133789 42.79467773 C6.55766495 42.81022202 5.493992 42.8257663 4.39808655 42.84178162 C2.04804072 42.73228552 2.04804072 42.73228552 1 44 C0.75266863 48.14276875 0.75266863 48.14276875 2 52 C0.53760185 51.79839367 -0.92011565 51.56262996 -2.375 51.3125 C-3.18710937 51.18488281 -3.99921875 51.05726562 -4.8359375 50.92578125 C-7 50 -7 50 -8.10717773 47.75195312 C-8.98201218 45.05544401 -9.32162935 42.86435394 -9.44921875 40.04296875 C-9.49328857 39.10251709 -9.5373584 38.16206543 -9.58276367 37.19311523 C-9.61732666 36.20126221 -9.65188965 35.20940918 -9.6875 34.1875 C-9.72657471 33.16664307 -9.76564941 32.14578613 -9.8059082 31.09399414 C-10.53232489 8.58214674 -10.53232489 8.58214674 -7 0 C-4.3333581 -1.33332095 -2.83319697 -0.67102033 0 0 Z " fill="#F8FBFA" transform="translate(351,15)"/>
<path d="M0 0 C1.2065625 0.0309375 1.2065625 0.0309375 2.4375 0.0625 C4.86089788 4.34259472 5.81460394 7.40636364 5.80078125 12.31640625 C5.79981445 14.0943457 5.79981445 14.0943457 5.79882812 15.90820312 C5.78271484 17.13474609 5.76660156 18.36128906 5.75 19.625 C5.75322266 20.82447266 5.75644531 22.02394531 5.75976562 23.25976562 C5.63148921 44.86851079 5.63148921 44.86851079 2.4375 48.0625 C-1.0625 48.1875 -1.0625 48.1875 -4.5625 48.0625 C-6.53072886 46.09427114 -6.22498381 42.71441291 -6.5625 40.0625 C-7.31196396 40.05219254 -8.06142792 40.04188507 -8.83360291 40.03126526 C-15.88240454 39.93345475 -22.93111874 39.83096424 -29.97977352 39.72316074 C-33.6039158 39.66789903 -37.2280661 39.614474 -40.85229492 39.56518555 C-44.34717099 39.51758968 -47.8419462 39.4652489 -51.33670235 39.40955925 C-53.32483823 39.37913587 -55.31304809 39.35368018 -57.30125427 39.32826233 C-58.50242386 39.30831711 -59.70359344 39.28837189 -60.94116211 39.26782227 C-62.53667152 39.24450584 -62.53667152 39.24450584 -64.16441345 39.22071838 C-66.5625 39.0625 -66.5625 39.0625 -67.5625 38.0625 C-69.27232726 26.81141442 -69.50084058 14.29024639 -67.5625 3.0625 C-64.8747147 0.3747147 -62.81660829 0.82408859 -59.16462708 0.81025696 C-58.28143295 0.81744247 -57.39823883 0.82462799 -56.48828125 0.83203125 C-55.11424385 0.83271858 -55.11424385 0.83271858 -53.71244812 0.8334198 C-51.76295689 0.83644775 -49.8134682 0.84435012 -47.86401367 0.85668945 C-44.93203782 0.87465059 -42.00038384 0.87720103 -39.06835938 0.87695312 C-8.69147068 0.93352932 -8.69147068 0.93352932 -6.5625 3.0625 C-6.23898699 5.90222535 -6.0494571 8.74323737 -5.84375 11.59375 C-5.82864735 14.0038605 -5.82864735 14.0038605 -4.5625 15.0625 C-4.50191406 14.06347656 -4.44132813 13.06445312 -4.37890625 12.03515625 C-4.25322266 10.09962891 -4.25322266 10.09962891 -4.125 8.125 C-4.00318359 6.19333984 -4.00318359 6.19333984 -3.87890625 4.22265625 C-3.4645793 0.08450193 -3.4645793 0.08450193 0 0 Z " fill="#F8FBFA" transform="translate(557.5625,17.9375)"/>
<path d="M0 0 C1 1 1 1 1.11352539 4.41821289 C1.11336628 5.93636988 1.10767226 7.45453229 1.09765625 8.97265625 C1.0962413 9.77029892 1.09482635 10.56794159 1.09336853 11.38975525 C1.08775316 13.94737435 1.07519812 16.50490718 1.0625 19.0625 C1.05748698 20.79231645 1.05292373 22.52213426 1.04882812 24.25195312 C1.03777875 28.50133553 1.02050386 32.75065312 1 37 C-5.60358176 37.2857319 -11.92927793 36.69928371 -18.47346497 35.81799316 C-23.77968118 35.11816969 -29.08111575 34.61894121 -34.41796875 34.21875 C-35.21751984 34.15856689 -36.01707092 34.09838379 -36.84085083 34.03637695 C-40.11449357 33.79350554 -43.38858625 33.55720598 -46.6628418 33.32275391 C-75.55102739 31.23665484 -75.55102739 31.23665484 -82.125 26.5625 C-82.99382812 25.96566406 -83.86265625 25.36882813 -84.7578125 24.75390625 C-86.67765935 23.25214451 -88.42654667 21.85953575 -90 20 C-90.15307967 17.16802618 -89.54587424 15.64376658 -87.71484375 13.484375 C-80.59033394 6.81462114 -71.58797191 4.49650447 -62.125 3.375 C-61.19300781 3.25729248 -60.26101563 3.13958496 -59.30078125 3.01831055 C-39.6881148 0.66151323 -19.7588827 -0.84540493 0 0 Z " fill="#F8FBFA" transform="translate(336,20)"/>
<path d="M0 0 C-0.99 0.495 -0.99 0.495 -2 1 C-2.0505963 7.37203593 -2.08568957 13.7440203 -2.10986328 20.11621094 C-2.11993789 22.28517594 -2.13359798 24.45412731 -2.15087891 26.62304688 C-2.17506323 29.73571126 -2.18646832 32.84819651 -2.1953125 35.9609375 C-2.20563507 36.934935 -2.21595764 37.9089325 -2.22659302 38.91244507 C-2.22674408 39.81322784 -2.22689514 40.71401062 -2.22705078 41.64208984 C-2.231492 42.43706879 -2.23593323 43.23204773 -2.24050903 44.05111694 C-2.17368303 46.23643491 -2.17368303 46.23643491 0 48 C-3.37462715 47.45276317 -5.08235 46.9451 -8 45 C-10.97477656 32.69214582 -10.1727264 15.44379665 -8 3 C-5.51687292 -0.1321262 -3.94665369 -0.31999895 0 0 Z " fill="#F8FBFA" transform="translate(245,17)"/>
<path d="M0 0 C1.32 0 2.64 0 4 0 C6.28700369 8.90921118 6.40562919 17.62795686 6.42553711 26.77001953 C6.43757147 29.39056263 6.48699631 32.00884847 6.53710938 34.62890625 C6.54656088 36.30207196 6.55380198 37.97525195 6.55859375 39.6484375 C6.57812607 40.42762543 6.59765839 41.20681335 6.61778259 42.00961304 C6.58491699 45.94744061 6.35720324 47.62618686 3.59008789 50.52197266 C1 52 1 52 -1 52 C-0.67 51.01 -0.34 50.02 0 49 C-0.11388245 46.15293879 -0.27728903 43.3383802 -0.5 40.5 C-1.13513514 32.40540541 -1.13513514 32.40540541 0 29 C0.08358958 26.78910055 0.10731764 24.57573922 0.09765625 22.36328125 C0.09443359 21.06455078 0.09121094 19.76582031 0.08789062 18.42773438 C0.07953531 17.05598892 0.07107037 15.68424413 0.0625 14.3125 C0.05748335 12.92903805 0.05292073 11.54557437 0.04882812 10.16210938 C0.03702529 6.77469605 0.02056019 3.38736967 0 0 Z " fill="#F8FBFA" transform="translate(663,13)"/>
<path d="M0 0 C3.13047794 0.93068263 4.69244678 1.58120412 6.65234375 4.25 C8.13094459 7.26720287 8.34422447 8.98166513 8.25 12.3125 C8.22421875 13.34503906 8.1984375 14.37757812 8.171875 15.44140625 C7.85671717 21.96660596 7.4630886 28.48368183 7 35 C6.67 35 6.34 35 6 35 C6 32.69 6 30.38 6 28 C5.34 28 4.68 28 4 28 C3.9498877 27.34926514 3.89977539 26.69853027 3.84814453 26.02807617 C3.61607955 23.08042989 3.37069779 20.13403991 3.125 17.1875 C3.04636719 16.16333984 2.96773437 15.13917969 2.88671875 14.08398438 C2.80292969 13.10107422 2.71914063 12.11816406 2.6328125 11.10546875 C2.52283936 9.74651489 2.52283936 9.74651489 2.41064453 8.36010742 C2.11846039 5.74017473 2.11846039 5.74017473 0 3 C0 2.01 0 1.02 0 0 Z " fill="#CACDCC" transform="translate(711,11)"/>
<path d="M0 0 C3.58849648 3.58849648 3.89633555 9.34979588 4.08984375 14.296875 C4.06482911 16.19798798 4.03277578 18.09900499 4 20 C4.41731018 22.35529281 4.41731018 22.35529281 5 24 C4.01 24.33 3.02 24.66 2 25 C0.16930097 21.87070822 -0.23931181 19.62356854 -0.1953125 16.015625 C-0.18886719 15.08105469 -0.18242188 14.14648438 -0.17578125 13.18359375 C-0.15902344 12.21550781 -0.14226563 11.24742188 -0.125 10.25 C-0.11597656 9.26644531 -0.10695313 8.28289063 -0.09765625 7.26953125 C-0.07412785 4.84610593 -0.04125368 2.42317778 0 0 Z " fill="#E8EBEA" transform="translate(717,49)"/>
<path d="M0 0 C0.33 0 0.66 0 1 0 C1 11.22 1 22.44 1 34 C0.67 34 0.34 34 0 34 C0 22.78 0 11.56 0 0 Z " fill="#F8FBFA" transform="translate(406,1100)"/>
<path d="M0 0 C0.33 0 0.66 0 1 0 C1 11.22 1 22.44 1 34 C0.67 34 0.34 34 0 34 C0 22.78 0 11.56 0 0 Z " fill="#F8FBFA" transform="translate(407,1065)"/>
<path d="M0 0 C0.33 0 0.66 0 1 0 C1 11.22 1 22.44 1 34 C0.67 34 0.34 34 0 34 C0 22.78 0 11.56 0 0 Z " fill="#F8FBFA" transform="translate(408,1030)"/>
<path d="M0 0 C9.57 0 19.14 0 29 0 C29 0.33 29 0.66 29 1 C19.43 1 9.86 1 0 1 C0 0.67 0 0.34 0 0 Z " fill="#F8FBFA" transform="translate(307,1273)"/>
<path d="M0 0 C0.33 0 0.66 0 1 0 C1 9.57 1 19.14 1 29 C0.67 29 0.34 29 0 29 C0 19.43 0 9.86 0 0 Z " fill="#F8FBFA" transform="translate(434,637)"/>
<path d="M0 0 C0.33 0 0.66 0 1 0 C1 9.57 1 19.14 1 29 C0.67 29 0.34 29 0 29 C0 19.43 0 9.86 0 0 Z " fill="#F8FBFA" transform="translate(436,578)"/>
<path d="M0 0 C0.33 0 0.66 0 1 0 C1 9.57 1 19.14 1 29 C0.67 29 0.34 29 0 29 C0 19.43 0 9.86 0 0 Z " fill="#F8FBFA" transform="translate(437,548)"/>
<path d="M0 0 C0.33 0 0.66 0 1 0 C1 9.24 1 18.48 1 28 C0.67 28 0.34 28 0 28 C0 18.76 0 9.52 0 0 Z " fill="#F8FBFA" transform="translate(435,608)"/>
<path d="M0 0 C0.33 0 0.66 0 1 0 C1 9.24 1 18.48 1 28 C0.67 28 0.34 28 0 28 C0 18.76 0 9.52 0 0 Z " fill="#F8FBFA" transform="translate(438,519)"/>
<path d="M0 0 C0.33 0 0.66 0 1 0 C1 8.25 1 16.5 1 25 C0.67 25 0.34 25 0 25 C0 16.75 0 8.5 0 0 Z " fill="#F8FBFA" transform="translate(409,1004)"/>
<path d="M0 0 C0.33 0 0.66 0 1 0 C1 7.26 1 14.52 1 22 C0.67 22 0.34 22 0 22 C0 14.74 0 7.48 0 0 Z " fill="#F8FBFA" transform="translate(410,981)"/>
<path d="M0 0 C0.33 0 0.66 0 1 0 C1 7.26 1 14.52 1 22 C0.67 22 0.34 22 0 22 C0 14.74 0 7.48 0 0 Z " fill="#F8FBFA" transform="translate(717,384)"/>
<path d="M0 0 C0.33 0 0.66 0 1 0 C1 5.61 1 11.22 1 17 C0.67 17 0.34 17 0 17 C0 11.39 0 5.78 0 0 Z " fill="#F8FBFA" transform="translate(671,990)"/>
<path d="M0 0 C0.33 0 0.66 0 1 0 C1 5.61 1 11.22 1 17 C0.67 17 0.34 17 0 17 C0 11.39 0 5.78 0 0 Z " fill="#F8FBFA" transform="translate(675,920)"/>
<path d="M0 0 C0.33 0 0.66 0 1 0 C1 5.28 1 10.56 1 16 C0.67 16 0.34 16 0 16 C0 10.72 0 5.44 0 0 Z " fill="#F8FBFA" transform="translate(672,973)"/>
<path d="M0 0 C0.33 0 0.66 0 1 0 C1 5.28 1 10.56 1 16 C0.67 16 0.34 16 0 16 C0 10.72 0 5.44 0 0 Z " fill="#F8FBFA" transform="translate(673,956)"/>
<path d="M0 0 C0.33 0 0.66 0 1 0 C1 5.28 1 10.56 1 16 C0.67 16 0.34 16 0 16 C0 10.72 0 5.44 0 0 Z " fill="#F8FBFA" transform="translate(674,938)"/>
<path d="M0 0 C0.33 0 0.66 0 1 0 C1 4.62 1 9.24 1 14 C0.67 14 0.34 14 0 14 C0 9.38 0 4.76 0 0 Z " fill="#F8FBFA" transform="translate(716,407)"/>
<path d="M0 0 C0.33 0 0.66 0 1 0 C1 4.29 1 8.58 1 13 C0.67 13 0.34 13 0 13 C0 8.71 0 4.42 0 0 Z " fill="#F8FBFA" transform="translate(702,586)"/>
<path d="M0 0 C0.33 0 0.66 0 1 0 C1 4.29 1 8.58 1 13 C0.67 13 0.34 13 0 13 C0 8.71 0 4.42 0 0 Z " fill="#F8FBFA" transform="translate(703,572)"/>
<path d="M0 0 C0.33 0 0.66 0 1 0 C1 4.29 1 8.58 1 13 C0.67 13 0.34 13 0 13 C0 8.71 0 4.42 0 0 Z " fill="#F8FBFA" transform="translate(715,422)"/>
<path d="M0 0 C0.33 0 0.66 0 1 0 C1 3.96 1 7.92 1 12 C0.67 12 0.34 12 0 12 C0 8.04 0 4.08 0 0 Z " fill="#F8FBFA" transform="translate(699,627)"/>
<path d="M0 0 C0.33 0 0.66 0 1 0 C1 3.96 1 7.92 1 12 C0.67 12 0.34 12 0 12 C0 8.04 0 4.08 0 0 Z " fill="#F8FBFA" transform="translate(700,613)"/>
<path d="M0 0 C0.33 0 0.66 0 1 0 C1 3.96 1 7.92 1 12 C0.67 12 0.34 12 0 12 C0 8.04 0 4.08 0 0 Z " fill="#F8FBFA" transform="translate(713,449)"/>
<path d="M0 0 C0.33 0 0.66 0 1 0 C1 3.63 1 7.26 1 11 C0.67 11 0.34 11 0 11 C0 7.37 0 3.74 0 0 Z " fill="#F8FBFA" transform="translate(701,600)"/>
<path d="M0 0 C0.33 0 0.66 0 1 0 C1 3.63 1 7.26 1 11 C0.67 11 0.34 11 0 11 C0 7.37 0 3.74 0 0 Z " fill="#F8FBFA" transform="translate(714,436)"/>
<path d="M0 0 C0.33 0 0.66 0 1 0 C1 3.3 1 6.6 1 10 C0.67 10 0.34 10 0 10 C0 6.7 0 3.4 0 0 Z " fill="#F8FBFA" transform="translate(395,1265)"/>
<path d="M0 0 C0.33 0 0.66 0 1 0 C1 3.3 1 6.6 1 10 C0.67 10 0.34 10 0 10 C0 6.7 0 3.4 0 0 Z " fill="#F8FBFA" transform="translate(396,1254)"/>
<path d="M0 0 C0.33 0 0.66 0 1 0 C1 3.3 1 6.6 1 10 C0.67 10 0.34 10 0 10 C0 6.7 0 3.4 0 0 Z " fill="#F8FBFA" transform="translate(657,1230)"/>
<path d="M0 0 C0.33 0 0.66 0 1 0 C1 3.3 1 6.6 1 10 C0.67 10 0.34 10 0 10 C0 6.7 0 3.4 0 0 Z " fill="#F8FBFA" transform="translate(659,1209)"/>
<path d="M0 0 C0.33 0 0.66 0 1 0 C1 3.3 1 6.6 1 10 C0.67 10 0.34 10 0 10 C0 6.7 0 3.4 0 0 Z " fill="#F8FBFA" transform="translate(660,1198)"/>
<path d="M0 0 C0.33 0 0.66 0 1 0 C1 2.97 1 5.94 1 9 C0.67 9 0.34 9 0 9 C0 6.03 0 3.06 0 0 Z " fill="#F8FBFA" transform="translate(658,1220)"/>
<path d="M0 0 C0.33 0 0.66 0 1 0 C1 2.97 1 5.94 1 9 C0.67 9 0.34 9 0 9 C0 6.03 0 3.06 0 0 Z " fill="#F8FBFA" transform="translate(661,1188)"/>
<path d="M0 0 C0.33 0 0.66 0 1 0 C1 2.97 1 5.94 1 9 C0.67 9 0.34 9 0 9 C0 6.03 0 3.06 0 0 Z " fill="#F8FBFA" transform="translate(689,771)"/>
<path d="M0 0 C0.33 0 0.66 0 1 0 C1 2.64 1 5.28 1 8 C0.67 8 0.34 8 0 8 C0 5.36 0 2.72 0 0 Z " fill="#F8FBFA" transform="translate(685,808)"/>
<path d="M0 0 C0.33 0 0.66 0 1 0 C1 2.64 1 5.28 1 8 C0.67 8 0.34 8 0 8 C0 5.36 0 2.72 0 0 Z " fill="#F8FBFA" transform="translate(687,790)"/>
<path d="M0 0 C0.33 0 0.66 0 1 0 C1 2.31 1 4.62 1 7 C0.67 7 0.34 7 0 7 C0 4.69 0 2.38 0 0 Z " fill="#F8FBFA" transform="translate(420,829)"/>
<path d="M0 0 C0.33 0 0.66 0 1 0 C1 2.31 1 4.62 1 7 C0.67 7 0.34 7 0 7 C0 4.69 0 2.38 0 0 Z " fill="#F8FBFA" transform="translate(421,821)"/>
<path d="M0 0 C0.33 0 0.66 0 1 0 C1 2.31 1 4.62 1 7 C0.67 7 0.34 7 0 7 C0 4.69 0 2.38 0 0 Z " fill="#F8FBFA" transform="translate(422,812)"/>
<path d="M0 0 C0.33 0 0.66 0 1 0 C1 2.31 1 4.62 1 7 C0.67 7 0.34 7 0 7 C0 4.69 0 2.38 0 0 Z " fill="#F8FBFA" transform="translate(423,804)"/>
<path d="M0 0 C0.33 0 0.66 0 1 0 C1 2.31 1 4.62 1 7 C0.67 7 0.34 7 0 7 C0 4.69 0 2.38 0 0 Z " fill="#F8FBFA" transform="translate(686,799)"/>
<path d="M0 0 C0.33 0 0.66 0 1 0 C1 2.31 1 4.62 1 7 C0.67 7 0.34 7 0 7 C0 4.69 0 2.38 0 0 Z " fill="#F8FBFA" transform="translate(424,795)"/>
<path d="M0 0 C0.33 0 0.66 0 1 0 C1 2.31 1 4.62 1 7 C0.67 7 0.34 7 0 7 C0 4.69 0 2.38 0 0 Z " fill="#F8FBFA" transform="translate(688,781)"/>
<path d="" fill="#F8FBFA" transform="translate(0,0)"/>
<path d="" fill="#F8FBFA" transform="translate(0,0)"/>
</svg>
