<?xml version="1.0" encoding="UTF-8"?>
<!-- Generator: visioncortex VTracer 0.6.1 -->
<svg version="1.1" xmlns="http://www.w3.org/2000/svg" width="1280" height="495">
<path d="M0 0 C0.495 0.495 0.495 0.495 1 1 C1.680625 0.95875 2.36125 0.9175 3.0625 0.875 C12.18786323 1.26331333 23.54576225 7.76832217 30 14 C30 14.66 30 15.32 30 16 C30.58910156 16.23847656 31.17820312 16.47695312 31.78515625 16.72265625 C40.5722314 21.79033451 45.1198219 35.50644138 47.75 44.75 C52.50007519 62.75609897 50.8501155 83.47398579 42 100 C34.60889801 112.46274809 34.60889801 112.46274809 30.80078125 113.734375 C30.20652344 113.82203125 29.61226562 113.9096875 29 114 C27.71563266 115.9837767 27.71563266 115.9837767 27 118 C26.01 118 25.02 118 24 118 C23.505 119.485 23.505 119.485 23 121 C9.77525994 128.98474872 -6.04648846 129.82510606 -20.9375 126.875 C-29.30759845 124.65414785 -36.27440991 120.4890021 -42 114 C-43.83788538 115.83788538 -43.17305323 118.79764004 -43.20532227 121.26391602 C-43.21522186 121.91755127 -43.22512146 122.57118652 -43.23532104 123.24462891 C-43.26701634 125.41435064 -43.29172492 127.5840943 -43.31640625 129.75390625 C-43.33696887 131.25463952 -43.35796515 132.7553669 -43.37937927 134.25608826 C-43.43467155 138.21311693 -43.48404911 142.17019849 -43.53222656 146.12731934 C-43.5823895 150.1624016 -43.63810268 154.19740672 -43.69335938 158.23242188 C-43.8010284 166.15488277 -43.90245379 174.07740804 -44 182 C-49.53588533 182.02464775 -55.071739 182.04283496 -60.60766602 182.05493164 C-62.4924373 182.05997244 -64.37720465 182.06680498 -66.26196289 182.07543945 C-68.96501636 182.08751617 -71.66801831 182.09323068 -74.37109375 182.09765625 C-75.21900986 182.10281754 -76.06692596 182.10797882 -76.9405365 182.11329651 C-78.96071068 182.11349195 -80.98077934 182.06206211 -83 182 C-84 181 -84 181 -84.12304783 178.12829494 C-84.12212604 176.83133222 -84.12120424 175.53436949 -84.12025452 174.19810486 C-84.12110894 173.47854522 -84.12196337 172.75898558 -84.12284368 172.0176211 C-84.1245006 169.5884642 -84.11897368 167.15937523 -84.11352539 164.73022461 C-84.11324354 162.99610903 -84.11340121 161.26199332 -84.1139679 159.52787781 C-84.11425595 154.80493679 -84.10835799 150.08202094 -84.10139394 145.3590858 C-84.09516166 140.4289721 -84.0945567 135.49885788 -84.09336853 130.56874084 C-84.09025484 121.22603638 -84.08204095 111.88334356 -84.07201904 102.54064423 C-84.06085907 91.90720945 -84.05534775 81.27377413 -84.05032361 70.64033496 C-84.03985836 48.7602168 -84.02225819 26.88010913 -84 5 C-80.81714304 3.40857152 -77.4129558 3.99991716 -73.9296875 4.12109375 C-73.13345978 4.14470474 -72.33723206 4.16831573 -71.51687622 4.19264221 C-68.96940471 4.26932211 -66.4222339 4.35332761 -63.875 4.4375 C-62.14975438 4.49071637 -60.42449402 4.5434568 -58.69921875 4.59570312 C-54.46595478 4.72494307 -50.23294618 4.86075419 -46 5 C-45.93941406 5.69867188 -45.87882812 6.39734375 -45.81640625 7.1171875 C-45.73261719 8.02726563 -45.64882812 8.93734375 -45.5625 9.875 C-45.48128906 10.77992188 -45.40007812 11.68484375 -45.31640625 12.6171875 C-45.13010715 15.01110861 -45.13010715 15.01110861 -44 17 C-43.41734375 16.41992188 -42.8346875 15.83984375 -42.234375 15.2421875 C-29.78017189 3.3754468 -17.02730722 -1.08954496 0 0 Z M-37.5 43.375 C-43.97581125 51.99031231 -45.93635262 60.30447923 -45 71 C-43.32683628 77.75958144 -40.18459285 83.34685744 -35 88 C-34.16662109 88.76183594 -34.16662109 88.76183594 -33.31640625 89.5390625 C-27.92612221 93.42180231 -22.29432361 93.48861436 -15.875 93.5625 C-15.01567871 93.57724365 -14.15635742 93.5919873 -13.27099609 93.60717773 C-6.47615424 93.49762583 -2.2711648 91.89944153 2.890625 87.32421875 C9.9669808 78.8041237 11.79590997 69.95113156 11 59 C9.50568665 50.50267577 5.74202108 43.04039213 -1 37.5625 C-13.48849826 31.05807382 -27.7030922 32.66732439 -37.5 43.375 Z M-20 94 C-20 94.33 -20 94.66 -20 95 C-17.36 95 -14.72 95 -12 95 C-12 94.67 -12 94.34 -12 94 C-14.64 94 -17.28 94 -20 94 Z " fill="#502396" transform="translate(1096,184)"/>
<path d="M0 0 C1.09801689 -0.0098568 1.09801689 -0.0098568 2.21821594 -0.01991272 C4.65858055 -0.03972848 7.09888272 -0.05133975 9.53930664 -0.0612793 C10.37646273 -0.06535482 11.21361881 -0.06943035 12.07614326 -0.07362938 C16.52536906 -0.09454638 20.97456371 -0.10881155 25.42382812 -0.11816406 C29.97464531 -0.12911198 34.52495753 -0.16335717 39.07559872 -0.20333576 C42.608045 -0.22980063 46.14037787 -0.237883 49.67291451 -0.24144554 C51.34667857 -0.24625192 53.02043969 -0.25769066 54.69410515 -0.27648354 C74.35400732 -0.48312678 93.89276991 2.49475707 109.01196289 16.17700195 C120.92914514 29.97832369 121.92971293 45.77034286 121.01196289 63.17700195 C119.61524354 74.26790052 114.74205064 84.9989298 106.01196289 92.17700195 C105.02196289 92.17700195 104.03196289 92.17700195 103.01196289 92.17700195 C102.80313477 92.77383789 102.59430664 93.37067383 102.37915039 93.9855957 C98.17415543 100.72560192 86.19006117 102.93138757 78.86352539 104.6340332 C72.87865141 105.7736188 67.01204801 106.3409671 60.92602539 106.45825195 C59.4038896 106.49599717 57.88175419 106.53375803 56.35961914 106.5715332 C53.98285592 106.62542694 51.60606266 106.67767247 49.22924805 106.72924805 C46.91972684 106.78078086 44.61039908 106.83803892 42.30102539 106.89575195 C41.58443756 106.90932739 40.86784973 106.92290283 40.12954712 106.93688965 C36.7842507 106.73642558 36.7842507 106.73642558 34.01196289 108.17700195 C33.88780069 110.44620421 33.83392541 112.71926646 33.80664062 114.99169922 C33.79674103 115.7038559 33.78684143 116.41601257 33.77664185 117.14974976 C33.74494078 119.51426824 33.72023565 121.87880684 33.69555664 124.2434082 C33.67499453 125.87866247 33.65399826 127.51391134 33.63258362 129.14915466 C33.57728617 133.46128981 33.52791088 137.77347353 33.47973633 142.08569336 C33.42957717 146.48271019 33.37386202 150.87965615 33.31860352 155.27661133 C33.21092816 163.91001502 33.10950418 172.54347785 33.01196289 181.17700195 C27.33366211 181.201649 21.6553922 181.21983657 15.97705078 181.23193359 C14.04377704 181.23697451 12.11050713 181.24380714 10.17724609 181.25244141 C7.40469417 181.2645176 4.63219248 181.27023252 1.85961914 181.2746582 C0.55493431 181.28240013 0.55493431 181.28240013 -0.77610779 181.29029846 C-2.84709525 181.29049381 -4.91798035 181.23908363 -6.98803711 181.17700195 C-8.9017103 179.26332876 -8.11429701 175.7975655 -8.11502075 173.26794434 C-8.11736074 172.17128724 -8.11736074 172.17128724 -8.119748 171.05247545 C-8.12376062 168.58419861 -8.12056735 166.11598246 -8.11743164 163.64770508 C-8.11878557 161.88565535 -8.12056545 160.12360591 -8.1227417 158.36155701 C-8.12731708 153.56210835 -8.12552604 148.76268109 -8.12236261 143.96323204 C-8.11983955 138.95217199 -8.1221764 133.94111383 -8.12374878 128.93005371 C-8.12557063 120.51318023 -8.12316375 112.09631551 -8.1184082 103.67944336 C-8.11296555 93.93362046 -8.1147282 84.18781849 -8.12023461 74.4419961 C-8.12476529 66.09043527 -8.12541651 57.73888075 -8.12279594 49.38731909 C-8.12123292 44.39228821 -8.12104008 39.39726719 -8.12433243 34.40223694 C-8.12721049 29.70737282 -8.12523665 25.01253581 -8.11943817 20.31767464 C-8.11811022 18.58943286 -8.11850527 16.86118882 -8.12070084 15.13294792 C-8.12341099 12.78395382 -8.12003289 10.43504797 -8.11502075 8.08605957 C-8.11464373 6.76827263 -8.1142667 5.45048569 -8.11387825 4.09276581 C-7.87991373 -1.32823794 -4.47900264 0.01726723 0 0 Z M35.01196289 33.17700195 C33.39464248 36.41164278 34.01321092 39.92408647 34.13305664 43.46606445 C34.15666763 44.28448822 34.18027863 45.10291199 34.2046051 45.94613647 C34.28129233 48.56493255 34.36529472 51.18343666 34.44946289 53.80200195 C34.50267852 55.57542508 34.55541896 57.34886253 34.60766602 59.12231445 C34.73691429 63.4740625 34.87272441 67.82556256 35.01196289 72.17700195 C55.48663489 74.34806025 55.48663489 74.34806025 74.34008789 67.65356445 C77.73550584 64.59234119 78.84828752 62.11302048 79.63696289 57.6027832 C79.91706145 51.73821952 79.91547203 46.4916308 76.57446289 41.48950195 C71.0147288 35.47190741 63.944417 33.76803769 56.01196289 33.17700195 C52.34376343 33.06963834 48.68129805 33.08160447 45.01196289 33.11450195 C44.04645508 33.11901367 43.08094727 33.12352539 42.08618164 33.12817383 C39.728042 33.13984779 37.37003687 33.15622175 35.01196289 33.17700195 Z M33.01196289 35.17700195 C33.01196289 47.05700195 33.01196289 58.93700195 33.01196289 71.17700195 C33.34196289 71.17700195 33.67196289 71.17700195 34.01196289 71.17700195 C34.01196289 59.29700195 34.01196289 47.41700195 34.01196289 35.17700195 C33.68196289 35.17700195 33.35196289 35.17700195 33.01196289 35.17700195 Z " fill="#502396" transform="translate(139.988037109375,126.822998046875)"/>
<path d="M0 0 C21.78 0.495 21.78 0.495 44 1 C49.34165618 15.41239308 54.36035797 29.89448809 59.1418457 44.49975586 C61.30060421 51.0698334 63.51222221 57.58033329 66.1875 63.96337891 C67.36794404 66.92229241 68.1963959 69.91951764 69 73 C69.66 73 70.32 73 71 73 C76.99398438 55.66996056 82.33989555 38.16653139 87.60620117 20.60424805 C87.88164261 19.68609818 88.15708405 18.7679483 88.44087219 17.82197571 C88.96024188 16.08913137 89.47860537 14.35598502 89.99577332 12.6224823 C91.26249709 8.38992636 92.57439411 4.18261835 94 0 C99.78406969 -0.07410115 105.56786371 -0.12857885 111.35229492 -0.16479492 C113.32044283 -0.17989082 115.28855706 -0.20036948 117.2565918 -0.22631836 C120.08390612 -0.26266649 122.9107761 -0.27971814 125.73828125 -0.29296875 C127.06029289 -0.31619453 127.06029289 -0.31619453 128.40901184 -0.33988953 C129.22963608 -0.34011612 130.05026031 -0.34034271 130.89575195 -0.34057617 C131.61745071 -0.34723801 132.33914948 -0.35389984 133.0827179 -0.36076355 C135.52978289 0.09968609 136.42495885 1.12700892 138 3 C137.34 3 136.68 3 136 3 C136 4.65 136 6.3 136 8 C135.34 8 134.68 8 134 8 C133.87238281 8.70511719 133.74476563 9.41023437 133.61328125 10.13671875 C132.05156242 17.4280557 129.47897647 24.36702693 126.00390625 30.94921875 C123.20263483 36.67166036 121.30917381 42.82414165 119.5625 48.9375 C118.49707014 52.58235155 117.21033177 56.04459267 115.734375 59.54296875 C115.29037354 60.59718018 114.84637207 61.6513916 114.38891602 62.73754883 C113.0611264 65.85641904 111.72617851 68.97206332 110.38671875 72.0859375 C106.0545265 82.1607107 101.79564293 92.22547365 98.125 102.5625 C94.97424203 111.42823664 91.65782645 120.22084851 88.23431396 128.98434448 C87.67026365 130.43048711 87.10885478 131.87766335 86.550354 133.32595825 C80.45461126 149.11670966 73.66356629 165.26431721 58 173.625 C43.06542925 180.10172711 24.6797133 179.56936563 9 176 C7.48292795 170.02396617 8.44054576 164.44788686 9.25 158.4375 C9.37246094 157.40947266 9.49492187 156.38144531 9.62109375 155.32226562 C10.83291801 146.06560807 10.83291801 146.06560807 14 142 C15.00160156 142.09539062 16.00320313 142.19078125 17.03515625 142.2890625 C18.37754819 142.40171077 19.71999957 142.51365218 21.0625 142.625 C22.37347656 142.74101562 23.68445313 142.85703125 25.03515625 142.9765625 C29.77605489 143.00458752 33.8892422 142.51286074 37.8203125 139.6953125 C42.82649302 133.6699096 46.97660589 125.91902979 47.6875 118 C47.35067726 114.50350447 46.07420453 111.9656012 44.4375 108.87890625 C40.28632893 100.75124668 36.82272544 92.35713894 33.3125 83.9375 C32.59861041 82.23387517 31.88449623 80.53034443 31.17016602 78.8269043 C26.76650087 68.30983646 22.43655093 57.76500475 18.17993164 47.1875 C15.52600022 40.63007988 12.77331319 34.12169335 9.95703125 27.6328125 C9.60889877 26.82899643 9.2607663 26.02518036 8.90208435 25.19700623 C7.17361245 21.20843855 5.43642353 17.22403738 3.68530273 13.24536133 C3.05554319 11.79781217 2.42605381 10.35014543 1.796875 8.90234375 C1.49856277 8.23288727 1.20025055 7.56343079 0.89289856 6.87368774 C0.20207012 5.27366338 -0.40740126 3.63894742 -1 2 C-0.67 1.34 -0.34 0.68 0 0 Z " fill="#502396" transform="translate(448,188)"/>
<path d="M0 0 C8.52407328 7.11244331 15.98496478 15.90451049 19.9375 26.375 C20.19426514 27.05046875 20.45103027 27.7259375 20.71557617 28.421875 C23.19951134 35.65643744 23.43952599 42.52219966 23.375 50.125 C23.36364014 51.98680908 23.36364014 51.98680908 23.35205078 53.88623047 C23.0205565 72.2974711 17.06649582 85.3991758 3.9375 98.375 C-12.46592337 113.38175508 -30.99041194 115.33713679 -52.26416016 114.53466797 C-69.32391269 113.56127082 -84.58399999 104.75695047 -96.0625 92.375 C-102.13795871 84.95663309 -106.43490272 76.60287142 -109.0625 67.375 C-109.2368457 66.77582764 -109.41119141 66.17665527 -109.59082031 65.55932617 C-110.5624713 61.05965674 -110.29023065 56.39720213 -110.3125 51.8125 C-110.333125 50.77802734 -110.35375 49.74355469 -110.375 48.67773438 C-110.45360595 32.98602252 -104.21409828 16.65332099 -93.0625 5.375 C-66.50994107 -17.70411372 -28.64774331 -21.44132341 0 0 Z M-44.0625 13.375 C-45.7125 16.675 -47.3625 19.975 -49.0625 23.375 C-51.7025 23.375 -54.3425 23.375 -57.0625 23.375 C-56.0725 29.645 -55.0825 35.915 -54.0625 42.375 C-55.0525 42.375 -56.0425 42.375 -57.0625 42.375 C-57.4028125 41.50875 -57.4028125 41.50875 -57.75 40.625 C-59.39288023 37.8086339 -61.45783227 36.29422886 -64.0625 34.375 C-64.7225 35.365 -65.3825 36.355 -66.0625 37.375 C-69.6925 37.045 -73.3225 36.715 -77.0625 36.375 C-76.49643721 41.06523454 -75.87712495 45.72000026 -75.0625 50.375 C-76.0525 50.375 -77.0425 50.375 -78.0625 50.375 C-78.0625 51.365 -78.0625 52.355 -78.0625 53.375 C-76.04440703 55.34878895 -76.04440703 55.34878895 -73.4375 57.25 C-72.07625 58.30767578 -72.07625 58.30767578 -70.6875 59.38671875 C-69.1550655 60.54744667 -67.61629995 61.70006371 -66.0625 62.83203125 C-64.4375 64.0625 -64.4375 64.0625 -62.0625 66.375 C-62.0625 68.025 -62.0625 69.675 -62.0625 71.375 C-56.4525 71.375 -50.8425 71.375 -45.0625 71.375 C-45.0625 77.645 -45.0625 83.915 -45.0625 90.375 C-44.0725 90.705 -43.0825 91.035 -42.0625 91.375 C-41.7325 84.775 -41.4025 78.175 -41.0625 71.375 C-38.00980154 69.84865077 -35.30404311 70.53705556 -31.9375 70.8125 C-30.65617187 70.91433594 -29.37484375 71.01617187 -28.0546875 71.12109375 C-27.06726563 71.20488281 -26.07984375 71.28867187 -25.0625 71.375 C-24.70285156 70.33988281 -24.34320313 69.30476563 -23.97265625 68.23828125 C-22.09067114 63.84992959 -19.20302878 61.45078098 -15.5 58.5625 C-14.33168894 57.61891326 -13.16370622 56.6749198 -11.99609375 55.73046875 C-11.02800781 54.95316406 -10.05992187 54.17585938 -9.0625 53.375 C-8.0725 52.385 -8.0725 52.385 -7.0625 51.375 C-8.0525 51.375 -9.0425 51.375 -10.0625 51.375 C-10.13355651 47.11160933 -10.17188394 43.49556892 -9.0625 39.375 C-9.5575 38.385 -9.5575 38.385 -10.0625 37.375 C-13.3625 37.705 -16.6625 38.035 -20.0625 38.375 C-20.7225 37.055 -21.3825 35.735 -22.0625 34.375 C-22.784375 35.138125 -23.50625 35.90125 -24.25 36.6875 C-26.76040967 39.08633591 -29.03058302 40.72910221 -32.0625 42.375 C-31.55008893 36.34599313 -30.992715 30.35495357 -30.0625 24.375 C-31.114375 24.230625 -32.16625 24.08625 -33.25 23.9375 C-36.00815209 23.19190197 -36.91601643 22.57333295 -38.640625 20.23828125 C-39.87314798 17.98219752 -41.0145351 15.72205504 -42.0625 13.375 C-42.7225 13.375 -43.3825 13.375 -44.0625 13.375 Z M-9.0625 37.375 C-8.0625 39.375 -8.0625 39.375 -8.0625 39.375 Z M-41.0625 87.375 C-40.0625 91.375 -40.0625 91.375 -40.0625 91.375 Z " fill="#502396" transform="translate(363.0625,197.625)"/>
<path d="M0 0 C1.23169922 0.90492188 1.23169922 0.90492188 2.48828125 1.828125 C14.58146228 12.28505914 19.99718919 25.66421621 23 41 C23 48.59 23 56.18 23 64 C-18.58 64.495 -18.58 64.495 -61 65 C-62.19940217 68.59820651 -61.79915686 69.41666275 -60.3125 72.8125 C-56.96642016 79.25959468 -51.6302687 81.61063455 -45 84 C-36.91531745 86.26210489 -25.23293242 85.76954816 -17.75 81.75 C-14.42043185 79.53244296 -11.64829717 76.99001294 -9 74 C-3.69784279 75.98969474 0.79951867 78.8496181 5.5625 81.875 C6.41263672 82.40480469 7.26277344 82.93460937 8.13867188 83.48046875 C12.15136326 86.01711915 15.85026729 88.38784116 19 92 C15.19102939 100.98420241 5.65866191 108.03144663 -3 112 C-21.6520639 118.77662602 -44.27805722 120.42823352 -63 113 C-64.03640625 112.59910156 -65.0728125 112.19820313 -66.140625 111.78515625 C-74.54694013 108.0669784 -80.61984348 102.44497668 -87 96 C-87.69222656 95.3296875 -88.38445313 94.659375 -89.09765625 93.96875 C-99.11710195 83.57495138 -102.7296928 68.58920725 -103.375 54.5 C-102.54962687 35.73173264 -95.50827549 17.83203542 -81.875 4.6875 C-59.03069344 -14.10442522 -24.29579466 -18.2819841 0 0 Z M-50 21 C-51.19625 21.474375 -52.3925 21.94875 -53.625 22.4375 C-58.74167289 25.42026092 -61.06395924 31.64466146 -63 37 C-62.67 37.66 -62.34 38.32 -62 39 C-46.16 39 -30.32 39 -14 39 C-14.96396557 30.32430984 -15.35789694 27.36194129 -21.4375 21.75 C-29.96537265 15.92608697 -40.97585377 16.46796196 -50 21 Z M-38 86 C-38 86.33 -38 86.66 -38 87 C-35.69 87 -33.38 87 -31 87 C-31 86.67 -31 86.34 -31 86 C-33.31 86 -35.62 86 -38 86 Z " fill="#502396" transform="translate(845,195)"/>
<path d="M0 0 C12.95392818 11.95405379 16.76728641 27.40005446 20.46484375 44.0390625 C20.46484375 50.3090625 20.46484375 56.5790625 20.46484375 63.0390625 C-8.24515625 62.7090625 -36.95515625 62.3790625 -66.53515625 62.0390625 C-63.43792867 72.24582655 -63.43792867 72.24582655 -55.94140625 78.48046875 C-48.55003181 81.96752846 -42.77697012 83.29030179 -34.59765625 82.7890625 C-33.90736328 82.76199219 -33.21707031 82.73492187 -32.50585938 82.70703125 C-25.64567989 82.30387378 -21.15792877 79.91849256 -16.16015625 75.3515625 C-15.47179687 74.72894531 -14.7834375 74.10632813 -14.07421875 73.46484375 C-13.56632813 72.99433594 -13.0584375 72.52382813 -12.53515625 72.0390625 C-8.03906511 73.64419293 -4.15221467 75.94009465 -0.09765625 78.4140625 C0.54494141 78.80078125 1.18753906 79.1875 1.84960938 79.5859375 C3.72994192 80.72368186 5.59922861 81.87736811 7.46484375 83.0390625 C8.06184082 83.40547852 8.65883789 83.77189453 9.27392578 84.14941406 C10.70741714 85.0573901 12.0919853 86.04177738 13.46484375 87.0390625 C13.46484375 87.6990625 13.46484375 88.3590625 13.46484375 89.0390625 C14.12484375 89.0390625 14.78484375 89.0390625 15.46484375 89.0390625 C14.0014168 97.10575739 5.97673053 102.75901273 -0.359375 107.2109375 C-17.99683808 117.36386827 -42.68331601 118.00291673 -62.02758789 112.86865234 C-75.35212374 108.89539711 -89.14478596 99.51554551 -96.3359375 87.3359375 C-96.92955078 86.19898438 -96.92955078 86.19898438 -97.53515625 85.0390625 C-97.98246094 84.19859375 -98.42976562 83.358125 -98.890625 82.4921875 C-107.52748833 64.9651804 -107.7151633 46.29208642 -101.53515625 28.0390625 C-94.35741283 10.29121277 -81.80593492 -1.66526734 -64.41601562 -9.17871094 C-43.31119531 -17.95594929 -17.91463029 -13.85692512 0 0 Z M-61.53515625 25.0390625 C-63.49501781 28.25303236 -65.2715302 31.48707884 -66.53515625 35.0390625 C-66.20515625 35.6990625 -65.87515625 36.3590625 -65.53515625 37.0390625 C-49.36515625 37.0390625 -33.19515625 37.0390625 -16.53515625 37.0390625 C-18.62331427 26.41093737 -18.62331427 26.41093737 -25.40625 18.65234375 C-37.20576879 12.48195319 -52.54642957 15.42321535 -61.53515625 25.0390625 Z M-41.53515625 84.0390625 C-41.53515625 84.3690625 -41.53515625 84.6990625 -41.53515625 85.0390625 C-39.22515625 85.0390625 -36.91515625 85.0390625 -34.53515625 85.0390625 C-34.53515625 84.7090625 -34.53515625 84.3790625 -34.53515625 84.0390625 C-36.84515625 84.0390625 -39.15515625 84.0390625 -41.53515625 84.0390625 Z " fill="#502396" transform="translate(982.53515625,196.9609375)"/>
<path d="M0 0 C1.7871919 1.58918239 3.37578696 3.23788208 5 5 C3.66000502 8.006818 2.20154709 9.99762609 -0.1875 12.25 C-2.81981546 14.8000556 -5.29109637 17.41407598 -7.6875 20.1875 C-8.265 20.85007813 -8.8425 21.51265625 -9.4375 22.1953125 C-10.69343842 23.64592137 -11.94172005 25.10315778 -13.1875 26.5625 C-13.785625 27.036875 -14.38375 27.51125 -15 28 C-18.40310558 27.57189077 -20.69012034 26.00761937 -23.5 24.125 C-30.34790288 19.94969545 -37.84942912 17.03963063 -45.9375 18.625 C-49.3129283 19.64191669 -52.31536686 20.650946 -55 23 C-55.89207179 26.0957107 -55.89207179 26.0957107 -56 29 C-49.45459189 32.62052767 -42.97080824 34.51689429 -35.75 36.375 C-20.88345033 40.40350803 -7.88950164 44.84997227 0.5 58.8125 C4.85786255 68.07295793 4.60566697 81.57468567 1.4375 91.1875 C-2.84226731 100.88830589 -11.17784397 108.10343918 -20.8125 112.25 C-40.70862412 119.44137016 -64.65985046 117.43749024 -84.01953125 109.453125 C-90.92900019 106.0844193 -96.36025502 102.14424278 -101 96 C-100.60731934 95.61255615 -100.21463867 95.2251123 -99.81005859 94.82592773 C-97.99561799 93.03254808 -96.18530373 91.23505511 -94.375 89.4375 C-93.44880859 88.52387695 -93.44880859 88.52387695 -92.50390625 87.59179688 C-88.90480269 84.01163597 -85.56166394 80.37758845 -82.44384766 76.36743164 C-80.66265578 74.68050981 -79.4230586 74.27757329 -77 74 C-74.703125 75.29296875 -74.703125 75.29296875 -72.25 77.1875 C-65.73309915 81.98187199 -60.23157918 85.42234532 -52 86 C-50.89785156 86.07734375 -50.89785156 86.07734375 -49.7734375 86.15625 C-44.70728618 86.3595738 -41.4328385 85.72790061 -37 83 C-36.97291433 81.39592672 -36.95356517 79.7917215 -36.9375 78.1875 C-36.92589844 77.29417969 -36.91429687 76.40085937 -36.90234375 75.48046875 C-36.88990033 72.86586209 -36.88990033 72.86586209 -38 70 C-39.91992147 69.08191385 -39.91992147 69.08191385 -42.3125 68.51953125 C-43.21871094 68.27154785 -44.12492188 68.02356445 -45.05859375 67.76806641 C-46.02925781 67.51460449 -46.99992188 67.26114258 -48 67 C-50.97574725 66.18666237 -53.9493579 65.36607967 -56.921875 64.54101562 C-58.9709698 63.97283388 -61.02310262 63.41549493 -63.078125 62.86914062 C-74.88426962 59.54677044 -83.75461903 54.0273627 -91 44 C-95.63048364 35.74181262 -94.95689228 25.29641454 -93 16.3125 C-89.17417594 4.27600329 -79.59670055 -2.26517236 -69 -8 C-66.03448761 -9.29581845 -63.15587501 -10.2973002 -60 -11 C-59.2464624 -11.16910889 -58.4929248 -11.33821777 -57.71655273 -11.51245117 C-37.33715561 -15.17000991 -17.25263559 -11.16224737 0 0 Z " fill="#502396" transform="translate(679,196)"/>
<path d="M0 0 C5.51757479 -0.02467609 11.03511761 -0.04284856 16.55273438 -0.05493164 C18.43066975 -0.05996763 20.3086012 -0.06679671 22.18652344 -0.07543945 C24.88217132 -0.08753713 27.57776747 -0.09323557 30.2734375 -0.09765625 C31.11619232 -0.10281754 31.95894714 -0.10797882 32.82723999 -0.11329651 C38.77225659 -0.11387171 38.77225659 -0.11387171 41 1 C41 61.06 41 121.12 41 183 C27.8 183 14.6 183 1 183 C-0.46846883 180.06306234 -0.13367841 177.10678876 -0.12025452 173.88803101 C-0.12110894 173.14719918 -0.12196337 172.40636735 -0.12284368 171.64308608 C-0.12449753 169.14793813 -0.11897865 166.65285665 -0.11352539 164.15771484 C-0.11324347 162.3741913 -0.11340134 160.59066764 -0.1139679 158.80714417 C-0.11425569 153.95410149 -0.10836186 149.10108335 -0.10139394 144.2480464 C-0.09515741 139.18047172 -0.09455636 134.11289653 -0.09336853 129.0453186 C-0.0902561 119.44411103 -0.08204389 109.84291479 -0.07201904 100.24171221 C-0.06085517 89.3132175 -0.05534676 78.38472225 -0.05032361 67.45622325 C-0.03986121 44.9708092 -0.02226347 22.48540524 0 0 Z " fill="#502396" transform="translate(693,126)"/>
<path d="M0 0 C5.37515933 -0.02467759 10.75028585 -0.04284928 16.12548828 -0.05493164 C17.95492121 -0.05996737 19.78435009 -0.06679627 21.61376953 -0.07543945 C24.23991898 -0.08753824 26.86601532 -0.09323583 29.4921875 -0.09765625 C30.31306854 -0.10281754 31.13394958 -0.10797882 31.97970581 -0.11329651 C37.77225659 -0.11387171 37.77225659 -0.11387171 40 1 C40 61.06 40 121.12 40 183 C26.8 183 13.6 183 0 183 C-1.49310679 180.01378641 -1.12602865 177.30968907 -1.12698364 173.97741699 C-1.12932363 172.88053661 -1.12932363 172.88053661 -1.13171089 171.76149702 C-1.1357158 169.29866011 -1.1325332 166.8358843 -1.12939453 164.37304688 C-1.1307488 162.61247217 -1.13252887 160.85189774 -1.13470459 159.09132385 C-1.13927591 154.30013145 -1.13749059 149.50896051 -1.1343255 144.71776772 C-1.13180036 139.71251999 -1.13413988 134.70727416 -1.13571167 129.70202637 C-1.13753291 121.29532541 -1.13512824 112.88863322 -1.13037109 104.48193359 C-1.12492856 94.75144672 -1.12669125 85.0209808 -1.1321975 75.29049444 C-1.13672992 66.94823956 -1.13737854 58.60599101 -1.13475883 50.26373529 C-1.13319677 45.27595329 -1.13300036 40.28818115 -1.13629532 35.30039978 C-1.13917589 30.6120855 -1.13719488 25.92379833 -1.13140106 21.23548698 C-1.13007447 19.51088951 -1.13046588 17.78628977 -1.13266373 16.06169319 C-1.13537917 13.71529192 -1.13198923 11.36897861 -1.12698364 9.02258301 C-1.12660662 7.70701668 -1.12622959 6.39145035 -1.12584114 5.03601837 C-1 2 -1 2 0 0 Z " fill="#502396" transform="translate(398,126)"/>
<path d="M0 0 C0.33 0 0.66 0 1 0 C1 24.09 1 48.18 1 73 C0.67 73 0.34 73 0 73 C0 48.91 0 24.82 0 0 Z " fill="#FCFDFF" transform="translate(174,235)"/>
<path d="M0 0 C13.53 0 27.06 0 41 0 C41 0.33 41 0.66 41 1 C27.47 1 13.94 1 0 1 C0 0.67 0 0.34 0 0 Z " fill="#502396" transform="translate(449,187)"/>
<path d="M0 0 C11.22 0 22.44 0 34 0 C34 0.33 34 0.66 34 1 C22.78 1 11.56 1 0 1 C0 0.67 0 0.34 0 0 Z " fill="#502396" transform="translate(1014,187)"/>
<path d="M0 0 C0.33 0 0.66 0 1 0 C1 4.29 1 8.58 1 13 C0.67 13 0.34 13 0 13 C0 8.71 0 4.42 0 0 Z " fill="#FCFDFF" transform="translate(262,173)"/>
<path d="M0 0 C3.63 0 7.26 0 11 0 C11 0.33 11 0.66 11 1 C7.37 1 3.74 1 0 1 C0 0.67 0 0.34 0 0 Z " fill="#FCFDFF" transform="translate(473,367)"/>
<path d="M0 0 C0.33 0 0.66 0 1 0 C1 3.63 1 7.26 1 11 C0.67 11 0.34 11 0 11 C0 7.37 0 3.74 0 0 Z " fill="#FCFDFF" transform="translate(1003,247)"/>
<path d="M0 0 C2.97 0 5.94 0 9 0 C9 0.33 9 0.66 9 1 C6.03 1 3.06 1 0 1 C0 0.67 0 0.34 0 0 Z " fill="#502396" transform="translate(632,183)"/>
<path d="M0 0 C0.33 0 0.66 0 1 0 C1 2.31 1 4.62 1 7 C0.67 7 0.34 7 0 7 C0 4.69 0 2.38 0 0 Z " fill="#FCFDFF" transform="translate(319,269)"/>
<path d="M0 0 C1.65 0 3.3 0 5 0 C5 0.33 5 0.66 5 1 C3.35 1 1.7 1 0 1 C0 0.67 0 0.34 0 0 Z " fill="#FCFDFF" transform="translate(464,366)"/>
<path d="M0 0 C4 1 4 1 4 1 Z " fill="#502396" transform="translate(807,183)"/>
<path d="M0 0 C3 1 3 1 3 1 Z " fill="#FCFDFF" transform="translate(489,366)"/>
<path d="" fill="#502396" transform="translate(0,0)"/>
<path d="" fill="#FCFDFF" transform="translate(0,0)"/>
<path d="M0 0 C3 1 3 1 3 1 Z " fill="#502396" transform="translate(942,183)"/>
<path d="" fill="#FCFDFF" transform="translate(0,0)"/>
<path d="M0 0 C2 1 2 1 2 1 Z " fill="#FCFDFF" transform="translate(459,365)"/>
<path d="" fill="#FCFDFF" transform="translate(0,0)"/>
<path d="" fill="#FCFDFF" transform="translate(0,0)"/>
<path d="" fill="#FCFDFF" transform="translate(0,0)"/>
<path d="" fill="#FCFDFF" transform="translate(0,0)"/>
<path d="" fill="#FCFDFF" transform="translate(0,0)"/>
<path d="" fill="#FCFDFF" transform="translate(0,0)"/>
<path d="" fill="#FCFDFF" transform="translate(0,0)"/>
<path d="" fill="#FCFDFF" transform="translate(0,0)"/>
<path d="" fill="#FCFDFF" transform="translate(0,0)"/>
<path d="" fill="#FCFDFF" transform="translate(0,0)"/>
<path d="" fill="#FCFDFF" transform="translate(0,0)"/>
<path d="" fill="#FCFDFF" transform="translate(0,0)"/>
<path d="" fill="#FCFDFF" transform="translate(0,0)"/>
<path d="" fill="#FCFDFF" transform="translate(0,0)"/>
<path d="" fill="#502396" transform="translate(0,0)"/>
<path d="" fill="#FCFDFF" transform="translate(0,0)"/>
<path d="" fill="#FCFDFF" transform="translate(0,0)"/>
<path d="" fill="#FCFDFF" transform="translate(0,0)"/>
<path d="" fill="#FCFDFF" transform="translate(0,0)"/>
<path d="" fill="#FCFDFF" transform="translate(0,0)"/>
<path d="" fill="#FCFDFF" transform="translate(0,0)"/>
<path d="" fill="#FCFDFF" transform="translate(0,0)"/>
<path d="" fill="#FCFDFF" transform="translate(0,0)"/>
<path d="" fill="#FCFDFF" transform="translate(0,0)"/>
<path d="" fill="#FCFDFF" transform="translate(0,0)"/>
<path d="" fill="#FCFDFF" transform="translate(0,0)"/>
<path d="" fill="#FCFDFF" transform="translate(0,0)"/>
<path d="" fill="#FCFDFF" transform="translate(0,0)"/>
<path d="" fill="#FCFDFF" transform="translate(0,0)"/>
<path d="" fill="#FCFDFF" transform="translate(0,0)"/>
<path d="" fill="#FCFDFF" transform="translate(0,0)"/>
<path d="" fill="#FCFDFF" transform="translate(0,0)"/>
<path d="" fill="#FCFDFF" transform="translate(0,0)"/>
<path d="" fill="#FCFDFF" transform="translate(0,0)"/>
<path d="" fill="#FCFDFF" transform="translate(0,0)"/>
<path d="" fill="#FCFDFF" transform="translate(0,0)"/>
<path d="" fill="#FCFDFF" transform="translate(0,0)"/>
<path d="" fill="#FCFDFF" transform="translate(0,0)"/>
<path d="" fill="#FCFDFF" transform="translate(0,0)"/>
<path d="" fill="#FCFDFF" transform="translate(0,0)"/>
<path d="" fill="#FCFDFF" transform="translate(0,0)"/>
</svg>
